<svg width="44" height="40" viewBox="0 0 44 40" fill="none" xmlns="http://www.w3.org/2000/svg">
<path d="M31.2473 9.60156V20.1716C31.2473 21.6276 30.3613 23.3196 29.2673 23.9516L6.34133 37.1896C5.84633 37.4756 5.39133 37.4946 5.04433 37.2936C4.62633 37.0516 4.36133 36.4916 4.36133 35.6916V25.1236L31.2453 9.60356L31.2473 9.60156ZM13.6253 27.3526V25.7396C13.6253 24.9046 13.1153 24.5186 12.4873 24.8816L8.37933 27.2546C7.75233 27.6156 7.24233 28.5896 7.24233 29.4246V31.0416C7.24233 31.8776 7.75233 32.2596 8.37933 31.8976L12.4863 29.5276C13.1143 29.1616 13.6253 28.1926 13.6253 27.3526Z" fill="#F4A4A4"/>
<path d="M31.2472 5.86719V9.60219L4.36523 25.1242V21.3902L31.2472 5.86719Z" fill="#B61616"/>
<path d="M31.2473 3.40412V5.86712L4.36328 21.3891V18.9271C4.36328 17.4671 5.24828 15.7741 6.34328 15.1441L29.2683 1.90812C29.7513 1.63112 30.1943 1.60612 30.5373 1.78912C30.9713 2.02312 31.2473 2.59112 31.2473 3.40412Z" fill="#F8C6C6"/>
<path d="M28.5105 0.620127L30.5375 1.79013C30.1945 1.60613 29.7505 1.63013 29.2695 1.90813L6.3445 15.1441C5.2495 15.7771 4.3645 17.4681 4.3645 18.9271V35.6901C4.3645 36.4881 4.6295 37.0501 5.0465 37.2921L2.9975 36.1081C2.5775 35.8681 2.3125 35.3061 2.3125 34.5081V17.7401C2.3125 16.2841 3.1985 14.5901 4.2925 13.9601L27.2185 0.721127C27.7135 0.435127 28.1685 0.416127 28.5135 0.616127L28.5105 0.620127Z" fill="#EE7777"/>
<path d="M13.6261 25.7398V27.3528C13.6261 28.1928 13.1161 29.1628 12.4871 29.5278L8.38014 31.8978C7.75414 32.2598 7.24414 31.8748 7.24414 31.0418V29.4248C7.24414 28.5898 7.75414 27.6158 8.38014 27.2548L12.4871 24.8818C13.1161 24.5178 13.6261 24.9068 13.6261 25.7398Z" fill="white"/>
<path d="M29.1642 1.72845C29.6362 1.45645 30.0942 1.39645 30.4772 1.53445L30.6372 1.60645C31.1462 1.88145 31.4583 2.52245 31.4583 3.40445V20.1724C31.4583 20.9424 31.2282 21.7654 30.8522 22.4814C30.5212 23.1084 30.0802 23.6464 29.5893 23.9944L29.3752 24.1314L6.45025 37.3684C6.14125 37.5474 5.83725 37.6354 5.55825 37.6354H5.52825C5.37724 37.6333 5.22797 37.6028 5.08825 37.5454L4.94425 37.4744C4.45725 37.1914 4.15625 36.5514 4.15625 35.6904V18.9274C4.15625 18.1564 4.38625 17.3314 4.76325 16.6144C5.09325 15.9864 5.53425 15.4484 6.02525 15.1004L6.23925 14.9624L29.1642 1.72845ZM30.0572 1.88145C29.8952 1.88145 29.7252 1.92145 29.5502 1.99945L29.3732 2.08945L6.45025 15.3244C5.92525 15.6284 5.45725 16.1854 5.12125 16.8324C4.78425 17.4804 4.57425 18.2304 4.57425 18.9294V35.6904C4.57425 36.3124 4.74525 36.8214 5.08325 37.0674L5.15325 37.1114C5.41925 37.2664 5.75225 37.2444 6.09325 37.0844L6.24125 37.0084L29.1663 23.7714C29.6912 23.4674 30.1593 22.9104 30.4963 22.2634C30.8323 21.6154 31.0422 20.8674 31.0422 20.1714V3.40445C31.0422 2.73945 30.8352 2.18845 30.4422 1.97445H30.4433C30.3256 1.91134 30.1938 1.87933 30.0602 1.88145H30.0572Z" fill="#373A3E" stroke="#373A3E" stroke-width="0.209"/>
<path d="M31.1446 5.68911C31.1863 5.66465 31.235 5.65528 31.2827 5.66256C31.3305 5.66985 31.3742 5.69335 31.4066 5.72911L31.4316 5.76411C31.4559 5.80595 31.4649 5.85486 31.4573 5.90259C31.4496 5.95032 31.4257 5.99395 31.3896 6.02611L31.3546 6.05011L4.47164 21.5721L4.47064 21.5731C4.4258 21.5964 4.37408 21.6027 4.32498 21.5909C4.27587 21.5791 4.23265 21.55 4.20325 21.5089C4.17385 21.4679 4.16024 21.4176 4.1649 21.3673C4.16956 21.317 4.19219 21.2701 4.22864 21.2351L4.26264 21.2101L31.1446 5.68911ZM31.1446 9.42312C31.1864 9.39877 31.2352 9.38956 31.2829 9.39703C31.3307 9.4045 31.3743 9.42819 31.4066 9.46411L31.4316 9.49911C31.4556 9.54085 31.4645 9.58954 31.4569 9.63705C31.4492 9.68456 31.4255 9.72801 31.3896 9.76011L31.3546 9.78511L4.47164 25.3051H4.46964C4.43828 25.3241 4.40231 25.3342 4.36564 25.3341C4.32339 25.3336 4.28229 25.3204 4.24769 25.2961C4.21309 25.2719 4.18661 25.2377 4.17171 25.1982C4.1568 25.1587 4.15417 25.1156 4.16414 25.0745C4.17412 25.0335 4.19625 24.9964 4.22764 24.9681L4.26164 24.9431L31.1436 9.42312H31.1446ZM12.3816 24.6991C12.6876 24.5211 12.9816 24.4891 13.2296 24.5881L13.3336 24.6381C13.6406 24.8161 13.8326 25.2041 13.8326 25.7381V27.3511C13.8326 27.8061 13.6966 28.2951 13.4706 28.7231C13.2716 29.0971 13.0086 29.4181 12.7166 29.6251L12.5906 29.7071L8.48264 32.0771C8.31532 32.18 8.12396 32.2372 7.92764 32.2431C7.82375 32.2435 7.7208 32.2234 7.62464 32.1841L7.53064 32.1391C7.22664 31.9631 7.03364 31.5721 7.03364 31.0391V29.4241L7.03964 29.2511C7.06964 28.8461 7.19864 28.4251 7.39564 28.0511C7.59364 27.6781 7.85764 27.3591 8.14764 27.1531L8.27364 27.0731L12.3816 24.6991ZM12.9396 24.9531C12.8715 24.9545 12.8042 24.9677 12.7406 24.9921L12.5936 25.0601L12.5926 25.0611L8.48564 27.4341C8.19664 27.6011 7.94064 27.9141 7.75564 28.2701C7.56696 28.6262 7.46358 29.0213 7.45364 29.4241V31.0401C7.45364 31.2081 7.47664 31.3611 7.52164 31.4861C7.55195 31.5757 7.60301 31.6569 7.67064 31.7231L7.74164 31.7761C7.83603 31.8257 7.94568 31.8379 8.04864 31.8101C8.09248 31.8 8.13532 31.7859 8.17664 31.7681L8.27664 31.7181L12.3836 29.3461C12.6736 29.1781 12.9306 28.8651 13.1146 28.5081C13.2996 28.1491 13.4176 27.7351 13.4176 27.3531V25.7411C13.4176 25.5731 13.3946 25.4181 13.3476 25.2931C13.3106 25.1736 13.2327 25.071 13.1276 25.0031C13.1014 24.9876 13.0731 24.9758 13.0436 24.9681V24.9531H12.9396Z" fill="#373A3E" stroke="#373A3E" stroke-width="0.209"/>
<path d="M27.1135 0.5429C27.6005 0.2619 28.0665 0.2069 28.4555 0.3599L28.6175 0.4379L30.6685 1.6229H30.6705C30.7565 1.6729 30.7935 1.7769 30.7635 1.8699L30.7455 1.9089C30.7218 1.95068 30.6843 1.98291 30.6394 2.00006C30.5945 2.01721 30.5451 2.01822 30.4995 2.0029L30.4615 1.9849L28.4095 0.7999H28.4075C28.1425 0.6459 27.8105 0.6699 27.4695 0.8289L27.3215 0.9049L4.39752 14.1419C3.88052 14.4409 3.41252 15.0029 3.07452 15.6529C2.73652 16.3039 2.52252 17.0549 2.52152 17.7419V34.5099C2.52152 35.1299 2.69252 35.6399 3.03152 35.8829L3.10052 35.9279L5.15152 37.1129C5.19393 37.1433 5.22352 37.1883 5.23455 37.2393C5.24557 37.2903 5.23724 37.3435 5.21116 37.3887C5.18508 37.4338 5.14313 37.4677 5.09348 37.4836C5.04382 37.4996 4.99001 37.4964 4.94252 37.4749L2.89452 36.2909C2.40452 36.0099 2.10352 35.3729 2.10352 34.5099V17.7419C2.10352 16.9709 2.33352 16.1469 2.71052 15.4319C3.04052 14.8039 3.48252 14.2659 3.97552 13.9179L4.18852 13.7799L27.1135 0.5429Z" fill="#373A3E" stroke="#373A3E" stroke-width="0.209"/>
<path d="M41.6829 11.6905V22.2595C41.6829 23.7155 40.7979 25.4075 39.7029 26.0395L16.7779 39.2785C16.2829 39.5645 15.8279 39.5835 15.4799 39.3825C15.0629 39.1405 14.7969 38.5805 14.7969 37.7805V27.2125L41.6809 11.6925L41.6829 11.6905ZM24.0619 29.4405V27.8285C24.0619 26.9925 23.5519 26.6065 22.9229 26.9695L18.8159 29.3425C18.1899 29.7045 17.6799 30.6775 17.6799 31.5125V33.1295C17.6799 33.9655 18.1899 34.3475 18.8159 33.9865L22.9229 31.6155C23.5519 31.2495 24.0619 30.2805 24.0619 29.4405Z" fill="#99C2FF"/>
<path d="M41.6847 7.9541V11.6891L14.8027 27.2121V23.4771L41.6847 7.9541Z" fill="#0052CC"/>
<path d="M41.6848 5.49096V7.95396L14.8008 23.477V21.014C14.8008 19.554 15.6858 17.862 16.7808 17.231L39.7068 3.99596C40.1888 3.71796 40.6318 3.69296 40.9738 3.87596C41.4088 4.11096 41.6848 4.67896 41.6848 5.49096Z" fill="#BFE9FD"/>
<path d="M38.947 2.70684L40.973 3.87684C40.631 3.69284 40.186 3.71684 39.705 3.99584L16.78 17.2298C15.685 17.8628 14.8 19.5548 14.8 21.0128V37.7758C14.8 38.5738 15.065 39.1358 15.482 39.3778L13.433 38.1938C13.013 37.9538 12.748 37.3918 12.748 36.5938V19.8268C12.748 18.3708 13.634 16.6768 14.728 16.0468L37.654 2.80884C38.149 2.52284 38.604 2.50384 38.949 2.70484L38.947 2.70684Z" fill="#66A3FF"/>
<path d="M24.0617 27.8283V29.4413C24.0617 30.2813 23.5517 31.2503 22.9227 31.6153L18.8167 33.9853C18.1897 34.3473 17.6797 33.9633 17.6797 33.1303V31.5133C17.6797 30.6773 18.1897 29.7033 18.8167 29.3433L22.9227 26.9693C23.5517 26.6063 24.0617 26.9943 24.0617 27.8283Z" fill="white"/>
<path d="M39.5998 3.81508C40.0718 3.54308 40.5298 3.48308 40.9138 3.62208L41.0738 3.69208C41.5818 3.96808 41.8938 4.61008 41.8938 5.49208V22.2591C41.8938 23.0291 41.6638 23.8521 41.2878 24.5681C40.9568 25.1951 40.5158 25.7341 40.0248 26.0811L39.8108 26.2181L16.8858 39.4561C16.5768 39.6341 16.2728 39.7221 15.9938 39.7221H15.9638C15.8128 39.7199 15.6635 39.6894 15.5238 39.6321L15.3798 39.5611C14.8928 39.2771 14.5918 38.6391 14.5918 37.7771V21.0141C14.5918 20.2431 14.8218 19.4191 15.1988 18.7021C15.5288 18.0741 15.9698 17.5351 16.4608 17.1871L16.6748 17.0491L39.5998 3.81508ZM40.4928 3.96808C40.3308 3.96808 40.1598 4.00808 39.9858 4.08608L39.8088 4.17608L16.8858 17.4121C16.3608 17.7151 15.8928 18.2721 15.5568 18.9191C15.2198 19.5681 15.0098 20.3181 15.0098 21.0161V37.7801C15.0098 38.4011 15.1808 38.9101 15.5188 39.1561L15.5888 39.2011C15.8548 39.3561 16.1888 39.3331 16.5288 39.1731L16.6768 39.0971L39.6018 25.8601C40.1268 25.5561 40.5948 24.9991 40.9318 24.3521C41.2678 23.7051 41.4778 22.9571 41.4778 22.2601V5.49208C41.4778 4.82708 41.2708 4.27508 40.8778 4.06108H40.8788C40.7614 3.99814 40.63 3.96613 40.4968 3.96808H40.4928Z" fill="#373A3E" stroke="#373A3E" stroke-width="0.209"/>
<path d="M41.5801 7.77603C41.6217 7.75157 41.6704 7.74219 41.7182 7.74948C41.7659 7.75676 41.8096 7.78026 41.8421 7.81603L41.8671 7.85103C41.8913 7.89286 41.9003 7.94177 41.8927 7.9895C41.885 8.03723 41.8611 8.08086 41.8251 8.11303L41.7901 8.13703L14.9071 23.66H14.9061C14.8612 23.6833 14.8095 23.6896 14.7604 23.6778C14.7113 23.666 14.6681 23.6369 14.6387 23.5958C14.6093 23.5548 14.5957 23.5045 14.6003 23.4542C14.605 23.4039 14.6276 23.357 14.6641 23.322L14.6981 23.297L41.5791 7.77503L41.5801 7.77603ZM41.5801 11.51C41.6219 11.4858 41.6708 11.4768 41.7185 11.4844C41.7663 11.4921 41.8099 11.5159 41.8421 11.552L41.8671 11.586C41.8913 11.6279 41.9003 11.6768 41.8927 11.7245C41.885 11.7722 41.8611 11.8159 41.8251 11.848L41.7901 11.872L14.9071 27.392H14.9061C14.8747 27.411 14.8387 27.4211 14.8021 27.421C14.76 27.4203 14.7192 27.407 14.6848 27.3828C14.6505 27.3586 14.6241 27.3246 14.6093 27.2853C14.5944 27.246 14.5917 27.2031 14.6015 27.1623C14.6112 27.1214 14.633 27.0844 14.6641 27.056L14.6981 27.03L41.5801 11.51ZM22.8161 26.786C23.1221 26.608 23.4161 26.576 23.6651 26.675L23.7681 26.725C24.0751 26.903 24.2671 27.292 24.2681 27.825V29.439C24.2671 29.893 24.1311 30.382 23.9051 30.809C23.7071 31.184 23.4431 31.505 23.1511 31.712L23.0251 31.794L18.9181 34.165C18.7503 34.2677 18.5586 34.3246 18.3621 34.33C18.2582 34.3308 18.1553 34.3111 18.0591 34.272L17.9651 34.226C17.6611 34.051 17.4681 33.659 17.4681 33.127V31.511L17.4741 31.338C17.5041 30.933 17.6331 30.512 17.8301 30.138C18.0281 29.765 18.2921 29.446 18.5831 29.24L18.7081 29.16L22.8161 26.786ZM23.3741 27.04C23.3059 27.0417 23.2385 27.0552 23.1751 27.08L23.0281 27.148L18.9201 29.521C18.6311 29.689 18.3751 30.001 18.1901 30.358C18.0015 30.7138 17.8982 31.1085 17.8881 31.511V33.127C17.8881 33.295 17.9111 33.448 17.9571 33.573C17.987 33.6629 18.0377 33.7444 18.1051 33.811L18.1761 33.863C18.2703 33.913 18.38 33.9255 18.4831 33.898C18.5269 33.8876 18.5698 33.8732 18.6111 33.855L18.7111 33.805L22.8181 31.434C23.1081 31.266 23.3651 30.952 23.5491 30.594C23.7341 30.236 23.8521 29.822 23.8521 29.44V27.828C23.8521 27.66 23.8291 27.506 23.7821 27.38C23.745 27.2605 23.6671 27.1579 23.5621 27.09C23.5355 27.0744 23.5079 27.0626 23.4781 27.055V27.04H23.3741Z" fill="#373A3E" stroke="#373A3E" stroke-width="0.209"/>
<path d="M37.55 2.62981C38.037 2.34881 38.503 2.29381 38.893 2.44681L39.055 2.52481L41.106 3.70981C41.193 3.75981 41.231 3.86381 41.2 3.95681L41.183 3.99681C41.1591 4.03842 41.1216 4.07044 41.0767 4.0874C41.0318 4.10436 40.9824 4.10522 40.937 4.08981L40.898 4.07181L38.847 2.88781C38.582 2.73281 38.248 2.75681 37.907 2.91581L37.76 2.99181L14.835 16.2298C14.318 16.5278 13.85 17.0898 13.512 17.7398C13.173 18.3908 12.959 19.1428 12.959 19.8298V36.5968C12.959 37.2168 13.129 37.7268 13.468 37.9708L13.538 38.0158L15.588 39.1998C15.6271 39.2233 15.6575 39.2588 15.6746 39.301C15.6917 39.3433 15.6946 39.3899 15.6828 39.434C15.6711 39.478 15.6453 39.517 15.6095 39.5451C15.5736 39.5732 15.5296 39.5889 15.484 39.5898C15.4476 39.589 15.4119 39.5794 15.38 39.5618L13.331 38.3778C12.841 38.0968 12.541 37.4608 12.541 36.5968V19.8288C12.541 19.0588 12.77 18.2348 13.148 17.5188C13.478 16.8908 13.92 16.3528 14.412 16.0048L14.626 15.8668L37.55 2.62981Z" fill="#373A3E" stroke="#373A3E" stroke-width="0.209"/>
</svg>
