<svg width="45" height="40" viewBox="0 0 45 40" fill="none" xmlns="http://www.w3.org/2000/svg">
<path d="M7.58016 27.5665C7.48616 29.9515 7.43516 32.4865 7.41016 35.0435C7.59416 35.0615 7.78516 35.0865 7.97116 35.1215C8.62416 35.2385 9.29116 35.4455 9.95416 35.7445C11.6812 36.5125 13.4382 37.8645 15.0822 39.6565C15.2022 36.6695 15.2692 32.5665 15.0552 28.4955C14.7372 21.9015 13.6952 15.3925 11.0192 13.8635C10.6672 13.6635 10.3402 13.6565 10.0532 13.8155C9.16316 14.3255 8.56716 16.4505 8.16916 19.5185C7.87716 21.7775 7.69316 24.5515 7.57816 27.5665H7.58016Z" fill="#E9B22A"/>
<path d="M19.1316 8.68474L10.0566 13.8127C10.3466 13.6527 10.6706 13.6607 11.0226 13.8617C13.6996 15.3907 14.7396 21.8997 15.0586 28.4937H15.0636L25.7646 22.4517L25.5116 21.1147L28.9296 19.1787L29.1846 20.5147L37.8846 15.5887H37.8896C37.5746 8.90874 36.5706 2.36974 33.9706 0.885744C33.6126 0.689744 33.2926 0.678744 32.9956 0.836744L19.1306 8.68174L19.1316 8.68474Z" fill="#983900"/>
<path d="M15.0636 28.4936H15.0586C15.2726 32.5636 15.2066 36.6696 15.0866 39.6546L37.9156 26.7476C38.0216 23.7046 38.0786 19.6206 37.8926 15.5906H37.8876L29.1876 20.5176L29.2656 20.9476C29.3756 21.4776 29.2926 22.0466 28.9946 22.4996C28.8649 22.702 28.693 22.8739 28.4906 23.0036L26.7766 23.9696C26.3076 24.2406 25.9306 23.9466 25.9356 23.3206L25.7656 22.4506L15.0636 28.4936ZM17.9596 6.89962C17.9596 7.11562 18.0346 7.26262 18.1546 7.33362L19.1316 7.89962H19.1366C19.2586 7.98762 19.4376 7.98462 19.6376 7.86962C20.0076 7.65362 20.3116 7.13662 20.3116 6.70362C20.3116 6.01862 20.7926 5.17862 21.3886 4.83362L24.9006 2.80862C24.9256 2.79762 24.9486 2.78162 24.9706 2.76962C25.5326 2.48662 25.9806 2.77462 25.9806 3.43462C25.9806 3.64562 26.0526 3.79562 26.1746 3.86662C26.2966 3.93862 26.4616 3.92862 26.6506 3.82062C27.0206 3.60662 27.3206 3.08462 27.3206 2.65762C27.3206 1.88462 27.0486 1.34362 26.6106 1.09062L25.6046 0.507623C25.1656 0.254623 24.5606 0.291623 23.8916 0.677623L20.3796 2.70462C19.0436 3.47462 17.9576 5.35662 17.9576 6.89962H17.9596Z" fill="#663D00"/>
<path d="M24.9688 2.76969V2.85169C24.9688 3.06569 25.0427 3.21469 25.1647 3.28869L26.1717 3.86869C26.0497 3.79669 25.9788 3.64769 25.9788 3.43569C25.9788 2.77569 25.5297 2.48869 24.9688 2.77169V2.76969Z" fill="white"/>
<path d="M25.5117 21.1157L25.9347 23.3207C25.9307 23.9467 26.3047 24.2407 26.7767 23.9697L28.4897 23.0037C28.6717 22.8957 28.8507 22.7117 28.9937 22.4997C29.2937 22.0447 29.3757 21.4787 29.2657 20.9477L28.9317 19.1807L25.5137 21.1177L25.5117 21.1157Z" fill="#DAE0E5"/>
<path d="M11.1357 13.6604C10.6717 13.3964 10.2977 13.4504 10.0437 13.5614L9.94269 13.6114C9.50969 13.8564 9.12269 14.4274 8.78569 15.4034C8.49269 16.2534 8.24369 17.3914 8.03169 18.8454L7.94469 19.4884C7.70769 21.3314 7.52769 23.5824 7.40069 26.3424L7.34969 27.5574C7.27912 29.3587 7.23078 31.1608 7.20469 32.9634L7.17969 35.0414C7.17969 35.1454 7.24869 35.2344 7.34369 35.2634L7.38669 35.2724C7.48369 35.2824 7.57769 35.2944 7.66869 35.3064L7.93169 35.3474C8.41869 35.4354 8.90469 35.5714 9.38469 35.7544L9.86269 35.9534C11.4337 36.6534 13.0667 37.8694 14.6087 39.4824L14.9157 39.8094C14.9467 39.843 14.987 39.8668 15.0314 39.8779C15.0758 39.8889 15.1225 39.8866 15.1657 39.8714C15.1971 39.8595 15.2256 39.841 15.2491 39.8169C15.2726 39.7929 15.2905 39.7641 15.3017 39.7324L15.3147 39.6654L15.3477 38.7354C15.4147 36.6914 15.4697 33.5604 15.3577 30.1854L15.2857 28.4814C15.0717 24.2114 14.6107 20.8304 13.9107 18.3514C13.2097 15.8654 12.2747 14.3114 11.1357 13.6604ZM10.5277 13.9344C10.6067 13.9414 10.6927 13.9604 10.7877 14.0014L10.9077 14.0614H10.9087C11.4617 14.3774 11.9547 14.9324 12.3887 15.7064C12.8247 16.4804 13.2057 17.4784 13.5317 18.6914C14.1037 20.8134 14.5097 23.6014 14.7397 27.0064L14.8277 28.5034C15.0307 32.5514 14.9637 36.4614 14.8857 38.8274L14.8767 39.0934L14.6897 38.9034C13.2697 37.4654 11.7817 36.3594 10.3397 35.6634L10.0507 35.5314C9.47979 35.273 8.88312 35.0759 8.27069 34.9434L8.01469 34.8934H8.01369C7.92333 34.8768 7.83265 34.8622 7.74169 34.8494L7.64169 34.8364L7.64369 34.7344C7.66369 32.6824 7.70069 30.8504 7.75369 29.1854L7.80969 27.5744C7.91969 24.6804 8.08269 22.3084 8.30169 20.3574L8.39969 19.5474C8.65869 17.5434 8.96369 16.2414 9.26869 15.4024C9.53369 14.6724 9.80469 14.2784 10.0577 14.0844L10.1647 14.0124H10.1657C10.2588 13.9578 10.3647 13.9288 10.4727 13.9284H10.5207L10.5277 13.9344Z" fill="#373A3E" stroke="#373A3E" stroke-width="0.23"/>
<path d="M34.0869 0.687632C33.7059 0.479632 33.3539 0.445632 33.0269 0.571632L32.8879 0.634632L9.9419 13.6116C9.89574 13.6375 9.85989 13.6784 9.8404 13.7276C9.82091 13.7768 9.81897 13.8312 9.8349 13.8816L9.8539 13.9236C9.9169 14.0336 10.0569 14.0736 10.1679 14.0116H10.1659L33.1099 1.03663L33.1119 1.03463L33.2399 0.980632C33.2951 0.964372 33.3523 0.955956 33.4099 0.955632C33.5218 0.956072 33.6325 0.97956 33.7349 1.02463L33.8609 1.08563L33.8629 1.08663C34.4029 1.39663 34.8819 1.94763 35.3039 2.71963C35.7269 3.49263 36.0979 4.49463 36.4139 5.71263C37.0459 8.14963 37.4659 11.4686 37.6599 15.5986C37.8499 19.6736 37.7839 23.7676 37.6899 26.5446L37.6879 26.6096L37.6309 26.6406L14.9709 39.4526C14.9245 39.4785 14.8885 39.5196 14.869 39.569C14.8495 39.6184 14.8477 39.6731 14.8639 39.7236L14.8839 39.7656C14.9269 39.8406 15.0029 39.8816 15.0839 39.8816H15.1059C15.1179 39.8816 15.1299 39.8796 15.1419 39.8766L15.1999 39.8546L38.0269 26.9486C38.0778 26.9188 38.1156 26.871 38.1329 26.8146L38.1429 26.7566C38.2279 24.3166 38.2959 20.7946 38.1809 17.1466L38.1209 15.5806C37.9199 11.2726 37.4749 7.86563 36.7949 5.37263C36.1129 2.87563 35.2019 1.32463 34.0889 0.686632L34.0869 0.687632Z" fill="#373A3E" stroke="#373A3E" stroke-width="0.23"/>
<path d="M38.0868 15.4757C38.0561 15.4235 38.0061 15.3853 37.9476 15.3694C37.8891 15.3536 37.8267 15.3612 37.7738 15.3907L29.0738 20.3147C29.0207 20.3444 28.9816 20.3949 28.9649 20.4534C28.9482 20.5118 28.9554 20.5745 28.9848 20.6277C29.005 20.6635 29.0343 20.6932 29.0698 20.7138C29.1054 20.7343 29.1457 20.745 29.1868 20.7447H29.2008C29.2346 20.7431 29.2675 20.7335 29.2968 20.7167H29.2988L37.9988 15.7897C38.0516 15.7595 38.0903 15.7097 38.1066 15.6511C38.1229 15.5925 38.1154 15.5298 38.0858 15.4767L38.0868 15.4757ZM25.6958 22.2337L25.6538 22.2517L14.9528 28.2937C14.9062 28.3194 14.87 28.3605 14.8503 28.4099C14.8306 28.4593 14.8287 28.514 14.8448 28.5647L14.8648 28.6067C14.8848 28.642 14.9139 28.6713 14.9491 28.6915C14.9843 28.7117 15.0242 28.7222 15.0648 28.7217C15.084 28.7221 15.1031 28.7201 15.1218 28.7157L15.1788 28.6937L25.8788 22.6527C25.9248 22.6267 25.9604 22.5857 25.9797 22.5365C25.999 22.4874 26.0008 22.4331 25.9848 22.3827L25.9658 22.3397C25.9398 22.2937 25.8988 22.2581 25.8496 22.2388C25.8004 22.2195 25.7461 22.2177 25.6958 22.2337Z" fill="#373A3E" stroke="#373A3E" stroke-width="0.23"/>
<path d="M28.8672 18.9631L28.8172 18.9841V18.9851L25.3992 20.9221V20.9201C25.3682 20.9378 25.3418 20.9625 25.322 20.9922C25.3022 21.0219 25.2896 21.0557 25.2852 21.0911L25.2872 21.1631L25.7042 23.3381L25.7062 23.3481V23.3591C25.7102 23.7211 25.8282 23.9971 26.0222 24.1571L26.1092 24.2171C26.1902 24.2641 26.2792 24.2921 26.3712 24.3011H26.4382C26.5452 24.3011 26.6582 24.2771 26.7722 24.2281L26.8892 24.1701L28.5992 23.2051H28.6012C28.8102 23.0791 29.0152 22.8771 29.1812 22.6301H29.1832C29.4632 22.2031 29.5832 21.6681 29.5232 21.1321L29.4872 20.9021V20.9001L29.1552 19.1401C29.1454 19.086 29.1162 19.0373 29.0732 19.0031L29.0272 18.9751C28.9769 18.9523 28.9202 18.948 28.8672 18.9631ZM28.7932 19.6981L29.0362 20.9881C29.1262 21.4221 29.0732 21.8621 28.8862 22.2241L28.7992 22.3741L28.7982 22.3761C28.7072 22.5131 28.5962 22.6361 28.4822 22.7271L28.3692 22.8081L28.3662 22.8091L26.6602 23.7721C26.6117 23.8012 26.5591 23.8238 26.5042 23.8371C26.4634 23.847 26.4209 23.847 26.3802 23.8371L26.3382 23.8201L26.3342 23.8181C26.2706 23.7722 26.2247 23.7058 26.2042 23.6301C26.1698 23.5243 26.1549 23.4132 26.1602 23.3021V23.2921H26.1582L26.1562 23.2811L25.7792 21.3191L25.7642 21.2381L25.8342 21.1971L28.6182 19.6221L28.6232 19.6191L28.6282 19.6171L28.7652 19.5481L28.7932 19.6981ZM26.1432 3.62012C26.0822 3.62012 26.0237 3.64435 25.9805 3.68748C25.9374 3.73062 25.9132 3.78912 25.9132 3.85012V5.84612C25.9132 5.90712 25.9374 5.96562 25.9805 6.00875C26.0237 6.05189 26.0822 6.07612 26.1432 6.07612C26.2042 6.07612 26.2627 6.05189 26.3058 6.00875C26.3489 5.96562 26.3732 5.90712 26.3732 5.84612V3.85012C26.3732 3.78912 26.3489 3.73062 26.3058 3.68748C26.2627 3.64435 26.2042 3.62012 26.1432 3.62012Z" fill="#373A3E" stroke="#373A3E" stroke-width="0.23"/>
<path d="M24.9683 2.54205C24.9073 2.54205 24.8488 2.56628 24.8056 2.60941C24.7625 2.65255 24.7383 2.71105 24.7383 2.77205V2.85405C24.7383 3.15105 24.8603 3.37405 25.0493 3.48805L26.0613 4.07005L26.1163 4.09405L26.1393 4.09605H26.1733C26.2533 4.09605 26.3293 4.05605 26.3733 3.98205C26.3994 3.9357 26.4087 3.8818 26.3998 3.82937C26.3909 3.77694 26.3642 3.72916 26.3243 3.69405L26.2863 3.66705L25.2813 3.09005L25.2513 3.07205L25.2363 3.04205V3.04005L25.2353 3.03905V3.03705L25.2333 3.03305L25.2283 3.02105C25.2102 2.96689 25.2011 2.91014 25.2013 2.85305V2.77005C25.2012 2.73963 25.195 2.70953 25.1832 2.68149C25.1714 2.65345 25.1542 2.62801 25.1326 2.60664C25.1109 2.58527 25.0853 2.56839 25.0571 2.55696C25.0289 2.54553 24.9987 2.53978 24.9683 2.54005V2.54205Z" fill="#373A3E" stroke="#373A3E" stroke-width="0.23"/>
<path d="M24.0075 0.883137C24.5235 0.583137 25.0245 0.493137 25.4145 0.673137L25.4915 0.712137L26.4965 1.29414C26.8935 1.52414 27.0895 2.02814 27.0895 2.66114C27.0895 2.83914 27.0205 3.03814 26.9225 3.20914C26.8507 3.33692 26.7573 3.45128 26.6465 3.54714L26.5355 3.62614C26.4982 3.6473 26.4576 3.66407 26.4165 3.67614C26.4018 3.68068 26.3867 3.68402 26.3715 3.68614C26.3615 3.68614 26.3395 3.68914 26.3165 3.68414L26.2295 3.66214V3.59014L26.2215 3.56414C26.2128 3.52306 26.2087 3.48112 26.2095 3.43914C26.2095 3.07114 26.0905 2.78914 25.8865 2.61714L25.7945 2.55114C25.669 2.47426 25.5246 2.43407 25.3775 2.43514H25.3375C25.1726 2.44459 25.0116 2.48925 24.8655 2.56614L24.8575 2.57014L24.8235 2.59014L24.8185 2.59314L24.7995 2.60214C24.7975 2.60214 24.7965 2.60414 24.7945 2.60514L24.7825 2.61214L21.2705 4.63914C20.9405 4.82914 20.6425 5.15214 20.4255 5.52914C20.2095 5.90514 20.0795 6.32614 20.0795 6.70814C20.0795 6.88814 20.0115 7.08514 19.9135 7.25514C19.8404 7.38344 19.7457 7.49813 19.6335 7.59414L19.5215 7.67414C19.4851 7.69611 19.4451 7.71358 19.4045 7.72614C19.3894 7.73004 19.374 7.73272 19.3585 7.73414C19.3485 7.73614 19.3265 7.73814 19.3035 7.73214L19.2835 7.72814L19.2655 7.71514C19.2527 7.70469 19.2385 7.69595 19.2235 7.68914L19.2135 7.68714L19.2055 7.68214L18.2695 7.14114L18.2395 7.12314L18.2235 7.09314V7.09014L18.2205 7.08514C18.2134 7.06906 18.2081 7.0523 18.2045 7.03514C18.1937 6.99264 18.1884 6.94897 18.1885 6.90514C18.1885 6.17514 18.4555 5.35714 18.8725 4.63514C19.2365 4.00314 19.7225 3.43514 20.2625 3.05914L20.4955 2.91014L24.0075 0.883137ZM26.2325 3.60014L26.2345 3.60614V3.60714L26.2325 3.60014ZM19.3605 8.19614L19.4565 8.18014C19.5607 8.16075 19.6609 8.12353 19.7525 8.07014C20.1995 7.81214 20.5405 7.22014 20.5405 6.70714C20.5405 6.40414 20.6525 6.06214 20.8245 5.76314C20.9745 5.50014 21.1775 5.26014 21.4045 5.10014L21.5045 5.03614L25.0555 2.98714L25.0605 2.98414L25.1955 2.92714C25.2364 2.91303 25.2786 2.90298 25.3215 2.89714C25.3818 2.88775 25.4435 2.8929 25.5015 2.91214L25.5555 2.93814C25.6281 2.988 25.6816 3.06096 25.7075 3.14514C25.7383 3.2383 25.7532 3.33601 25.7515 3.43414C25.7515 3.69514 25.8445 3.89914 25.9955 4.02014L26.0625 4.06514C26.2295 4.16214 26.4455 4.17014 26.6695 4.06914L26.7665 4.01914L26.8465 3.96914C27.0305 3.84214 27.1985 3.65314 27.3245 3.43514C27.4658 3.1992 27.5442 2.93101 27.5525 2.65614C27.5525 1.86114 27.2865 1.27014 26.8245 0.951137L26.7295 0.891137L25.7225 0.309137C25.2645 0.0451367 24.6825 0.0471368 24.0525 0.337137L23.7795 0.479137L20.2665 2.50614C19.5615 2.91314 18.9265 3.60014 18.4665 4.39514C18.0075 5.18914 17.7305 6.08314 17.7305 6.89914C17.7305 7.19814 17.8505 7.42114 18.0385 7.53114L18.8435 7.99914L18.9005 8.03214V9.89614C18.9005 9.95714 18.9247 10.0156 18.9678 10.0588C19.011 10.1019 19.0695 10.1261 19.1305 10.1261C19.1915 10.1261 19.25 10.1019 19.2931 10.0588C19.3362 10.0156 19.3605 9.95714 19.3605 9.89614V8.19614Z" fill="#373A3E"/>
<path d="M24.8655 2.56614C25.0116 2.48925 25.1726 2.44459 25.3375 2.43514H25.3775C25.5246 2.43407 25.669 2.47426 25.7945 2.55114L25.8865 2.61714C26.0905 2.78914 26.2095 3.07114 26.2095 3.43914C26.2087 3.48112 26.2128 3.52306 26.2215 3.56414L26.2295 3.59014V3.66214L26.3165 3.68414C26.3395 3.68914 26.3615 3.68614 26.3715 3.68614C26.3867 3.68402 26.4018 3.68068 26.4165 3.67614C26.4576 3.66407 26.4982 3.6473 26.5355 3.62614L26.6465 3.54714C26.7573 3.45128 26.8507 3.33692 26.9225 3.20914C27.0205 3.03814 27.0895 2.83914 27.0895 2.66114C27.0895 2.02814 26.8935 1.52414 26.4965 1.29414L25.4915 0.712137L25.4145 0.673137C25.0245 0.493137 24.5235 0.583137 24.0075 0.883137L20.4955 2.91014L20.2625 3.05914C19.7225 3.43514 19.2365 4.00314 18.8725 4.63514C18.4555 5.35714 18.1885 6.17514 18.1885 6.90514C18.1884 6.94897 18.1937 6.99264 18.2045 7.03514C18.2081 7.0523 18.2134 7.06906 18.2205 7.08514L18.2235 7.09014V7.09314L18.2395 7.12314L18.2695 7.14114L19.2055 7.68214L19.2135 7.68714L19.2235 7.68914C19.2385 7.69595 19.2527 7.70469 19.2655 7.71514L19.2835 7.72814L19.3035 7.73214C19.3265 7.73814 19.3485 7.73614 19.3585 7.73414C19.374 7.73272 19.3894 7.73004 19.4045 7.72614C19.4451 7.71358 19.4851 7.69611 19.5215 7.67414L19.6335 7.59414C19.7457 7.49813 19.8404 7.38344 19.9135 7.25514C20.0115 7.08514 20.0795 6.88814 20.0795 6.70814C20.0795 6.32614 20.2095 5.90514 20.4255 5.52914C20.6425 5.15214 20.9405 4.82914 21.2705 4.63914L24.7825 2.61214L24.7945 2.60514C24.7965 2.60414 24.7975 2.60214 24.7995 2.60214L24.8185 2.59314L24.8235 2.59014L24.8575 2.57014L24.8655 2.56614ZM24.8655 2.56614L24.8125 2.46414M26.2325 3.60014L26.2345 3.60614V3.60714L26.2325 3.60014ZM19.3605 8.19614L19.4565 8.18014C19.5607 8.16075 19.6609 8.12353 19.7525 8.07014C20.1995 7.81214 20.5405 7.22014 20.5405 6.70714C20.5405 6.40414 20.6525 6.06214 20.8245 5.76314C20.9745 5.50014 21.1775 5.26014 21.4045 5.10014L21.5045 5.03614L25.0555 2.98714L25.0605 2.98414L25.1955 2.92714C25.2364 2.91303 25.2786 2.90298 25.3215 2.89714C25.3818 2.88775 25.4435 2.8929 25.5015 2.91214L25.5555 2.93814C25.6281 2.988 25.6816 3.06096 25.7075 3.14514C25.7383 3.2383 25.7532 3.33601 25.7515 3.43414C25.7515 3.69514 25.8445 3.89914 25.9955 4.02014L26.0625 4.06514C26.2295 4.16214 26.4455 4.17014 26.6695 4.06914L26.7665 4.01914L26.8465 3.96914C27.0305 3.84214 27.1985 3.65314 27.3245 3.43514C27.4658 3.1992 27.5442 2.93101 27.5525 2.65614C27.5525 1.86114 27.2865 1.27014 26.8245 0.951137L26.7295 0.891137L25.7225 0.309137C25.2645 0.0451367 24.6825 0.0471368 24.0525 0.337137L23.7795 0.479137L20.2665 2.50614C19.5615 2.91314 18.9265 3.60014 18.4665 4.39514C18.0075 5.18914 17.7305 6.08314 17.7305 6.89914C17.7305 7.19814 17.8505 7.42114 18.0385 7.53114L18.8435 7.99914L18.9005 8.03214V9.89614C18.9005 9.95714 18.9247 10.0156 18.9678 10.0588C19.011 10.1019 19.0695 10.1261 19.1305 10.1261C19.1915 10.1261 19.25 10.1019 19.2931 10.0588C19.3362 10.0156 19.3605 9.95714 19.3605 9.89614V8.19614Z" stroke="#373A3E" stroke-width="0.23"/>
<path d="M44.6751 23.0674V25.9134C44.6751 26.4294 44.3351 26.9444 43.6531 27.3374C42.2931 28.1244 40.0861 28.1244 38.7251 27.3374C38.0441 26.9444 37.7051 26.4294 37.7051 25.9134V23.0674C37.7051 23.5804 38.0451 24.0964 38.7251 24.4904C40.0861 25.2754 42.2921 25.2754 43.6531 24.4904C44.3341 24.0984 44.6751 23.5824 44.6751 23.0674Z" fill="#FFD100"/>
<path d="M44.6751 20.2178V23.0668C44.6751 23.5798 44.3351 24.0948 43.6531 24.4898C42.2931 25.2748 40.0861 25.2748 38.7251 24.4898C38.0441 24.0978 37.7051 23.5818 37.7051 23.0668V20.2168C37.7051 20.7348 38.0451 21.2488 38.7251 21.6408C40.0861 22.4258 42.2921 22.4258 43.6531 21.6408C44.3341 21.2488 44.6751 20.7328 44.6751 20.2178Z" fill="#FFD100"/>
<path d="M44.6751 17.3691V20.2181C44.6751 20.7351 44.3351 21.2481 43.6531 21.6411C42.2931 22.4261 40.0861 22.4261 38.7251 21.6411C38.0441 21.2491 37.7051 20.7331 37.7051 20.2181V17.3691C37.7051 17.8841 38.0451 18.3981 38.7251 18.7921C40.0861 19.5771 42.2921 19.5771 43.6531 18.7921C44.3341 18.4001 44.6751 17.8841 44.6751 17.3691Z" fill="#FFD100"/>
<path d="M44.6751 15.4555V17.3685C44.6751 17.8835 44.3351 18.3975 43.6531 18.7915C42.2931 19.5765 40.0861 19.5765 38.7251 18.7915C38.0441 18.3995 37.7051 17.8835 37.7051 17.3685V14.5605C37.7051 15.0755 38.0451 15.5895 38.7251 15.9835C40.0861 16.7685 42.2921 16.7685 43.6531 15.9835C44.3341 15.5915 44.6751 15.0755 44.6751 14.5605V15.4555Z" fill="#FFD100"/>
<path d="M43.6531 13.1395C44.3341 13.5315 44.6751 14.0475 44.6751 14.5625C44.6751 15.0785 44.3351 15.5915 43.6531 15.9865C42.2931 16.7715 40.0861 16.7715 38.7251 15.9865C38.0441 15.5935 37.7051 15.0785 37.7051 14.5625C37.7051 14.0475 38.0451 13.5335 38.7251 13.1395C40.0861 12.3545 42.2921 12.3545 43.6531 13.1395Z" fill="#F9BCA0"/>
<path d="M41.1873 12.3301C42.0013 12.3301 42.8123 12.4901 43.4823 12.8071L43.7603 12.9531C44.5033 13.3811 44.8903 13.9571 44.8903 14.5631C44.8903 15.0931 44.5943 15.5991 44.0223 16.0051L43.7603 16.1731C43.0453 16.5871 42.1203 16.7941 41.1883 16.7951C40.3753 16.7951 39.5653 16.6351 38.8953 16.3191L38.6173 16.1731C37.8743 15.7431 37.4863 15.1691 37.4863 14.5631C37.4863 13.9571 37.8743 13.3831 38.6153 12.9531L38.6143 12.9521C39.3303 12.5381 40.2573 12.3301 41.1873 12.3301ZM41.1893 12.7621C40.4473 12.7621 39.7023 12.9051 39.0873 13.1941L38.8323 13.3271C38.2633 13.6571 37.9193 14.0911 37.9193 14.5631C37.9193 14.9771 38.1853 15.3611 38.6313 15.6711L38.8343 15.7991C39.4903 16.1771 40.3443 16.3631 41.1913 16.3631C41.9333 16.3631 42.6793 16.2211 43.2923 15.9331L43.5463 15.7991C44.1143 15.4701 44.4603 15.0361 44.4603 14.5631C44.4603 14.1491 44.1953 13.7661 43.7483 13.4561L43.5463 13.3261L43.2923 13.1941C42.6793 12.9041 41.9323 12.7621 41.1893 12.7621ZM44.6743 17.1531C44.7943 17.1531 44.8903 17.2491 44.8903 17.3691C44.8903 17.8991 44.5943 18.4051 44.0223 18.8111L43.7603 18.9791C43.0453 19.3921 42.1203 19.6001 41.1883 19.6001C40.3753 19.6001 39.5653 19.4411 38.8953 19.1251L38.6173 18.9791C37.8743 18.5491 37.4863 17.9751 37.4863 17.3691C37.4901 17.3145 37.5144 17.2633 37.5544 17.2259C37.5944 17.1886 37.6471 17.1678 37.7018 17.1678C37.7566 17.1678 37.8093 17.1886 37.8493 17.2259C37.8893 17.2633 37.9136 17.3145 37.9173 17.3691C37.9173 17.7821 38.1833 18.1671 38.6293 18.4771L38.8323 18.6051C39.4883 18.9821 40.3423 19.1691 41.1893 19.1691C41.9313 19.1691 42.6763 19.0261 43.2893 18.7381L43.5443 18.6051C44.1123 18.2751 44.4593 17.8411 44.4593 17.3691C44.4593 17.2491 44.5553 17.1531 44.6743 17.1531ZM44.6763 20.0021C44.7963 20.0021 44.8923 20.0981 44.8923 20.2181C44.8923 20.7501 44.5963 21.2561 44.0243 21.6611L43.7623 21.8281C43.0473 22.2411 42.1213 22.4521 41.1913 22.4521H41.1893C40.3753 22.4521 39.5663 22.2911 38.8953 21.9731L38.6153 21.8281C37.8733 21.4001 37.4883 20.8241 37.4883 20.2181C37.492 20.1635 37.5164 20.1123 37.5564 20.0749C37.5964 20.0376 37.6491 20.0168 37.7038 20.0168C37.7586 20.0168 37.8113 20.0376 37.8513 20.0749C37.8913 20.1123 37.9156 20.1635 37.9193 20.2181C37.9193 20.6331 38.1853 21.0181 38.6303 21.3271L38.8313 21.4541C39.4873 21.8321 40.3413 22.0181 41.1893 22.0181C41.9313 22.0181 42.6773 21.8761 43.2913 21.5871L43.5463 21.4541C44.1153 21.1271 44.4603 20.6901 44.4603 20.2181C44.4603 20.0981 44.5573 20.0021 44.6763 20.0021ZM44.6743 22.8501C44.7943 22.8501 44.8903 22.9471 44.8903 23.0671C44.8903 23.5971 44.5943 24.1031 44.0223 24.5091L43.7603 24.6771C43.0453 25.0901 42.1203 25.2971 41.1883 25.2981C40.3753 25.2981 39.5653 25.1391 38.8953 24.8221L38.6173 24.6771C37.8743 24.2471 37.4863 23.6731 37.4863 23.0671C37.4901 23.0125 37.5144 22.9613 37.5544 22.9239C37.5944 22.8866 37.6471 22.8658 37.7018 22.8658C37.7566 22.8658 37.8093 22.8866 37.8493 22.9239C37.8893 22.9613 37.9136 23.0125 37.9173 23.0671C37.9173 23.4801 38.1833 23.8651 38.6293 24.1751L38.8323 24.3031C39.4883 24.6801 40.3423 24.8661 41.1893 24.8661C41.9313 24.8661 42.6763 24.7241 43.2893 24.4361L43.5443 24.3031C44.1123 23.9731 44.4593 23.5391 44.4593 23.0671C44.4593 22.9471 44.5553 22.8501 44.6743 22.8501Z" fill="#373A3E" stroke="#373A3E" stroke-width="0.216"/>
<path d="M44.6763 14.3445C44.7963 14.3445 44.8923 14.4405 44.8923 14.5605V25.9125C44.8923 26.4455 44.5963 26.9515 44.0243 27.3565L43.7623 27.5235C43.0473 27.9365 42.1213 28.1475 41.1913 28.1475H41.1893C40.3753 28.1475 39.5663 27.9855 38.8953 27.6685L38.6153 27.5235C37.8733 27.0955 37.4883 26.5215 37.4883 25.9135V14.5595L37.4933 14.5165C37.5036 14.4639 37.5331 14.4171 37.5761 14.3851C37.6192 14.3532 37.6726 14.3385 37.7259 14.3439C37.7792 14.3492 37.8286 14.3743 37.8644 14.4142C37.9001 14.4541 37.9197 14.5059 37.9193 14.5595V25.9115C37.9193 26.3275 38.1833 26.7115 38.6293 27.0215L38.8323 27.1485C39.4873 27.5265 40.3413 27.7125 41.1893 27.7125C41.9313 27.7125 42.6773 27.5705 43.2913 27.2815L43.5463 27.1485C44.1153 26.8205 44.4603 26.3865 44.4603 25.9115V14.5605C44.4603 14.4405 44.5573 14.3445 44.6763 14.3445Z" fill="#373A3E" stroke="#373A3E" stroke-width="0.216"/>
<path d="M41.8421 27.8164V30.6624C41.8421 31.1784 41.5011 31.6934 40.8191 32.0864C39.4591 32.8734 37.2521 32.8734 35.8911 32.0864C35.2101 31.6934 34.8711 31.1784 34.8711 30.6624V27.8164C34.8711 28.3294 35.2121 28.8444 35.8911 29.2394C37.2521 30.0244 39.4581 30.0244 40.8191 29.2394C41.5011 28.8464 41.8421 28.3314 41.8421 27.8164Z" fill="#FFD100"/>
<path d="M41.8421 24.9668V27.8158C41.8421 28.3288 41.5011 28.8438 40.8191 29.2388C39.4591 30.0238 37.2521 30.0238 35.8911 29.2388C35.2101 28.8458 34.8711 28.3308 34.8711 27.8158V24.9658C34.8711 25.4838 35.2121 25.9978 35.8911 26.3898C37.2521 27.1748 39.4581 27.1748 40.8191 26.3898C41.5011 25.9978 41.8421 25.4818 41.8421 24.9668Z" fill="#FFD100"/>
<path d="M41.8421 22.1182V24.9672C41.8421 25.4842 41.5011 25.9972 40.8191 26.3902C39.4591 27.1752 37.2521 27.1752 35.8911 26.3902C35.2101 25.9982 34.8711 25.4822 34.8711 24.9672V22.1172C34.8711 22.6332 35.2121 23.1472 35.8911 23.5412C37.2521 24.3262 39.4581 24.3262 40.8191 23.5412C41.5011 23.1492 41.8421 22.6332 41.8421 22.1182Z" fill="#FFD100"/>
<path d="M41.8421 20.2046V22.1176C41.8421 22.6326 41.5011 23.1466 40.8191 23.5406C39.4591 24.3256 37.2521 24.3256 35.8911 23.5406C35.2101 23.1486 34.8711 22.6326 34.8711 22.1176V19.3096C34.8711 19.8246 35.2121 20.3386 35.8911 20.7326C37.2521 21.5176 39.4581 21.5176 40.8191 20.7326C41.5011 20.3406 41.8421 19.8246 41.8421 19.3096V20.2046Z" fill="#FFD100"/>
<path d="M40.8191 17.8886C41.5011 18.2806 41.8421 18.7966 41.8421 19.3116C41.8421 19.8276 41.5011 20.3406 40.8191 20.7346C39.4591 21.5196 37.2521 21.5196 35.8911 20.7346C35.2101 20.3426 34.8711 19.8276 34.8711 19.3116C34.8711 18.7966 35.2121 18.2826 35.8911 17.8886C37.2521 17.1036 39.4581 17.1036 40.8191 17.8886Z" fill="#F9BCA0"/>
<path d="M38.3523 17.0781C39.1673 17.0781 39.9773 17.2391 40.6473 17.5561L40.9253 17.7011C41.6683 18.1301 42.0553 18.7061 42.0553 19.3111C42.0553 19.8421 41.7593 20.3481 41.1873 20.7541L40.9253 20.9221C40.2103 21.3351 39.2853 21.5431 38.3533 21.5431C37.5403 21.5431 36.7303 21.3841 36.0603 21.0681L35.7823 20.9221C35.0393 20.4921 34.6523 19.9181 34.6523 19.3121C34.6523 18.7061 35.0393 18.1321 35.7803 17.7021L35.7793 17.7011C36.4963 17.2871 37.4223 17.0781 38.3523 17.0781ZM38.3543 17.5111C37.6123 17.5111 36.8673 17.6541 36.2533 17.9431L35.9983 18.0761C35.4303 18.4051 35.0853 18.8391 35.0853 19.3121C35.0853 19.7261 35.3503 20.1101 35.7973 20.4201L35.9993 20.5481C36.6553 20.9251 37.5093 21.1121 38.3563 21.1121C39.0983 21.1121 39.8443 20.9691 40.4583 20.6811L40.7123 20.5481C41.2803 20.2181 41.6263 19.7851 41.6263 19.3121C41.6263 18.8981 41.3613 18.5151 40.9143 18.2041L40.7123 18.0761L40.4583 17.9431C39.8443 17.6531 39.0973 17.5111 38.3543 17.5111ZM41.8393 21.9021C41.9593 21.9021 42.0553 21.9981 42.0553 22.1181C42.0553 22.6481 41.7593 23.1541 41.1873 23.5601L40.9253 23.7281C40.2103 24.1411 39.2853 24.3481 38.3533 24.3491C37.5403 24.3491 36.7303 24.1901 36.0603 23.8731L35.7823 23.7281C35.0393 23.2981 34.6523 22.7241 34.6523 22.1181C34.6575 22.0647 34.6824 22.0151 34.7221 21.979C34.7619 21.9429 34.8137 21.9229 34.8673 21.9229C34.921 21.9229 34.9728 21.9429 35.0126 21.979C35.0523 22.0151 35.0772 22.0647 35.0823 22.1181C35.0823 22.5311 35.3483 22.9161 35.7953 23.2261L35.9973 23.3541C36.6533 23.7311 37.5073 23.9171 38.3543 23.9171C39.0963 23.9171 39.8423 23.7751 40.4543 23.4871L40.7103 23.3541C41.2783 23.0241 41.6243 22.5901 41.6243 22.1181C41.6243 21.9981 41.7193 21.9021 41.8393 21.9021ZM41.8423 24.7501C41.9613 24.7501 42.0573 24.8471 42.0573 24.9661C42.0573 25.4991 41.7613 26.0051 41.1893 26.4101L40.9283 26.5771C40.2123 26.9901 39.2863 27.2011 38.3563 27.2011H38.3543C37.5413 27.2011 36.7313 27.0401 36.0603 26.7221L35.7813 26.5771C35.0393 26.1491 34.6533 25.5731 34.6533 24.9671C34.6533 24.9098 34.6761 24.8549 34.7166 24.8144C34.7571 24.7739 34.8121 24.7511 34.8693 24.7511C34.9266 24.7511 34.9816 24.7739 35.0221 24.8144C35.0626 24.8549 35.0853 24.9098 35.0853 24.9671C35.0853 25.3821 35.3503 25.7671 35.7953 26.0761L35.9973 26.2031C36.6523 26.5811 37.5073 26.7671 38.3543 26.7671C39.0963 26.7671 39.8433 26.6251 40.4573 26.3361L40.7123 26.2031C41.2803 25.8751 41.6263 25.4391 41.6263 24.9671C41.6263 24.8471 41.7223 24.7511 41.8413 24.7511L41.8423 24.7501ZM41.8393 27.6001C41.9593 27.6001 42.0553 27.6961 42.0553 27.8151C42.0553 28.3451 41.7593 28.8511 41.1873 29.2581L40.9253 29.4261C40.2103 29.8391 39.2853 30.0461 38.3533 30.0461C37.5403 30.0461 36.7303 29.8881 36.0603 29.5711L35.7823 29.4261C35.0393 28.9961 34.6523 28.4221 34.6523 27.8161C34.6575 27.7627 34.6824 27.7131 34.7221 27.677C34.7619 27.6409 34.8137 27.6209 34.8673 27.6209C34.921 27.6209 34.9728 27.6409 35.0126 27.677C35.0523 27.7131 35.0772 27.7627 35.0823 27.8161C35.0823 28.2291 35.3483 28.6141 35.7953 28.9241L35.9973 29.0521C36.6533 29.4291 37.5073 29.6151 38.3543 29.6151C39.0963 29.6151 39.8423 29.4731 40.4543 29.1851L40.7103 29.0521C41.2783 28.7221 41.6243 28.2881 41.6243 27.8151C41.6243 27.6961 41.7193 27.6001 41.8393 27.6001Z" fill="#373A3E" stroke="#373A3E" stroke-width="0.216"/>
<path d="M41.8433 19.0938C41.9623 19.0938 42.0583 19.1897 42.0583 19.3097V30.6618C42.0583 31.1948 41.7623 31.7007 41.1903 32.1057L40.9293 32.2727C40.2133 32.6857 39.2873 32.8967 38.3573 32.8967H38.3553C37.5423 32.8967 36.7323 32.7347 36.0613 32.4177L35.7823 32.2727C35.0403 31.8447 34.6543 31.2708 34.6543 30.6628V19.3097L34.6593 19.2668C34.6706 19.215 34.7006 19.1692 34.7435 19.138C34.7864 19.1069 34.8392 19.0926 34.892 19.0979C34.9447 19.1033 34.9936 19.1278 35.0295 19.1668C35.0653 19.2059 35.0855 19.2568 35.0863 19.3097V30.6618C35.0863 31.0778 35.3493 31.4617 35.7963 31.7717L35.9983 31.8988C36.6533 32.2768 37.5083 32.4628 38.3553 32.4628C39.0973 32.4628 39.8443 32.3207 40.4583 32.0307L40.7133 31.8988C41.2813 31.5708 41.6273 31.1368 41.6273 30.6618V19.3097C41.6273 19.1897 41.7243 19.0938 41.8433 19.0938Z" fill="#373A3E" stroke="#373A3E" stroke-width="0.216"/>
</svg>
