<svg width="44" height="40" viewBox="0 0 44 40" fill="none" xmlns="http://www.w3.org/2000/svg">
<path d="M2.30469 24.8252V27.4922L16.1207 35.4682V32.8002L2.30469 24.8252Z" fill="#C8ECD2"/>
<path d="M2.30469 22.2373V24.8253L16.1207 32.8003V30.2123L2.30469 22.2373Z" fill="#C8ECD2"/>
<path d="M2.30469 19.5508V22.2368L16.1207 30.2118V27.5298L2.30469 19.5498V19.5508Z" fill="#C8ECD2"/>
<path d="M2.30469 19.5511L16.1207 27.5291L41.6947 12.7661L27.8767 4.78809L2.30469 19.5531V19.5511ZM18.7027 18.0601C16.8827 17.0121 16.8827 15.3051 18.7027 14.2551C20.5247 13.2051 23.4767 13.2051 25.2967 14.2551C27.1167 15.3031 27.1167 17.0101 25.2967 18.0601C23.4767 19.1141 20.5247 19.1141 18.7027 18.0601Z" fill="#C8ECD2"/>
<path d="M16.1172 32.8001V35.4681L41.6922 20.7071V18.0371L16.1172 32.8001Z" fill="#7CD192"/>
<path d="M16.1172 30.2122V32.8002L41.6922 18.0372V15.4512L16.1172 30.2122Z" fill="#7CD192"/>
<path d="M16.1172 27.5286V30.2116L41.6922 15.4516V12.7656L16.1172 27.5286ZM18.7012 14.2546C16.8812 15.3026 16.8812 17.0096 18.7012 18.0596C20.5232 19.1136 23.4752 19.1136 25.2952 18.0596C27.1152 17.0116 27.1152 15.3046 25.2952 14.2546C23.4752 13.2046 20.5232 13.2046 18.7012 14.2546Z" fill="#7CD192"/>
<path d="M27.9299 7.15715L27.9799 7.17715L30.9029 8.87015C30.9496 8.8972 30.9846 8.94169 30.9985 8.99382C31.0123 9.04596 31.0049 9.10147 30.9779 9.14815C30.9508 9.19483 30.9063 9.22885 30.8542 9.24272C30.8021 9.2566 30.7466 9.2492 30.6999 9.22215L27.9299 7.61915L27.8789 7.58915L27.8289 7.61915L25.0019 9.25315C24.9753 9.26826 24.9454 9.27683 24.9149 9.27815H24.8999C24.859 9.27752 24.8192 9.2646 24.7857 9.24107C24.7522 9.21754 24.7266 9.18449 24.7122 9.14621C24.6977 9.10793 24.6951 9.06619 24.7047 9.02641C24.7143 8.98663 24.7356 8.95065 24.7659 8.92315L24.7989 8.89815L27.7769 7.17815C27.7999 7.16465 27.8253 7.15585 27.8518 7.15224C27.8782 7.14864 27.9041 7.15031 27.9299 7.15715ZM34.1499 10.9711C34.177 10.9249 34.2213 10.8911 34.2732 10.8773C34.325 10.8634 34.3802 10.8706 34.4269 10.8971L37.3499 12.5871C37.3769 12.6028 37.3999 12.6243 37.4173 12.6502C37.4346 12.6761 37.4458 12.7057 37.45 12.7366C37.4541 12.7675 37.4511 12.7989 37.4412 12.8285C37.4313 12.8581 37.4148 12.885 37.3929 12.9071L37.3499 12.9401L34.3719 14.6601C34.3283 14.6831 34.278 14.6895 34.2301 14.6782C34.1821 14.667 34.1399 14.6388 34.1112 14.5988C34.0824 14.5589 34.0691 14.5099 34.0736 14.4609C34.0782 14.4119 34.1003 14.3661 34.1359 14.3321L34.1689 14.3081L36.6899 12.8521L36.8419 12.7641L36.6899 12.6761L34.2239 11.2491L34.1899 11.2261C34.1602 11.1995 34.139 11.1648 34.1289 11.1262C34.1187 11.0876 34.1201 11.0469 34.1329 11.0091L34.1489 10.9711H34.1499ZM9.61188 17.6651C9.65237 17.6417 9.69972 17.6328 9.74597 17.6401C9.79222 17.6474 9.83456 17.6703 9.86588 17.7051L9.88988 17.7381C9.91332 17.7789 9.92205 17.8265 9.91458 17.8729C9.90712 17.9193 9.88392 17.9618 9.84888 17.9931L9.81487 18.0161L7.30888 19.4631L7.15588 19.5501L7.30888 19.6401L9.77487 21.0631C9.81654 21.0883 9.84783 21.1276 9.8631 21.1738C9.87836 21.22 9.8766 21.2701 9.85813 21.3152C9.83966 21.3602 9.80569 21.3972 9.76237 21.4193C9.71904 21.4415 9.66921 21.4475 9.62187 21.4361L9.57187 21.4161L6.64787 19.7271H6.64888C6.61803 19.7092 6.59239 19.6836 6.5745 19.6527C6.55662 19.6218 6.54709 19.5868 6.54688 19.5511C6.54688 19.4791 6.58688 19.4111 6.64888 19.3751L9.61188 17.6641V17.6651ZM18.9839 23.0721C19.0245 23.0488 19.0719 23.0401 19.1182 23.0476C19.1644 23.055 19.2067 23.0782 19.2379 23.1131L19.2629 23.1461C19.2897 23.193 19.2968 23.2485 19.2828 23.3006C19.2687 23.3527 19.2346 23.3972 19.1879 23.4241L16.2229 25.1341C16.1915 25.1521 16.156 25.1618 16.1199 25.1621H16.1069C16.076 25.1601 16.0459 25.1512 16.0189 25.1361L13.0959 23.4481C13.0556 23.4246 13.0236 23.3879 13.0072 23.3441C12.9908 23.3004 12.99 23.2524 13.0049 23.2081L13.0209 23.1701C13.048 23.1236 13.0925 23.0897 13.1446 23.0758C13.1967 23.0619 13.2522 23.0693 13.2989 23.0961L16.0689 24.6961L16.1199 24.7251L16.1699 24.6951L18.9849 23.0721H18.9839ZM22.0009 13.2701C23.1599 13.2701 24.3129 13.5091 25.2209 13.9811L25.3979 14.0791C26.3579 14.6311 26.8649 15.3721 26.8649 16.1561C26.8649 16.8911 26.4209 17.5891 25.5749 18.1281L25.3989 18.2331C24.4669 18.7731 23.2389 19.0441 22.0019 19.0441H21.9589C20.8139 19.0391 19.6759 18.8011 18.7789 18.3321L18.6019 18.2341C17.6429 17.6801 17.1349 16.9401 17.1349 16.1561C17.1349 15.4211 17.5799 14.7241 18.4269 14.1851L18.6019 14.0791C19.5339 13.5421 20.7649 13.2691 22.0009 13.2691V13.2701ZM21.7599 13.6741C20.7599 13.7041 19.7709 13.9221 18.9739 14.3381L18.8039 14.4311C18.0079 14.8901 17.5409 15.4991 17.5409 16.1561C17.5409 16.7321 17.8989 17.2691 18.5209 17.7021L18.8049 17.8821C19.6909 18.3941 20.8489 18.6471 22.0009 18.6471C23.1529 18.6471 24.3099 18.3951 25.1939 17.8821C25.9899 17.4221 26.4569 16.8141 26.4569 16.1541C26.4569 15.5771 26.0999 15.0401 25.4769 14.6071L25.1929 14.4291C24.3069 13.9191 23.1509 13.6661 21.9979 13.6661H21.7519L21.7599 13.6741Z" fill="#373A3E" stroke="#373A3E" stroke-width="0.203"/>
<path d="M27.9295 4.59004L27.9795 4.61004L41.7965 12.586C41.8237 12.6015 41.8469 12.624 41.8643 12.6499C41.8818 12.6758 41.8931 12.7054 41.8972 12.7364C41.9014 12.7674 41.8983 12.7989 41.8883 12.8285C41.8783 12.8581 41.8616 12.885 41.8395 12.907L41.7965 12.94L16.2235 27.703C16.1924 27.7206 16.1573 27.7299 16.1215 27.73H16.1065C16.076 27.7278 16.0463 27.719 16.0195 27.704L2.20452 19.727C2.1736 19.7092 2.14891 19.6835 2.13101 19.6527C2.11311 19.6218 2.10363 19.5867 2.10352 19.551C2.10352 19.479 2.14252 19.411 2.20552 19.374L27.7745 4.61004C27.7974 4.59674 27.8237 4.58813 27.85 4.58469C27.8763 4.58126 27.903 4.58308 27.9285 4.59004H27.9295ZM27.8265 5.05004L2.86352 19.46L2.81352 19.49V19.609L2.86352 19.638L16.0705 27.262L16.1215 27.292L16.1715 27.262L41.1375 12.851L41.2895 12.763L41.1375 12.675L27.9275 5.04804L27.8775 5.01804L27.8275 5.04804L27.8265 5.05004Z" fill="#373A3E" stroke="#373A3E" stroke-width="0.203"/>
<path d="M41.6955 12.5596C41.8085 12.5596 41.8985 12.6506 41.8985 12.7636V20.7046C41.8984 20.7586 41.8768 20.8104 41.8385 20.8486L41.7965 20.8806L16.2235 35.6436C16.1924 35.6611 16.1573 35.6704 16.1215 35.6706C16.0858 35.6704 16.0507 35.6611 16.0195 35.6436L2.20452 27.6656C2.1736 27.6477 2.14891 27.6221 2.13101 27.5912C2.11311 27.5603 2.10363 27.5253 2.10352 27.4896V19.5496C2.10352 19.4957 2.1249 19.4441 2.16297 19.406C2.20104 19.368 2.25268 19.3466 2.30652 19.3466C2.36035 19.3466 2.41199 19.368 2.45006 19.406C2.48813 19.4441 2.50952 19.4957 2.50952 19.5496V27.3726L2.55952 27.4026L16.0715 35.2026L16.1225 35.2326L16.1725 35.2026L41.4425 20.6166L41.4935 20.5866V12.7646C41.4935 12.6516 41.5835 12.5606 41.6965 12.5606L41.6955 12.5596Z" fill="#373A3E" stroke="#373A3E" stroke-width="0.203"/>
<path d="M41.5931 17.8596C41.6341 17.8364 41.6818 17.828 41.7282 17.8359C41.7747 17.8437 41.817 17.8673 41.8481 17.9026L41.8711 17.9346C41.898 17.9814 41.9053 18.0368 41.8915 18.0889C41.8776 18.141 41.8437 18.1855 41.7971 18.2126L16.2231 32.9756C16.192 32.9933 16.1569 33.0026 16.1211 33.0026C16.0854 33.0025 16.0503 32.9932 16.0191 32.9756L2.20411 24.9996C2.1638 24.9761 2.13283 24.9394 2.11644 24.8956C2.10005 24.8519 2.09922 24.8039 2.11411 24.7596L2.13011 24.7226C2.1571 24.6762 2.20133 24.6422 2.25319 24.6282C2.30506 24.6142 2.36037 24.6211 2.40711 24.6476L16.0711 32.5346L16.1221 32.5636L16.1721 32.5336L41.5951 17.8616L41.5941 17.8606L41.5931 17.8596Z" fill="#373A3E" stroke="#373A3E" stroke-width="0.203"/>
<path d="M41.5931 15.2731C41.634 15.2497 41.6816 15.2412 41.7281 15.2488C41.7745 15.2565 41.8169 15.2799 41.8481 15.3151L41.8711 15.3471C41.898 15.3938 41.9053 15.4492 41.8915 15.5013C41.8776 15.5534 41.8437 15.5979 41.7971 15.6251L16.2231 30.3881C16.192 30.4056 16.1569 30.4149 16.1211 30.4151C16.0854 30.4149 16.0503 30.4056 16.0191 30.3881L2.20411 22.4101C2.1638 22.3865 2.13283 22.3498 2.11644 22.3061C2.10005 22.2623 2.09922 22.2143 2.11411 22.1701L2.13011 22.1321C2.15726 22.0858 2.20157 22.052 2.25342 22.0382C2.30527 22.0243 2.36049 22.0315 2.40711 22.0581L16.0711 29.9461L16.1221 29.9761L16.1721 29.9461L41.5951 15.2741L41.5941 15.2731H41.5931Z" fill="#373A3E" stroke="#373A3E" stroke-width="0.203"/>
<path d="M16.12 27.3232C16.232 27.3232 16.322 27.4142 16.322 27.5262V35.4682C16.322 35.5221 16.3006 35.5737 16.2626 35.6118C16.2245 35.6499 16.1729 35.6712 16.119 35.6712C16.0652 35.6712 16.0135 35.6499 15.9755 35.6118C15.9374 35.5737 15.916 35.5221 15.916 35.4682V27.5262C15.916 27.4142 16.006 27.3232 16.119 27.3232H16.12Z" fill="#373A3E" stroke="#373A3E" stroke-width="0.203"/>
<path d="M39.314 22.4961V25.1771C39.314 25.6631 38.993 26.1471 38.351 26.5181C37.069 27.2581 34.991 27.2581 33.709 26.5181C33.067 26.1481 32.748 25.6631 32.748 25.1781V22.4961C32.748 22.9811 33.069 23.4651 33.708 23.8351C34.991 24.5751 37.069 24.5751 38.351 23.8351C38.993 23.4651 39.314 22.9801 39.314 22.4961Z" fill="#FFD100"/>
<path d="M39.314 19.8096V22.4956C39.314 22.9816 38.993 23.4646 38.351 23.8346C37.069 24.5746 34.991 24.5746 33.709 23.8346C33.067 23.4646 32.748 22.9786 32.748 22.4946V19.8096C32.748 20.2956 33.069 20.7806 33.708 21.1526C34.991 21.8926 37.069 21.8926 38.351 21.1526C38.993 20.7806 39.314 20.2976 39.314 19.8096Z" fill="#FFD100"/>
<path d="M39.314 17.127V19.81C39.314 20.296 38.993 20.781 38.351 21.153C37.069 21.893 34.991 21.893 33.709 21.153C33.067 20.781 32.748 20.298 32.748 19.81V17.127C32.748 17.612 33.069 18.097 33.708 18.467C34.991 19.209 37.069 19.209 38.351 18.467C38.993 18.097 39.314 17.612 39.314 17.127Z" fill="#FFD100"/>
<path d="M39.314 14.4453V17.1273C39.314 17.6123 38.993 18.0973 38.351 18.4673C37.069 19.2093 34.991 19.2093 33.709 18.4673C33.067 18.0973 32.748 17.6123 32.748 17.1273V14.4453C32.748 14.9313 33.069 15.4153 33.708 15.7853C34.991 16.5253 37.069 16.5253 38.351 15.7853C38.993 15.4163 39.314 14.9313 39.314 14.4453Z" fill="#FFD100"/>
<path d="M39.314 11.7598V14.4428C39.314 14.9288 38.993 15.4128 38.351 15.7828C37.069 16.5228 34.991 16.5228 33.709 15.7828C33.067 15.4138 32.748 14.9288 32.748 14.4428V11.7598C32.748 12.2478 33.069 12.7308 33.708 13.1008C34.991 13.8408 37.069 13.8408 38.351 13.1008C38.993 12.7308 39.314 12.2448 39.314 11.7598Z" fill="#FFD100"/>
<path d="M39.314 9.07812V11.7621C39.314 12.2491 38.993 12.7321 38.351 13.1021C37.069 13.8421 34.991 13.8421 33.709 13.1021C33.067 12.7321 32.748 12.2471 32.748 11.7621V9.07812C32.748 9.56313 33.069 10.0471 33.708 10.4181C34.991 11.1581 37.069 11.1581 38.351 10.4181C38.993 10.0491 39.314 9.56313 39.314 9.07812Z" fill="#FFD100"/>
<path d="M39.314 7.27562V9.07762C39.314 9.56362 38.993 10.0466 38.351 10.4176C37.069 11.1576 34.991 11.1576 33.709 10.4176C33.067 10.0486 32.748 9.56362 32.748 9.07762V6.43262C32.748 6.91862 33.069 7.40162 33.708 7.77262C34.991 8.51262 37.069 8.51262 38.351 7.77262C38.993 7.40362 39.314 6.91862 39.314 6.43262V7.27562Z" fill="#FFD100"/>
<path d="M38.35 5.09209C38.993 5.46209 39.314 5.94709 39.314 6.43209C39.314 6.91809 38.993 7.40209 38.351 7.77409C37.069 8.51409 34.991 8.51409 33.709 7.77409C33.067 7.40409 32.748 6.91809 32.748 6.43309C32.748 5.94709 33.069 5.46309 33.708 5.09309C34.991 4.35309 37.069 4.35309 38.351 5.09309L38.35 5.09209Z" fill="#F9BCA0"/>
<path d="M36.027 4.3301C36.794 4.3301 37.557 4.4801 38.188 4.7791L38.45 4.9161C39.15 5.3191 39.516 5.8621 39.516 6.4331C39.516 6.9331 39.236 7.4091 38.697 7.7931L38.45 7.9491C37.777 8.3391 36.906 8.5341 36.028 8.5341C35.262 8.5341 34.5 8.3851 33.868 8.0871L33.605 7.9491C32.905 7.5441 32.541 7.0041 32.541 6.4331C32.541 5.9331 32.821 5.4571 33.357 5.0741L33.603 4.9161C34.279 4.5261 35.151 4.3301 36.027 4.3301ZM36.029 4.7371C35.329 4.7371 34.628 4.8711 34.049 5.1431L33.809 5.2681C33.273 5.5791 32.949 5.9881 32.949 6.4331C32.949 6.8231 33.199 7.1851 33.62 7.4771L33.81 7.5971C34.428 7.9541 35.233 8.1291 36.031 8.1291C36.73 8.1291 37.432 7.9951 38.01 7.7231L38.25 7.5981C38.785 7.2881 39.111 6.8781 39.111 6.4331C39.111 6.0431 38.861 5.6811 38.441 5.3891L38.25 5.2691C37.634 4.9121 36.827 4.7371 36.029 4.7371Z" fill="#373A3E" stroke="#373A3E" stroke-width="0.203"/>
<path d="M32.746 6.23047C32.859 6.23047 32.949 6.32047 32.949 6.43347V25.1775C32.949 25.2313 32.9276 25.2829 32.8895 25.321C32.8514 25.3591 32.7998 25.3805 32.746 25.3805C32.6921 25.3805 32.6405 25.3591 32.6024 25.321C32.5644 25.2829 32.543 25.2313 32.543 25.1775V6.43347C32.543 6.32047 32.633 6.23047 32.746 6.23047Z" fill="#373A3E" stroke="#373A3E" stroke-width="0.203"/>
<path d="M39.313 24.972C39.426 24.972 39.518 25.063 39.518 25.175C39.518 25.675 39.238 26.151 38.699 26.534L38.452 26.692C37.778 27.082 36.907 27.28 36.029 27.28C35.263 27.28 34.499 27.128 33.869 26.83L33.605 26.692C32.905 26.287 32.543 25.747 32.543 25.175C32.543 25.1483 32.5483 25.1219 32.5585 25.0973C32.5687 25.0727 32.5836 25.0503 32.6025 25.0315C32.6213 25.0126 32.6437 24.9977 32.6683 24.9875C32.693 24.9772 32.7194 24.972 32.746 24.972C32.7727 24.972 32.7991 24.9772 32.8237 24.9875C32.8483 24.9977 32.8707 25.0126 32.8896 25.0315C32.9084 25.0503 32.9234 25.0727 32.9336 25.0973C32.9438 25.1219 32.949 25.1483 32.949 25.175C32.949 25.565 33.199 25.927 33.62 26.219L33.81 26.34C34.428 26.697 35.233 26.872 36.031 26.872C36.73 26.872 37.432 26.738 38.01 26.465L38.249 26.34C38.784 26.03 39.11 25.62 39.11 25.175C39.11 25.063 39.201 24.973 39.313 24.972ZM39.312 8.875C39.424 8.875 39.516 8.965 39.516 9.078C39.516 9.578 39.236 10.053 38.697 10.436L38.45 10.594C37.777 10.984 36.906 11.179 36.028 11.179C35.262 11.179 34.5 11.03 33.868 10.732L33.605 10.594C32.905 10.189 32.541 9.649 32.541 9.078C32.541 9.05134 32.5463 9.02494 32.5565 9.00032C32.5667 8.97569 32.5816 8.95331 32.6005 8.93446C32.6193 8.91561 32.6417 8.90065 32.6663 8.89045C32.691 8.88025 32.7174 8.875 32.744 8.875C32.7707 8.875 32.7971 8.88025 32.8217 8.89045C32.8463 8.90065 32.8687 8.91561 32.8876 8.93446C32.9064 8.95331 32.9214 8.97569 32.9316 9.00032C32.9418 9.02494 32.947 9.05134 32.947 9.078C32.947 9.468 33.197 9.83 33.618 10.122L33.808 10.242C34.426 10.598 35.231 10.772 36.029 10.772C36.728 10.772 37.43 10.638 38.008 10.367L38.248 10.243C38.783 9.933 39.108 9.523 39.108 9.078C39.108 8.965 39.199 8.875 39.312 8.875ZM39.313 11.556C39.426 11.556 39.518 11.646 39.518 11.759C39.518 12.261 39.238 12.737 38.699 13.119L38.453 13.276C37.778 13.666 36.907 13.864 36.031 13.864H36.029C35.263 13.864 34.499 13.712 33.869 13.414L33.605 13.276C32.906 12.873 32.543 12.331 32.543 11.759C32.543 11.7323 32.5483 11.7059 32.5585 11.6813C32.5687 11.6567 32.5836 11.6343 32.6025 11.6155C32.6213 11.5966 32.6437 11.5817 32.6683 11.5715C32.693 11.5613 32.7194 11.556 32.746 11.556C32.7727 11.556 32.7991 11.5613 32.8237 11.5715C32.8483 11.5817 32.8707 11.5966 32.8896 11.6155C32.9084 11.6343 32.9234 11.6567 32.9336 11.6813C32.9438 11.7059 32.949 11.7323 32.949 11.759C32.949 12.151 33.199 12.513 33.619 12.804L33.809 12.924C34.426 13.281 35.231 13.456 36.029 13.456C36.729 13.456 37.431 13.322 38.009 13.049L38.249 12.924C38.784 12.616 39.11 12.204 39.11 11.759C39.11 11.647 39.201 11.556 39.313 11.556ZM39.312 14.242C39.424 14.242 39.516 14.332 39.516 14.445C39.516 14.945 39.236 15.421 38.697 15.803L38.45 15.962C37.777 16.351 36.906 16.546 36.028 16.547C35.262 16.547 34.5 16.397 33.868 16.099L33.605 15.962C32.905 15.556 32.541 15.016 32.541 14.445C32.541 14.4183 32.5463 14.3919 32.5565 14.3673C32.5667 14.3427 32.5816 14.3203 32.6005 14.3015C32.6193 14.2826 32.6417 14.2677 32.6663 14.2575C32.691 14.2473 32.7174 14.242 32.744 14.242C32.7707 14.242 32.7971 14.2473 32.8217 14.2575C32.8463 14.2677 32.8687 14.2826 32.8876 14.3015C32.9064 14.3203 32.9214 14.3427 32.9316 14.3673C32.9418 14.3919 32.947 14.4183 32.947 14.445C32.947 14.835 33.197 15.197 33.618 15.489L33.808 15.61C34.426 15.965 35.231 16.14 36.029 16.14C36.728 16.14 37.43 16.006 38.008 15.734L38.248 15.61C38.783 15.3 39.108 14.89 39.108 14.445C39.108 14.333 39.199 14.242 39.312 14.242ZM39.313 16.924C39.426 16.924 39.518 17.014 39.518 17.127C39.518 17.628 39.238 18.105 38.699 18.486L38.453 18.643C37.778 19.033 36.907 19.231 36.031 19.231H36.029C35.263 19.231 34.499 19.08 33.869 18.781L33.605 18.643C32.905 18.24 32.543 17.7 32.543 17.127C32.543 17.1003 32.5483 17.0739 32.5585 17.0493C32.5687 17.0247 32.5836 17.0023 32.6025 16.9835C32.6213 16.9646 32.6437 16.9497 32.6683 16.9395C32.693 16.9293 32.7194 16.924 32.746 16.924C32.7727 16.924 32.7991 16.9293 32.8237 16.9395C32.8483 16.9497 32.8707 16.9646 32.8896 16.9835C32.9084 17.0023 32.9234 17.0247 32.9336 17.0493C32.9438 17.0739 32.949 17.1003 32.949 17.127C32.949 17.518 33.197 17.88 33.619 18.172L33.809 18.292C34.426 18.649 35.231 18.825 36.029 18.825C36.828 18.825 37.633 18.649 38.25 18.292L38.249 18.291C38.784 17.982 39.11 17.574 39.11 17.127C39.11 17.014 39.201 16.924 39.313 16.924ZM39.313 19.605C39.426 19.605 39.518 19.695 39.518 19.808C39.518 20.308 39.238 20.785 38.699 21.168L38.452 21.327C37.778 21.717 36.905 21.915 36.029 21.915C35.153 21.915 34.282 21.716 33.605 21.327C32.905 20.922 32.543 20.379 32.543 19.808C32.543 19.7813 32.5483 19.7549 32.5585 19.7303C32.5687 19.7057 32.5836 19.6833 32.6025 19.6645C32.6213 19.6456 32.6437 19.6307 32.6683 19.6205C32.693 19.6103 32.7194 19.605 32.746 19.605C32.7727 19.605 32.7991 19.6103 32.8237 19.6205C32.8483 19.6307 32.8707 19.6456 32.8896 19.6645C32.9084 19.6833 32.9234 19.7057 32.9336 19.7303C32.9438 19.7549 32.949 19.7813 32.949 19.808C32.949 20.198 33.199 20.561 33.62 20.854L33.81 20.975C34.428 21.331 35.233 21.506 36.031 21.506C36.73 21.506 37.432 21.372 38.01 21.1L38.249 20.975C38.784 20.665 39.11 20.255 39.11 19.808C39.11 19.696 39.201 19.605 39.313 19.605ZM39.313 22.29C39.426 22.29 39.518 22.381 39.518 22.494C39.518 22.994 39.238 23.47 38.699 23.851L38.453 24.009C37.778 24.398 36.907 24.596 36.031 24.596H36.029C35.263 24.596 34.499 24.445 33.869 24.146L33.605 24.009C32.905 23.605 32.543 23.065 32.543 22.494C32.543 22.4673 32.5483 22.4409 32.5585 22.4163C32.5687 22.3917 32.5836 22.3693 32.6025 22.3505C32.6213 22.3316 32.6437 22.3167 32.6683 22.3065C32.693 22.2963 32.7194 22.291 32.746 22.291C32.7727 22.291 32.7991 22.2963 32.8237 22.3065C32.8483 22.3167 32.8707 22.3316 32.8896 22.3505C32.9084 22.3693 32.9234 22.3917 32.9336 22.4163C32.9438 22.4409 32.949 22.4673 32.949 22.494C32.949 22.884 33.199 23.245 33.619 23.536L33.809 23.656C34.426 24.013 35.231 24.188 36.029 24.188C36.729 24.188 37.431 24.054 38.009 23.782L38.249 23.657C38.784 23.349 39.11 22.939 39.11 22.494C39.11 22.381 39.201 22.29 39.313 22.29Z" fill="#373A3E" stroke="#373A3E" stroke-width="0.203"/>
<path d="M39.3153 6.23047C39.4273 6.23047 39.5183 6.32047 39.5183 6.43347V25.1775C39.5183 25.2314 39.4969 25.2832 39.4587 25.3214C39.4206 25.3595 39.3688 25.381 39.3148 25.381C39.2609 25.381 39.2091 25.3595 39.1709 25.3214C39.1328 25.2832 39.1113 25.2314 39.1113 25.1775V6.43347C39.1113 6.32047 39.2023 6.23047 39.3153 6.23047Z" fill="#373A3E" stroke="#373A3E" stroke-width="0.203"/>
<path d="M36.1744 27.0029V29.6839C36.1744 30.1699 35.8544 30.6549 35.2114 31.0249C33.9294 31.7669 31.8514 31.7669 30.5694 31.0249C29.9274 30.6549 29.6094 30.1699 29.6094 29.6849V27.0029C29.6094 27.4859 29.9294 27.9719 30.5694 28.3429C31.8514 29.0829 33.9294 29.0829 35.2114 28.3429C35.8534 27.9729 36.1744 27.4879 36.1744 27.0029Z" fill="#FFD100"/>
<path d="M36.1744 24.3203V27.0033C36.1744 27.4863 35.8544 27.9723 35.2114 28.3433C33.9294 29.0833 31.8514 29.0833 30.5694 28.3433C29.9274 27.9733 29.6094 27.4883 29.6094 27.0033V24.3193C29.6094 24.8073 29.9294 25.2903 30.5694 25.6603C31.8514 26.4003 33.9294 26.4003 35.2114 25.6603C35.8534 25.2903 36.1744 24.8053 36.1744 24.3203Z" fill="#FFD100"/>
<path d="M36.1744 21.6357V24.3187C36.1744 24.8067 35.8544 25.2897 35.2114 25.6597C33.9294 26.3997 31.8514 26.3997 30.5694 25.6597C29.9274 25.2897 29.6094 24.8047 29.6094 24.3197V21.6357C29.6094 22.1207 29.9294 22.6047 30.5694 22.9757C31.8514 23.7157 33.9294 23.7157 35.2114 22.9757C35.8534 22.6057 36.1744 22.1207 36.1744 21.6357Z" fill="#FFD100"/>
<path d="M36.1744 19.8342V21.6362C36.1744 22.1212 35.8544 22.6052 35.2114 22.9762C33.9294 23.7162 31.8514 23.7162 30.5694 22.9762C29.9274 22.6062 29.6094 22.1212 29.6094 21.6362V18.9902C29.6094 19.4752 29.9294 19.9592 30.5694 20.3302C31.8514 21.0702 33.9294 21.0702 35.2114 20.3302C35.8534 19.9602 36.1744 19.4752 36.1744 18.9902V19.8342Z" fill="#FFD100"/>
<path d="M35.2114 17.6517C35.8534 18.0217 36.1744 18.5067 36.1744 18.9917C36.1744 19.4777 35.8544 19.9617 35.2114 20.3327C33.9294 21.0727 31.8514 21.0727 30.5694 20.3327C29.9274 19.9627 29.6094 19.4777 29.6094 18.9927C29.6094 18.5067 29.9294 18.0227 30.5694 17.6517C31.8514 16.9117 33.9294 16.9117 35.2114 17.6517Z" fill="#F9BCA0"/>
<path d="M32.8893 16.8887C33.6563 16.8887 34.4193 17.0387 35.0493 17.3387L35.3123 17.4757C36.0123 17.8787 36.3773 18.4207 36.3773 18.9927C36.3773 19.4927 36.0973 19.9687 35.5593 20.3517L35.3123 20.5087C34.6383 20.8987 33.7673 21.0937 32.8903 21.0937C32.1233 21.0937 31.3603 20.9447 30.7303 20.6467L30.4673 20.5087C29.7673 20.1037 29.4023 19.5637 29.4023 18.9917C29.4023 18.4917 29.6823 18.0167 30.2193 17.6337L30.4653 17.4757C31.1403 17.0857 32.0123 16.8887 32.8893 16.8887ZM32.8913 17.2957C32.1913 17.2957 31.4893 17.4297 30.9113 17.7027L30.6703 17.8277C30.1353 18.1377 29.8103 18.5477 29.8103 18.9927C29.8103 19.3827 30.0603 19.7437 30.4813 20.0357L30.6713 20.1567C31.2893 20.5127 32.0943 20.6867 32.8933 20.6867C33.5913 20.6867 34.2933 20.5537 34.8713 20.2817L35.1113 20.1567C35.6463 19.8467 35.9733 19.4367 35.9733 18.9917C35.9733 18.6017 35.7233 18.2407 35.3023 17.9477L35.1123 17.8277C34.4953 17.4717 33.6903 17.2957 32.8913 17.2957ZM36.1733 21.4317C36.2853 21.4317 36.3773 21.5227 36.3773 21.6357C36.3773 22.1357 36.0973 22.6107 35.5593 22.9937L35.3123 23.1517C34.6383 23.5417 33.7673 23.7367 32.8903 23.7367C32.1233 23.7367 31.3603 23.5877 30.7303 23.2897L30.4673 23.1517C29.7673 22.7467 29.4023 22.2067 29.4023 21.6357C29.4023 21.5817 29.4238 21.5299 29.4619 21.4918C29.5001 21.4536 29.5519 21.4322 29.6058 21.4322C29.6598 21.4322 29.7116 21.4536 29.7497 21.4918C29.7879 21.5299 29.8093 21.5817 29.8093 21.6357C29.8093 22.0257 30.0593 22.3867 30.4793 22.6797L30.6693 22.7997C31.2873 23.1557 32.0923 23.3297 32.8913 23.3297C33.5893 23.3297 34.2913 23.1957 34.8693 22.9247L35.1093 22.8007C35.6443 22.4907 35.9693 22.0807 35.9693 21.6357C35.9693 21.5227 36.0613 21.4327 36.1733 21.4317ZM36.1753 24.1157C36.2873 24.1157 36.3793 24.2057 36.3793 24.3187C36.3793 24.8207 36.0993 25.2967 35.5603 25.6787L35.3153 25.8357H35.3133C34.6393 26.2257 33.7693 26.4237 32.8933 26.4237H32.8913C32.1243 26.4237 31.3613 26.2717 30.7303 25.9737L30.4673 25.8357C29.7673 25.4327 29.4043 24.8907 29.4043 24.3187C29.4043 24.2647 29.4258 24.2129 29.4639 24.1748C29.5021 24.1366 29.5539 24.1152 29.6078 24.1152C29.6618 24.1152 29.7136 24.1366 29.7517 24.1748C29.7899 24.2129 29.8113 24.2647 29.8113 24.3187C29.8113 24.7107 30.0603 25.0727 30.4803 25.3637L30.6703 25.4837C31.2873 25.8407 32.0923 26.0147 32.8903 26.0147C33.5903 26.0147 34.2933 25.8807 34.8713 25.6087L35.1113 25.4837C35.6463 25.1757 35.9713 24.7637 35.9713 24.3187C35.9713 24.2067 36.0633 24.1157 36.1753 24.1157ZM36.1733 26.7997C36.2853 26.7997 36.3773 26.8897 36.3773 27.0027C36.3773 27.5027 36.0973 27.9777 35.5593 28.3607L35.3123 28.5187C34.6383 28.9087 33.7673 29.1037 32.8903 29.1037C32.1233 29.1037 31.3603 28.9547 30.7303 28.6567L30.4673 28.5187C29.7673 28.1137 29.4023 27.5737 29.4023 27.0027C29.4023 26.9487 29.4238 26.8969 29.4619 26.8588C29.5001 26.8206 29.5519 26.7992 29.6058 26.7992C29.6598 26.7992 29.7116 26.8206 29.7497 26.8588C29.7879 26.8969 29.8093 26.9487 29.8093 27.0027C29.8093 27.3927 30.0593 27.7547 30.4793 28.0467L30.6693 28.1667C31.2873 28.5227 32.0923 28.6967 32.8913 28.6967C33.5893 28.6967 34.2913 28.5627 34.8693 28.2917L35.1093 28.1677C35.6443 27.8577 35.9693 27.4477 35.9693 27.0027C35.9693 26.8897 36.0613 26.7997 36.1733 26.7997Z" fill="#373A3E" stroke="#373A3E" stroke-width="0.203"/>
<path d="M36.1753 18.7866C36.2873 18.7866 36.3793 18.8776 36.3793 18.9906V29.6836C36.3793 30.1846 36.0993 30.6616 35.5603 31.0436L35.3153 31.2006H35.3133C34.6393 31.5906 33.7683 31.7886 32.8933 31.7886H32.8913C32.1243 31.7886 31.3613 31.6366 30.7303 31.3386L30.4673 31.2016C29.7673 30.7976 29.4043 30.2566 29.4043 29.6836V18.9896C29.4043 18.9357 29.4257 18.8839 29.4639 18.8457C29.5021 18.8076 29.5538 18.7861 29.6078 18.7861C29.6618 18.7861 29.7135 18.8076 29.7517 18.8457C29.7899 18.8839 29.8113 18.9357 29.8113 18.9896V29.6836C29.8113 30.0746 30.0593 30.4376 30.4803 30.7286L30.6703 30.8486C31.2873 31.2046 32.0923 31.3796 32.8903 31.3796C33.5903 31.3796 34.2933 31.2456 34.8713 30.9736L35.1113 30.8486C35.6463 30.5406 35.9713 30.1306 35.9713 29.6836V18.9896C35.9713 18.8776 36.0633 18.7876 36.1753 18.7866Z" fill="#373A3E" stroke="#373A3E" stroke-width="0.203"/>
</svg>
