<svg width="44" height="42" viewBox="0 0 44 42" fill="none" xmlns="http://www.w3.org/2000/svg">
<path d="M27.7243 7.24121V35.2122L18.0293 40.8112V12.8382L27.7243 7.24121Z" fill="#99C2FF"/>
<path d="M27.7241 7.24116L18.0291 12.8382L8.33008 7.24016L11.7901 5.24316V7.15016L18.0281 10.7542L24.2661 7.15016V5.24416L27.7231 7.24116H27.7241Z" fill="#DAFFEC"/>
<path d="M24.2673 5.24399V7.14999L18.0293 10.754V8.39399L24.2673 4.79199V5.24399Z" fill="#99C2FF"/>
<path d="M24.2671 4.79243L18.0301 8.39443L11.7921 4.79243L18.0301 1.19043L24.2671 4.79243ZM18.0291 12.8384V40.8104L8.33008 35.2124V7.24243L18.0291 12.8384Z" fill="#DAFFEC"/>
<path d="M11.791 4.79199L18.029 8.39399V10.754L11.791 7.14899V4.79199Z" fill="#BFE9FD"/>
<path d="M11.6804 5.05402C11.7239 5.02865 11.775 5.01917 11.8247 5.02719C11.8745 5.03521 11.92 5.06024 11.9534 5.09802L11.9794 5.13402C12.0048 5.178 12.0142 5.22942 12.006 5.27955C11.9978 5.32967 11.9725 5.37542 11.9344 5.40902L11.8984 5.43402L8.93337 7.14502L8.76837 7.24102L8.93337 7.33602L17.9734 12.553L18.0274 12.585L18.0814 12.553L27.1194 7.33602L27.2834 7.24102L27.1194 7.14602L24.1554 5.43402L24.1194 5.40902C24.0871 5.38046 24.064 5.34307 24.0528 5.30147C24.0416 5.25987 24.0428 5.2159 24.0564 5.17502L24.0754 5.13402C24.1046 5.08372 24.1526 5.04706 24.2089 5.03207C24.2651 5.01707 24.325 5.02496 24.3754 5.05402L27.8314 7.05002C27.8606 7.06685 27.8856 7.09019 27.9044 7.11822C27.9231 7.14625 27.9352 7.17823 27.9397 7.21168C27.9441 7.24512 27.9408 7.27914 27.93 7.31111C27.9192 7.34307 27.9012 7.37212 27.8774 7.39602L27.8314 7.43202L18.1364 13.028C18.0859 13.0563 18.0265 13.0642 17.9704 13.05L17.9174 13.028L8.21937 7.43202H8.22038C8.18696 7.41272 8.15914 7.38505 8.13968 7.35174C8.12021 7.31842 8.10977 7.2806 8.10938 7.24202C8.10938 7.16202 8.15238 7.09102 8.22038 7.05102L11.6804 5.05402Z" fill="#373A3E" stroke="#373A3E" stroke-width="0.216"/>
<path d="M18.0266 12.6182C18.0555 12.6182 18.0841 12.6239 18.1108 12.6349C18.1375 12.646 18.1618 12.6622 18.1822 12.6826C18.2026 12.703 18.2188 12.7273 18.2299 12.754C18.241 12.7807 18.2466 12.8093 18.2466 12.8382V40.8102C18.2466 40.8685 18.2235 40.9245 18.1822 40.9657C18.1409 41.007 18.085 41.0302 18.0266 41.0302C17.9683 41.0302 17.9123 41.007 17.8711 40.9657C17.8298 40.9245 17.8066 40.8685 17.8066 40.8102V12.8372L17.8116 12.7942C17.8218 12.7446 17.8487 12.7 17.8878 12.6679C17.927 12.6359 17.976 12.6183 18.0266 12.6182Z" fill="#373A3E" stroke="#373A3E" stroke-width="0.216"/>
<path d="M27.7214 7.01953C27.7797 7.01953 27.8357 7.04271 27.8769 7.08397C27.9182 7.12523 27.9414 7.18118 27.9414 7.23953V35.2115C27.9413 35.2404 27.9355 35.2689 27.9243 35.2955C27.9132 35.3221 27.8969 35.3462 27.8764 35.3665L27.8304 35.4025L18.1364 40.9995C18.1029 41.0188 18.065 41.0291 18.0264 41.0295C17.9877 41.0291 17.9499 41.0188 17.9164 40.9995H17.9144L8.21938 35.4025C8.18596 35.3832 8.15914 35.3556 8.13968 35.3223C8.12021 35.2889 8.10977 35.2511 8.10938 35.2125V7.23953C8.10938 7.18118 8.13255 7.12523 8.17381 7.08397C8.21507 7.04271 8.27103 7.01953 8.32938 7.01953C8.38772 7.01953 8.44368 7.04271 8.48494 7.08397C8.5262 7.12523 8.54938 7.18118 8.54938 7.23953V35.0825L8.60437 35.1145L17.9724 40.5225L18.0274 40.5545L18.0814 40.5225L27.4484 35.1145L27.5024 35.0825V7.24053C27.5024 7.18218 27.5256 7.12623 27.5668 7.08497C27.6081 7.04371 27.664 7.02053 27.7224 7.02053L27.7214 7.01953Z" fill="#373A3E" stroke="#373A3E" stroke-width="0.216"/>
<path d="M18.0824 0.977358L18.1354 0.999358L24.3744 4.60236C24.4035 4.61928 24.4284 4.64269 24.4471 4.67076C24.4658 4.69884 24.4778 4.73083 24.4821 4.76427C24.4865 4.79771 24.4831 4.83171 24.4722 4.86362C24.4613 4.89554 24.4432 4.92454 24.4194 4.94836L24.3734 4.98336L18.1374 8.58436C18.1034 8.60327 18.0652 8.6132 18.0264 8.6132C17.9875 8.6132 17.9493 8.60327 17.9154 8.58436L11.6784 4.98336C11.6451 4.96394 11.6175 4.93622 11.5982 4.90291C11.5789 4.8696 11.5687 4.83185 11.5684 4.79336C11.5684 4.71336 11.6104 4.64236 11.6784 4.60236L17.9164 0.999358C17.9664 0.969358 18.0274 0.962358 18.0824 0.977358ZM17.9714 1.47536L12.3914 4.69636L12.2264 4.79236L12.3924 4.88736L17.9714 8.11036L18.0254 8.14036L18.0814 8.11036L23.6614 4.88736L23.8244 4.79236L23.6604 4.69636L18.0814 1.47536L18.0254 1.44236L17.9714 1.47536Z" fill="#373A3E" stroke="#373A3E" stroke-width="0.216"/>
<path d="M18.0266 8.17383C18.085 8.17383 18.1409 8.19701 18.1822 8.23827C18.2235 8.27952 18.2466 8.33548 18.2466 8.39383V10.7538C18.2466 10.8122 18.2235 10.8681 18.1822 10.9094C18.1409 10.9506 18.085 10.9738 18.0266 10.9738C17.9683 10.9738 17.9123 10.9506 17.8711 10.9094C17.8298 10.8681 17.8066 10.8122 17.8066 10.7538V8.39383C17.8066 8.33548 17.8298 8.27952 17.8711 8.23827C17.9123 8.19701 17.9683 8.17383 18.0266 8.17383Z" fill="#373A3E" stroke="#373A3E" stroke-width="0.216"/>
<path d="M24.2646 4.57231C24.323 4.57231 24.3789 4.59549 24.4202 4.63675C24.4614 4.67801 24.4846 4.73396 24.4846 4.79231V7.14931C24.4843 7.20755 24.461 7.26328 24.4196 7.30431L24.3736 7.33931L18.1376 10.9433C18.1035 10.9627 18.0649 10.973 18.0256 10.9733C17.987 10.9728 17.9491 10.9625 17.9156 10.9433L11.6786 7.33931C11.6453 7.31997 11.6177 7.29226 11.5984 7.25894C11.5791 7.22561 11.5688 7.18782 11.5686 7.14931V4.79231C11.5724 4.73666 11.5971 4.68451 11.6379 4.64642C11.6786 4.60833 11.7323 4.58714 11.7881 4.58714C11.8439 4.58714 11.8976 4.60833 11.9384 4.64642C11.9791 4.68451 12.0039 4.73666 12.0076 4.79231V7.02031L12.0636 7.05231L17.9716 10.4653L18.0256 10.4973L18.0816 10.4653L23.9896 7.05231L24.0446 7.02031V4.79031C24.0446 4.73196 24.0678 4.67601 24.1091 4.63475C24.1503 4.59349 24.2063 4.57031 24.2646 4.57031V4.57231ZM10.5006 11.3883C10.5606 11.3883 10.6106 11.4383 10.6106 11.4983V16.7943C10.6106 16.8235 10.599 16.8515 10.5784 16.8721C10.5578 16.8927 10.5298 16.9043 10.5006 16.9043C10.4715 16.9043 10.4435 16.8927 10.4228 16.8721C10.4022 16.8515 10.3906 16.8235 10.3906 16.7943V11.4983C10.3906 11.4383 10.4406 11.3883 10.5006 11.3883ZM13.0866 12.8803C13.1466 12.8803 13.1966 12.9303 13.1966 12.9903V18.2853C13.1966 18.3145 13.185 18.3425 13.1644 18.3631C13.1438 18.3837 13.1158 18.3953 13.0866 18.3953C13.0575 18.3953 13.0295 18.3837 13.0088 18.3631C12.9882 18.3425 12.9766 18.3145 12.9766 18.2853V12.9903C12.9766 12.9303 13.0266 12.8803 13.0866 12.8803ZM15.6686 14.3683C15.7286 14.3683 15.7786 14.4183 15.7786 14.4783V19.7773C15.7786 19.8373 15.7286 19.8873 15.6686 19.8873C15.6086 19.8873 15.5586 19.8373 15.5586 19.7773V14.4793C15.5586 14.4193 15.6086 14.3683 15.6686 14.3683ZM10.5006 19.1883C10.5606 19.1883 10.6106 19.2383 10.6106 19.2983V24.5943C10.6106 24.6235 10.599 24.6515 10.5784 24.6721C10.5578 24.6927 10.5298 24.7043 10.5006 24.7043C10.4715 24.7043 10.4435 24.6927 10.4228 24.6721C10.4022 24.6515 10.3906 24.6235 10.3906 24.5943V19.2983C10.3906 19.2383 10.4406 19.1883 10.5006 19.1883ZM13.0866 20.6803C13.1466 20.6803 13.1966 20.7303 13.1966 20.7903V26.0853C13.1966 26.1145 13.185 26.1425 13.1644 26.1631C13.1438 26.1837 13.1158 26.1953 13.0866 26.1953C13.0575 26.1953 13.0295 26.1837 13.0088 26.1631C12.9882 26.1425 12.9766 26.1145 12.9766 26.0853V20.7903C12.9766 20.7303 13.0266 20.6803 13.0866 20.6803ZM15.6686 22.1703C15.7286 22.1703 15.7786 22.2203 15.7786 22.2803V27.5773C15.7786 27.6065 15.767 27.6345 15.7464 27.6551C15.7258 27.6757 15.6978 27.6873 15.6686 27.6873C15.6395 27.6873 15.6115 27.6757 15.5908 27.6551C15.5702 27.6345 15.5586 27.6065 15.5586 27.5773V22.2803L15.5666 22.2373C15.5753 22.2175 15.5896 22.2006 15.6077 22.1887C15.6258 22.1768 15.647 22.1704 15.6686 22.1703ZM10.5006 27.6493C10.5606 27.6493 10.6106 27.6993 10.6106 27.7593V33.0533C10.6106 33.1133 10.5606 33.1633 10.5006 33.1633C10.4715 33.1633 10.4435 33.1517 10.4228 33.1311C10.4022 33.1105 10.3906 33.0825 10.3906 33.0533V27.7593C10.3906 27.6993 10.4406 27.6493 10.5006 27.6493ZM13.0866 29.1403C13.1466 29.1403 13.1966 29.1903 13.1966 29.2503V34.5453C13.1966 34.5745 13.185 34.6025 13.1644 34.6231C13.1438 34.6437 13.1158 34.6553 13.0866 34.6553C13.0575 34.6553 13.0295 34.6437 13.0088 34.6231C12.9882 34.6025 12.9766 34.5745 12.9766 34.5453V29.2503C12.9766 29.1903 13.0266 29.1403 13.0866 29.1403ZM15.6686 30.6323C15.7286 30.6323 15.7786 30.6823 15.7786 30.7423V36.0363C15.7786 36.0655 15.767 36.0935 15.7464 36.1141C15.7258 36.1347 15.6978 36.1463 15.6686 36.1463C15.6395 36.1463 15.6115 36.1347 15.5908 36.1141C15.5702 36.0935 15.5586 36.0655 15.5586 36.0363V30.7423C15.5586 30.6823 15.6086 30.6323 15.6686 30.6323ZM25.5516 11.3883C25.6116 11.3883 25.6616 11.4383 25.6616 11.4983V16.7943C25.6616 16.8235 25.65 16.8515 25.6294 16.8721C25.6088 16.8927 25.5808 16.9043 25.5516 16.9043C25.5225 16.9043 25.4945 16.8927 25.4738 16.8721C25.4532 16.8515 25.4416 16.8235 25.4416 16.7943V11.4983C25.4416 11.4383 25.4916 11.3883 25.5516 11.3883ZM22.9666 12.8803C23.0266 12.8803 23.0766 12.9303 23.0766 12.9903V18.2853C23.0766 18.3145 23.065 18.3425 23.0444 18.3631C23.0238 18.3837 22.9958 18.3953 22.9666 18.3953C22.9375 18.3953 22.9095 18.3837 22.8888 18.3631C22.8682 18.3425 22.8566 18.3145 22.8566 18.2853V12.9903C22.8566 12.9303 22.9066 12.8803 22.9666 12.8803ZM20.3826 14.3683C20.4426 14.3683 20.4926 14.4183 20.4926 14.4783V19.7773C20.4926 19.8373 20.4426 19.8873 20.3826 19.8873C20.3226 19.8873 20.2726 19.8373 20.2726 19.7773V14.4793C20.2726 14.4193 20.3226 14.3683 20.3826 14.3683ZM25.5516 19.1883C25.6116 19.1883 25.6616 19.2383 25.6616 19.2983V24.5943C25.6616 24.6235 25.65 24.6515 25.6294 24.6721C25.6088 24.6927 25.5808 24.7043 25.5516 24.7043C25.5225 24.7043 25.4945 24.6927 25.4738 24.6721C25.4532 24.6515 25.4416 24.6235 25.4416 24.5943V19.2983C25.4416 19.2383 25.4916 19.1883 25.5516 19.1883ZM22.9666 20.6803C23.0266 20.6803 23.0766 20.7303 23.0766 20.7903V26.0853C23.0766 26.1145 23.065 26.1425 23.0444 26.1631C23.0238 26.1837 22.9958 26.1953 22.9666 26.1953C22.9375 26.1953 22.9095 26.1837 22.8888 26.1631C22.8682 26.1425 22.8566 26.1145 22.8566 26.0853V20.7903C22.8566 20.7303 22.9066 20.6803 22.9666 20.6803ZM20.3826 22.1703C20.4426 22.1703 20.4926 22.2203 20.4926 22.2803V27.5773C20.4926 27.6065 20.481 27.6345 20.4604 27.6551C20.4398 27.6757 20.4118 27.6873 20.3826 27.6873C20.3535 27.6873 20.3255 27.6757 20.3048 27.6551C20.2842 27.6345 20.2726 27.6065 20.2726 27.5773V22.2803L20.2816 22.2373C20.2903 22.2176 20.3044 22.2009 20.3223 22.189C20.3402 22.1771 20.3611 22.1706 20.3826 22.1703ZM25.5516 27.6493C25.6116 27.6493 25.6616 27.6993 25.6616 27.7593V33.0533C25.6616 33.1133 25.6116 33.1633 25.5516 33.1633C25.5225 33.1633 25.4945 33.1517 25.4738 33.1311C25.4532 33.1105 25.4416 33.0825 25.4416 33.0533V27.7593C25.4416 27.6993 25.4916 27.6493 25.5516 27.6493ZM22.9666 29.1403C23.0266 29.1403 23.0766 29.1903 23.0766 29.2503V34.5453C23.0766 34.5745 23.065 34.6025 23.0444 34.6231C23.0238 34.6437 22.9958 34.6553 22.9666 34.6553C22.9375 34.6553 22.9095 34.6437 22.8888 34.6231C22.8682 34.6025 22.8566 34.5745 22.8566 34.5453V29.2503C22.8566 29.1903 22.9066 29.1403 22.9666 29.1403ZM20.3826 30.6323C20.4426 30.6323 20.4926 30.6823 20.4926 30.7423V36.0363C20.4926 36.0655 20.481 36.0935 20.4604 36.1141C20.4398 36.1347 20.4118 36.1463 20.3826 36.1463C20.3535 36.1463 20.3255 36.1347 20.3048 36.1141C20.2842 36.0935 20.2726 36.0655 20.2726 36.0363V30.7423C20.2726 30.6823 20.3226 30.6323 20.3826 30.6323Z" fill="#373A3E" stroke="#373A3E" stroke-width="0.216"/>
<path d="M18.5527 34.123V35.833L27.4097 40.945V39.235L18.5527 34.123Z" fill="#C8ECD2"/>
<path d="M18.5527 32.4629V34.1229L27.4097 39.2349V37.5759L18.5527 32.4629Z" fill="#C8ECD2"/>
<path d="M18.5527 30.7422V32.4632L27.4097 37.5762V35.8562L18.5527 30.7422Z" fill="#C8ECD2"/>
<path d="M18.5547 30.7423L27.4117 35.8563L43.8067 26.3923L34.9477 21.2783L18.5547 30.7423ZM29.0667 29.7863C27.8997 29.1143 27.8997 28.0203 29.0667 27.3463C30.2347 26.6733 32.1267 26.6733 33.2937 27.3463C34.4607 28.0183 34.4607 29.1123 33.2937 29.7863C32.1267 30.4623 30.2347 30.4623 29.0667 29.7863Z" fill="#C8ECD2"/>
<path d="M27.4092 39.2345V40.9445L43.8032 31.4825V29.7695L27.4082 39.2335L27.4092 39.2345Z" fill="#7CD192"/>
<path d="M27.4092 37.5763V39.2363L43.8032 29.7713V28.1133L27.4092 37.5763Z" fill="#7CD192"/>
<path d="M27.4092 35.8556V37.5756L43.8032 28.1126V26.3916L27.4092 35.8556ZM29.0642 27.3456C27.8972 28.0176 27.8972 29.1126 29.0642 29.7856C30.2322 30.4616 32.1242 30.4616 33.2912 29.7856C34.4582 29.1136 34.4582 28.0196 33.2912 27.3456C32.1242 26.6726 30.2312 26.6726 29.0642 27.3456Z" fill="#7CD192"/>
<path d="M34.9807 22.7963L35.0127 22.8103L36.8877 23.8953C36.9337 23.9213 36.9577 23.9723 36.9507 24.0233L36.9347 24.0733C36.922 24.0953 36.9031 24.1131 36.8803 24.1245C36.8576 24.1359 36.832 24.1403 36.8067 24.1373L36.7567 24.1203L34.9807 23.0933L34.9477 23.0733L34.9157 23.0933L33.1037 24.1403C33.088 24.149 33.0706 24.1541 33.0527 24.1553H33.0387C33.01 24.1553 32.9822 24.1457 32.9595 24.1282C32.9368 24.1107 32.9206 24.0861 32.9133 24.0584C32.906 24.0307 32.908 24.0014 32.9192 23.9749C32.9303 23.9485 32.9498 23.9265 32.9747 23.9123L34.8827 22.8103C34.8974 22.8015 34.9138 22.7957 34.9308 22.7933C34.9478 22.7908 34.9641 22.7919 34.9807 22.7963ZM39.1457 25.1953L41.0187 26.2773C41.0587 26.3013 41.0847 26.3443 41.0847 26.3913C41.0846 26.4085 41.0811 26.4254 41.0744 26.4412C41.0677 26.457 41.058 26.4713 41.0457 26.4833L41.0187 26.5033L39.1107 27.6073C39.0958 27.6158 39.0784 27.6212 39.0614 27.6234C39.0444 27.6255 39.0271 27.6242 39.0106 27.6197C38.994 27.6151 38.9786 27.6074 38.965 27.5968C38.9515 27.5863 38.9402 27.5732 38.9317 27.5583C38.9232 27.5434 38.9178 27.527 38.9157 27.51C38.9135 27.493 38.9148 27.4757 38.9194 27.4592C38.9239 27.4426 38.9317 27.4272 38.9422 27.4136C38.9527 27.4001 38.9658 27.3888 38.9807 27.3803L40.5957 26.4473L40.6937 26.3913L40.5957 26.3343L39.0157 25.4203C38.9933 25.4077 38.9753 25.3887 38.9639 25.3657C38.9524 25.3427 38.9482 25.3168 38.9517 25.2913L38.9677 25.2413C38.9852 25.2116 39.0138 25.1901 39.0472 25.1815C39.0806 25.1728 39.116 25.1778 39.1457 25.1953ZM23.2377 29.5333C23.2598 29.5203 23.2853 29.5141 23.3109 29.5155C23.3366 29.5169 23.3612 29.5259 23.3817 29.5413L23.4157 29.5793C23.4285 29.6016 23.4343 29.6272 23.4325 29.6528C23.4308 29.6785 23.4214 29.703 23.4057 29.7233L23.3677 29.7583L21.7607 30.6853L21.6637 30.7423L21.7607 30.7983L23.3417 31.7103V31.7113C23.3564 31.72 23.3693 31.7315 23.3796 31.7451C23.3898 31.7587 23.3973 31.7743 23.4016 31.7908C23.4059 31.8073 23.4068 31.8245 23.4044 31.8414C23.4021 31.8583 23.3964 31.8746 23.3877 31.8893C23.3736 31.9137 23.3518 31.9327 23.3258 31.9436C23.2998 31.9544 23.271 31.9564 23.2437 31.9493L23.2117 31.9373L21.3367 30.8543C21.3168 30.8429 21.3003 30.8264 21.2888 30.8065C21.2774 30.7866 21.2714 30.764 21.2715 30.741C21.2716 30.7181 21.2778 30.6955 21.2894 30.6757C21.301 30.6559 21.3177 30.6396 21.3377 30.6283L23.2367 29.5323L23.2377 29.5333ZM29.2457 33.0003C29.2679 32.9874 29.2933 32.9813 29.3189 32.9827C29.3445 32.9841 29.3691 32.993 29.3897 33.0083L29.4227 33.0463C29.4357 33.0684 29.4419 33.0939 29.4405 33.1195C29.4391 33.1452 29.4301 33.1698 29.4147 33.1903L29.3747 33.2253L27.4747 34.3213C27.4548 34.3324 27.4325 34.3383 27.4097 34.3383H27.3957L27.3757 34.3353L27.3437 34.3233L25.4697 33.2413C25.4478 33.2285 25.4301 33.2086 25.4189 33.1858C25.4077 33.1631 25.4035 33.1375 25.4067 33.1123L25.4227 33.0623C25.4313 33.0475 25.4427 33.0346 25.4563 33.0242C25.4699 33.0138 25.4854 33.0062 25.502 33.0019C25.5185 32.9975 25.5357 32.9965 25.5527 32.9988C25.5696 33.0011 25.5859 33.0067 25.6007 33.0153L27.3767 34.0393L27.4097 34.0583L27.4417 34.0393L29.2447 33.0003H29.2457ZM31.1787 26.7153C31.8717 26.7153 32.5627 26.8483 33.1247 27.1133L33.3567 27.2333C33.9727 27.5873 34.2967 28.0633 34.2967 28.5663C34.2967 29.0063 34.0487 29.4243 33.5737 29.7593L33.3567 29.8973C32.7597 30.2443 31.9717 30.4173 31.1797 30.4173H31.1507C30.4667 30.4143 29.7867 30.2813 29.2317 30.0193L29.0007 29.8983C28.3867 29.5433 28.0607 29.0683 28.0607 28.5663C28.0607 28.1263 28.3087 27.7063 28.7827 27.3713L28.9997 27.2343C29.5977 26.8893 30.3867 26.7153 31.1797 26.7153H31.1787ZM31.0237 26.9743C30.4297 26.9923 29.8407 27.1143 29.3507 27.3443L29.1297 27.4593C28.6197 27.7543 28.3197 28.1443 28.3197 28.5663C28.3197 28.9353 28.5487 29.2793 28.9477 29.5563L29.1297 29.6713C29.6977 29.9993 30.4397 30.1623 31.1787 30.1623C31.8247 30.1623 32.4727 30.0383 33.0047 29.7863L33.2247 29.6713C33.7357 29.3773 34.0347 28.9873 34.0347 28.5643C34.0347 28.1943 33.8067 27.8503 33.4067 27.5733L33.2257 27.4583C32.6567 27.1313 31.9157 26.9693 31.1757 26.9693H31.0197L31.0237 26.9743Z" fill="#373A3E" stroke="#373A3E" stroke-width="0.13"/>
<path d="M34.9801 21.1498L35.0101 21.1638H35.0121L43.8701 26.2778C43.8873 26.2877 43.902 26.3015 43.913 26.3181C43.924 26.3346 43.9311 26.3534 43.9337 26.3731C43.9363 26.3928 43.9344 26.4129 43.928 26.4317C43.9217 26.4505 43.9111 26.4677 43.8971 26.4818L43.8691 26.5028L27.4751 35.9668C27.4553 35.9782 27.433 35.9844 27.4101 35.9848H27.4031C27.382 35.9839 27.3615 35.9781 27.3431 35.9678H27.3451L18.4871 30.8538C18.4672 30.8423 18.4507 30.8258 18.4392 30.8059C18.4278 30.786 18.4218 30.7634 18.4219 30.7405C18.422 30.7175 18.4282 30.695 18.4398 30.6752C18.4514 30.6554 18.4681 30.639 18.4881 30.6278L34.8811 21.1638C34.8958 21.155 34.9122 21.1492 34.9292 21.1468C34.9462 21.1444 34.9635 21.1454 34.9801 21.1498ZM34.9141 21.4448L18.9111 30.6848L18.8781 30.7028V30.7788L18.9111 30.7988L27.3771 35.6848L27.4101 35.7048L27.4421 35.6848L43.4461 26.4468L43.5441 26.3898L43.4461 26.3338L34.9781 21.4438L34.9461 21.4258L34.9141 21.4448Z" fill="#373A3E" stroke="#373A3E" stroke-width="0.13"/>
<path d="M43.8039 26.2598C43.8384 26.2598 43.8714 26.2735 43.8958 26.2978C43.9202 26.3222 43.9339 26.3553 43.9339 26.3898V31.4808C43.9339 31.4978 43.9305 31.5148 43.924 31.5305C43.9175 31.5463 43.9079 31.5607 43.8959 31.5728L43.8689 31.5938L27.4749 41.0568C27.4551 41.0681 27.4327 41.0743 27.4099 41.0748C27.3864 41.0746 27.3633 41.0684 27.3429 41.0568L18.4869 35.9438C18.4671 35.9322 18.4507 35.9158 18.4393 35.8959C18.4279 35.8761 18.4219 35.8536 18.4219 35.8308V30.7398C18.4219 30.7053 18.4356 30.6722 18.4599 30.6478C18.4843 30.6235 18.5174 30.6098 18.5519 30.6098C18.5864 30.6098 18.6194 30.6235 18.6438 30.6478C18.6682 30.6722 18.6819 30.7053 18.6819 30.7398V35.7558L18.7149 35.7738L27.3769 40.7748L27.4099 40.7938L27.4419 40.7748L43.6419 31.4248L43.6739 31.4048V26.3898C43.6739 26.3553 43.6876 26.3222 43.7119 26.2978C43.7363 26.2735 43.7694 26.2598 43.8039 26.2598Z" fill="#373A3E" stroke="#373A3E" stroke-width="0.13"/>
<path d="M43.7389 29.659C43.7612 29.6462 43.7867 29.6403 43.8123 29.6419C43.8379 29.6435 43.8624 29.6525 43.8829 29.668L43.9159 29.706C43.9287 29.728 43.9348 29.7532 43.9334 29.7787C43.932 29.8041 43.9231 29.8285 43.9079 29.849L43.8679 29.885L27.4749 39.347C27.4551 39.3583 27.4327 39.3645 27.4099 39.365C27.3864 39.3648 27.3633 39.3586 27.3429 39.347L18.4869 34.235C18.4647 34.2222 18.4468 34.2031 18.4354 34.1801C18.424 34.1572 18.4197 34.1314 18.4229 34.106L18.4399 34.056C18.4528 34.0341 18.4718 34.0165 18.4945 34.0053C18.5172 33.9941 18.5428 33.9898 18.5679 33.993L18.6179 34.01L27.3769 39.065L27.4099 39.084L27.4419 39.065L43.7379 29.658L43.7389 29.659Z" fill="#373A3E" stroke="#373A3E" stroke-width="0.13"/>
<path d="M43.7392 27.9998C43.7615 27.987 43.787 27.9811 43.8126 27.9827C43.8382 27.9843 43.8627 27.9934 43.8832 28.0088L43.9162 28.0468C43.9291 28.0688 43.9351 28.0941 43.9337 28.1195C43.9323 28.1449 43.9234 28.1694 43.9082 28.1898L43.8682 28.2248L27.4752 37.6878C27.4554 37.6992 27.4331 37.7053 27.4102 37.7058C27.3867 37.7056 27.3637 37.6994 27.3432 37.6878L18.4872 32.5748C18.4724 32.5663 18.4594 32.5549 18.4489 32.5413C18.4385 32.5277 18.4308 32.5123 18.4264 32.4957C18.4219 32.4792 18.4208 32.462 18.423 32.445C18.4252 32.428 18.4307 32.4116 18.4392 32.3968C18.4478 32.3819 18.4591 32.3689 18.4727 32.3585C18.4863 32.348 18.5018 32.3404 18.5183 32.3359C18.5348 32.3315 18.5521 32.3303 18.569 32.3325C18.586 32.3347 18.6024 32.3403 18.6172 32.3488L27.3772 37.4058L27.4102 37.4248L27.4422 37.4058L43.7392 27.9998Z" fill="#373A3E" stroke="#373A3E" stroke-width="0.13"/>
<path d="M27.4073 35.7236C27.4418 35.7236 27.4749 35.7373 27.4993 35.7617C27.5236 35.7861 27.5373 35.8192 27.5373 35.8536V40.9446C27.5373 40.9791 27.5236 41.0122 27.4993 41.0366C27.4749 41.0609 27.4418 41.0746 27.4073 41.0746C27.3729 41.0746 27.3398 41.0609 27.3154 41.0366C27.291 41.0122 27.2773 40.9791 27.2773 40.9446V35.8546C27.2773 35.8202 27.291 35.7871 27.3154 35.7627C27.3398 35.7383 27.3729 35.7236 27.4073 35.7236Z" fill="#373A3E" stroke="#373A3E" stroke-width="0.13"/>
</svg>
