<svg width="44" height="42" viewBox="0 0 44 42" fill="none" xmlns="http://www.w3.org/2000/svg">
<path d="M3.51367 10.5303V30.4679L20.2197 40.1115V20.1762L3.51367 10.5303Z" fill="#EAE8E8"/>
<path d="M20.2191 20.1764V40.114L36.9251 30.4682V24.8045L34.7691 26.0494V27.8914L22.9006 34.7443V28.3056L21.9763 27.7711V22.1163L34.8226 14.6976C35.6533 15.1786 36.346 15.6998 36.9228 16.2388V10.5283L20.2168 20.1742L20.2191 20.1764Z" fill="#AAE4FF"/>
<path d="M26.8827 30.6016C26.8827 30.6016 27.6399 25.3857 21.9785 22.1162V27.771L26.8827 30.6016Z" fill="#A09B92"/>
<path d="M21.9785 22.1169C27.64 25.3864 26.8828 30.6025 26.8828 30.6025L28.9563 29.4064C28.9563 29.4064 29.7135 24.1882 24.052 20.9209L21.9785 22.1169Z" fill="white"/>
<path d="M26.9382 30.6988L26.8821 30.7312L26.8271 30.6988L23.0137 28.4991V34.5511L34.6599 27.8267V26.2422L26.9382 30.6988Z" fill="#373A3E" stroke="#373A3E" stroke-width="0.216"/>
<path d="M26.2353 19.6602L24.0527 20.9207C29.7142 24.188 28.9569 29.4063 28.9569 29.4063L31.1396 28.1457C31.1396 28.1457 31.8968 22.9274 26.2353 19.6602Z" fill="#FE0000"/>
<path d="M28.4189 18.3994L26.2363 19.66C31.8978 22.9272 31.1405 28.1455 31.1405 28.1455L33.3232 26.885C33.3232 26.885 34.0804 21.6667 28.4189 18.3994Z" fill="white"/>
<path d="M30.6005 17.1406L28.418 18.4012C34.0795 21.6684 33.3222 26.8867 33.3222 26.8867L35.5048 25.6262C35.5048 25.6262 36.262 20.4079 30.6005 17.1406Z" fill="#FE0000"/>
<path d="M32.7822 15.8779L30.5996 17.1407C36.261 20.408 35.5038 25.6262 35.5038 25.6262L37.6864 24.3657C37.7042 24.2321 38.3702 19.1051 32.7822 15.8779Z" fill="white"/>
<path d="M34.8255 14.7002L32.7832 15.8784C38.3711 19.1056 37.7075 24.2325 37.6874 24.364L39.7297 23.1857C39.7297 23.1857 40.2798 19.3862 36.9257 16.2437C36.3467 15.7024 35.6562 15.1813 34.8255 14.7002Z" fill="#FE0000"/>
<path d="M3.51367 10.5281L20.2189 20.1722L36.9241 10.5281L20.2189 0.881836L3.51367 10.5281Z" fill="#89D9FF" stroke="#373A3E" stroke-width="0.557526"/>
<path d="M3.51105 10.3633C3.41888 10.3633 3.34375 10.4384 3.34375 10.5306V30.4685C3.34385 30.5138 3.36198 30.5557 3.39232 30.5862L3.42578 30.612L20.132 40.2582C20.1527 40.2703 20.176 40.2762 20.1979 40.2788H20.2185C20.2325 40.2788 20.2469 40.2771 20.2606 40.2734L20.3016 40.2561L37.0068 30.6098C37.0566 30.5818 37.0898 30.5263 37.0899 30.4664V24.8019C37.0898 24.7098 37.0146 24.6357 36.9226 24.6357C36.8306 24.6357 36.7554 24.7098 36.7553 24.8019V30.3702L36.7003 30.4016L20.2724 39.887L20.2163 39.9194L20.1612 39.887L3.7334 30.4016L3.67727 30.3702V10.5306C3.67727 10.4385 3.60306 10.3635 3.51105 10.3633Z" fill="#373A3E" stroke="#373A3E" stroke-width="0.216"/>
<path d="M20.2181 20.0068C20.1259 20.0068 20.0508 20.082 20.0508 20.1742V40.112C20.051 40.2041 20.126 40.2782 20.2181 40.2782C20.3102 40.2782 20.3852 40.2041 20.3853 40.112V20.1742C20.3853 20.082 20.3103 20.0068 20.2181 20.0068Z" fill="#373A3E" stroke="#373A3E" stroke-width="0.216"/>
<path d="M21.9336 21.9585L21.8926 21.9757C21.8427 22.0039 21.8105 22.0593 21.8105 22.1193V27.7741C21.8105 27.8194 21.8289 27.8613 21.8591 27.8918L21.8937 27.9176L26.7972 30.7488C26.8228 30.7637 26.8533 30.7715 26.8825 30.7715C26.8951 30.7714 26.9074 30.7709 26.9192 30.7682L26.9548 30.7553C26.9906 30.7375 27.0191 30.7066 27.0347 30.669L27.0454 30.629L27.0465 30.6269L27.053 30.5632C27.0571 30.5214 27.0626 30.4607 27.0671 30.3829C27.0758 30.2272 27.0812 30.0028 27.0703 29.7245C27.0483 29.1677 26.9588 28.3952 26.6914 27.5215C26.1573 25.7764 24.9127 23.6216 22.062 21.9748L22.061 21.9757C22.0214 21.9535 21.976 21.9475 21.9336 21.9585ZM22.3157 22.5177C26.5239 25.1702 26.7938 28.885 26.7507 30.1454L26.7443 30.3311L26.5835 30.2383L22.2002 27.7083L22.1451 27.6759V22.4097L22.3157 22.5177Z" fill="#373A3E" stroke="#373A3E" stroke-width="0.216"/>
<path d="M32.8379 15.7807C32.7988 15.7579 32.7502 15.7614 32.7148 15.7882L32.6846 15.8228C32.6617 15.862 32.6663 15.9105 32.6932 15.9458L32.7278 15.9761C37.5541 18.764 37.6531 23.034 37.5967 24.1004L37.5763 24.3476C37.5677 24.4068 37.6074 24.462 37.668 24.4728H37.6993C37.7353 24.4686 37.7674 24.4488 37.7845 24.4177L37.7965 24.3799V24.3788C37.8254 24.1736 38.4481 19.3605 33.3496 16.0926L32.8379 15.7807Z" fill="#373A3E" stroke="#373A3E" stroke-width="0.216"/>
<path d="M30.6563 17.0433C30.6172 17.0206 30.5685 17.0242 30.5332 17.0508L30.503 17.0854C30.4801 17.1247 30.4846 17.1731 30.5116 17.2085L30.5451 17.2386C35.3721 20.0248 35.4715 24.2963 35.4151 25.363L35.3947 25.6102C35.3881 25.6556 35.4098 25.699 35.4475 25.7214L35.4896 25.7364C35.4947 25.7369 35.4989 25.7372 35.5015 25.7375C35.5028 25.7377 35.504 25.7374 35.5048 25.7375C35.5458 25.7375 35.5826 25.7149 35.6019 25.6803L35.6149 25.6426C35.6272 25.5458 36.2483 20.6204 31.1689 17.3563L30.6563 17.0433Z" fill="#373A3E" stroke="#373A3E" stroke-width="0.216"/>
<path d="M28.4726 18.3021C28.4336 18.2793 28.3849 18.283 28.3496 18.3097L28.3194 18.3442C28.2966 18.3835 28.301 18.432 28.328 18.4673L28.3615 18.4975C33.1884 21.2836 33.2878 25.5533 33.2316 26.6208L33.2111 26.869V26.8701C33.2045 26.9155 33.2262 26.9579 33.2639 26.9802L33.306 26.9953C33.3111 26.9957 33.3153 26.9961 33.3179 26.9963H33.3212C33.3622 26.9963 33.399 26.9738 33.4183 26.9392L33.4313 26.9014C33.4437 26.8038 34.0643 21.8788 28.9853 18.6151L28.4726 18.3021Z" fill="#373A3E" stroke="#373A3E" stroke-width="0.216"/>
<path d="M26.291 19.5628C26.252 19.5401 26.2033 19.5437 26.168 19.5705L26.1378 19.605C26.1148 19.6442 26.1194 19.6927 26.1465 19.7281L26.1798 19.7583C31.007 22.5443 31.1063 26.8158 31.05 27.8826L31.0294 28.1297C31.0229 28.1752 31.0447 28.2186 31.0823 28.2409L31.1245 28.2561C31.1295 28.2564 31.1337 28.2568 31.1363 28.2572C31.1376 28.2573 31.1388 28.2571 31.1396 28.2572C31.1806 28.2572 31.2174 28.2345 31.2366 28.1999L31.2497 28.1621C31.2619 28.0653 31.8831 23.1399 26.8038 19.8759L26.291 19.5628Z" fill="#373A3E" stroke="#373A3E" stroke-width="0.216"/>
<path d="M24.1074 20.8226C24.0684 20.7998 24.0197 20.8036 23.9844 20.8302L23.9542 20.8647C23.9313 20.9039 23.9358 20.9524 23.9629 20.9878L23.9962 21.018C28.8234 23.804 28.9227 28.0755 28.8664 29.1423L28.8458 29.3895V29.3906C28.8393 29.436 28.8611 29.4783 28.8987 29.5007L28.9409 29.5158C28.9459 29.5161 28.95 29.5166 28.9527 29.5169H28.9559C28.997 29.5169 29.0338 29.4943 29.053 29.4597L29.0661 29.4219C29.0784 29.325 29.6995 24.3996 24.6202 21.1356L24.1074 20.8226Z" fill="#373A3E" stroke="#373A3E" stroke-width="0.216"/>
<path d="M34.9087 14.5527C34.8558 14.5228 34.7921 14.5228 34.7393 14.5527L21.8938 21.9711H21.8927C21.8341 22.0044 21.8038 22.0708 21.8118 22.1362L21.8322 22.1999C21.8625 22.2522 21.9187 22.2819 21.9769 22.2819H21.9964C22.0049 22.281 22.0133 22.2808 22.0211 22.2787L22.0568 22.2635L22.0611 22.2614L34.7674 14.925L34.8234 14.8926L34.8795 14.9261C35.4139 15.2447 35.9121 15.596 36.368 15.9752L36.8094 16.3627C36.8608 16.4098 36.9327 16.4197 36.9919 16.3929L37.0459 16.353C37.0923 16.3036 37.1023 16.2306 37.076 16.1705L37.0382 16.1155C36.4152 15.5344 35.6997 15.0084 34.9098 14.5516L34.9087 14.5527Z" fill="#373A3E" stroke="#373A3E" stroke-width="0.216"/>
<path d="M36.8562 16.0918L36.8012 16.1307C36.755 16.1801 36.7457 16.2516 36.772 16.3109L36.8098 16.3649C39.3436 18.7388 39.6028 21.5265 39.5913 22.6511L39.5751 23.0246L39.5708 23.0839L39.5201 23.113L37.602 24.2194L37.6009 24.2205L37.5988 24.2216C37.5972 24.2225 37.5947 24.2245 37.5923 24.2259C37.5882 24.2283 37.5857 24.2297 37.5848 24.2302L37.5728 24.2377L26.7965 30.4581C26.7163 30.505 26.6894 30.6059 26.7351 30.6869C26.7653 30.7392 26.8204 30.7689 26.8787 30.7689H26.9002C26.9087 30.7681 26.9171 30.7677 26.9251 30.7657L26.9618 30.7506L26.965 30.7484L37.7694 24.5097L37.7737 24.5076C37.7751 24.5067 37.777 24.5055 37.7791 24.5043L37.7877 24.5L37.7866 24.4989L37.7984 24.4925L39.8114 23.33C39.845 23.3107 39.8706 23.2809 39.8838 23.2469L39.8925 23.2113V23.2102L39.9151 22.9932C39.9772 22.1595 39.9953 19.122 37.3441 16.4211L37.0386 16.122C36.9886 16.0751 36.9164 16.0649 36.8562 16.0918Z" fill="#373A3E"/>
<path d="M37.5848 24.2302C37.5857 24.2297 37.5882 24.2283 37.5923 24.2259C37.5947 24.2245 37.5972 24.2225 37.5988 24.2216L37.6009 24.2205L37.602 24.2194L39.5201 23.113L39.5708 23.0839L39.5751 23.0246L39.5913 22.6511C39.6028 21.5265 39.3436 18.7388 36.8098 16.3649L36.772 16.3109C36.7457 16.2516 36.755 16.1801 36.8012 16.1307L36.8562 16.0918C36.9164 16.0649 36.9886 16.0751 37.0386 16.122L37.3441 16.4211C39.9953 19.122 39.9772 22.1595 39.9151 22.9932L39.8925 23.2102V23.2113L39.8838 23.2469C39.8706 23.2809 39.845 23.3107 39.8114 23.33L37.7984 24.4925L37.7866 24.4989L37.7877 24.5L37.7791 24.5043C37.777 24.5055 37.7751 24.5067 37.7737 24.5076L37.7694 24.5097L26.965 30.7484L26.9618 30.7506L26.9251 30.7657C26.9171 30.7677 26.9087 30.7681 26.9002 30.7689H26.8787C26.8204 30.7689 26.7653 30.7392 26.7351 30.6869C26.6894 30.6059 26.7163 30.505 26.7965 30.4581L37.5728 24.2377L37.5848 24.2302ZM37.5848 24.2302L37.5178 24.1406" stroke="#373A3E" stroke-width="0.216"/>
<path d="M36.9251 10.3633C36.833 10.3633 36.7578 10.4384 36.7578 10.5306V16.2436C36.758 16.3356 36.8332 16.4099 36.9251 16.4099C37.0172 16.4099 37.0923 16.3356 37.0925 16.2436V10.5306C37.0925 10.4384 37.0173 10.3633 36.9251 10.3633Z" fill="#373A3E" stroke="#373A3E" stroke-width="0.216"/>
<path d="M34.7702 25.8828C34.6781 25.8828 34.6029 25.958 34.6029 26.05V27.7933L34.5479 27.8256L23.2363 34.3579L23.0689 34.454V28.3081C23.0688 28.216 22.9937 28.1408 22.9016 28.1408C22.8096 28.1409 22.7345 28.2161 22.7344 28.3081V34.7444C22.7344 34.7897 22.7526 34.8326 22.7829 34.8631L22.8175 34.8889C22.8434 34.904 22.8731 34.9116 22.8995 34.9116H22.9038C22.918 34.9116 22.9321 34.91 22.9459 34.9062L22.9858 34.8889L34.8545 28.0361L34.8556 28.035L34.8901 28.0091C34.9198 27.9789 34.9376 27.9364 34.9376 27.8915V26.05C34.9376 25.958 34.8624 25.8828 34.7702 25.8828Z" fill="#373A3E" stroke="#373A3E" stroke-width="0.216"/>
<path d="M6.57227 33.5811V36.0767C6.57227 36.5287 6.87589 36.9786 7.48315 37.3247C8.69572 38.0129 10.6616 38.0129 11.8742 37.3247C12.4814 36.9805 12.7831 36.5287 12.7831 36.0767V33.5811C12.7831 34.0329 12.4795 34.4828 11.8742 34.827C10.6616 35.5153 8.69572 35.5153 7.48315 34.827C6.87589 34.4828 6.57227 34.031 6.57227 33.5811Z" fill="#FFD100"/>
<path d="M6.57227 31.082V33.5816C6.57227 34.0335 6.87589 34.4835 7.48315 34.8275C8.69572 35.5158 10.6616 35.5158 11.8742 34.8275C12.4814 34.4835 12.7831 34.0316 12.7831 33.5816V31.082C12.7831 31.534 12.4795 31.9858 11.8742 32.3319C10.6616 33.02 8.69572 33.02 7.48315 32.3319C6.87589 31.9858 6.57227 31.5359 6.57227 31.082Z" fill="#FFD100"/>
<path d="M6.57227 28.584V31.0817C6.57227 31.5336 6.87589 31.9854 7.48315 32.3315C8.69572 33.0197 10.6616 33.0197 11.8742 32.3315C12.4814 31.9854 12.7831 31.5355 12.7831 31.0817V28.584C12.7831 29.0359 12.4795 29.4878 11.8742 29.8319C10.6616 30.5221 8.69572 30.5221 7.48315 29.8319C6.87589 29.4878 6.57227 29.0359 6.57227 28.584Z" fill="#FFD100"/>
<path d="M6.57227 26.0879V28.5837C6.57227 29.0356 6.87589 29.4875 7.48315 29.8316C8.69572 30.5218 10.6616 30.5218 11.8742 29.8316C12.4814 29.4875 12.7831 29.0356 12.7831 28.5837V26.0879C12.7831 26.5398 12.4795 26.9898 11.8742 27.3358C10.6616 28.0241 8.69572 28.0241 7.48315 27.3358C6.87589 26.9917 6.57227 26.5398 6.57227 26.0879Z" fill="#FFD100"/>
<path d="M6.57227 23.5889V26.0865C6.57227 26.5384 6.87589 26.9883 7.48315 27.3344C8.69572 28.0226 10.6616 28.0226 11.8742 27.3344C12.4814 26.9903 12.7831 26.5384 12.7831 26.0865V23.5889C12.7831 24.0426 12.4795 24.4926 11.8742 24.8367C10.6616 25.525 8.69572 25.525 7.48315 24.8367C6.87589 24.4926 6.57227 24.0407 6.57227 23.5889Z" fill="#FFD100"/>
<path d="M6.57227 21.0928V23.5904C6.57227 24.0443 6.87589 24.4942 7.48315 24.8383C8.69572 25.5265 10.6616 25.5265 11.8742 24.8383C12.4814 24.4942 12.7831 24.0424 12.7831 23.5904V21.0928C12.7831 21.5447 12.4795 21.9947 11.8742 22.3406C10.6616 23.0289 8.69572 23.0289 7.48315 22.3406C6.87589 21.9965 6.57227 21.5447 6.57227 21.0928Z" fill="#FFD100"/>
<path d="M6.57227 19.4165V21.0936C6.57227 21.5454 6.87589 21.9955 7.48315 22.3414C8.69572 23.0297 10.6616 23.0297 11.8742 22.3414C12.4814 21.9974 12.7831 21.5454 12.7831 21.0936V18.6318C12.7831 19.0837 12.4795 19.5337 11.8742 19.8797C10.6616 20.5679 8.69572 20.5679 7.48315 19.8797C6.87589 19.5356 6.57227 19.0837 6.57227 18.6318V19.4165Z" fill="#FFD100"/>
<path d="M7.48315 17.3834C6.87589 17.7276 6.57227 18.1794 6.57227 18.6313C6.57227 19.0832 6.87589 19.5332 7.48315 19.8792C8.69572 20.5674 10.6616 20.5674 11.8742 19.8792C12.4814 19.5351 12.7831 19.0832 12.7831 18.6313C12.7831 18.1794 12.4795 17.7294 11.8742 17.3834C10.6616 16.6951 8.69572 16.6951 7.48315 17.3834Z" fill="#F9BCA0"/>
<path d="M9.68046 16.6758C8.95466 16.6758 8.23221 16.8166 7.63508 17.0946L7.38683 17.2219C6.72487 17.5972 6.38109 18.1017 6.38086 18.6315C6.38086 19.0954 6.64389 19.5391 7.15368 19.8955L7.38683 20.0423C8.02425 20.4046 8.84866 20.5861 9.67938 20.5863C10.5081 20.5861 11.3325 20.4046 11.9719 20.0423C12.6345 19.6647 12.9779 19.1616 12.9779 18.6315C12.9777 18.1679 12.7145 17.7249 12.2062 17.3687L11.973 17.2219C11.3344 16.8596 10.5097 16.6758 9.68046 16.6758ZM9.6783 17.0513C10.3397 17.0513 11.0036 17.1769 11.551 17.4302L11.7776 17.5468C12.2832 17.8353 12.5912 18.216 12.5915 18.6315C12.5915 18.9956 12.3547 19.3333 11.9568 19.6052L11.7766 19.7174C11.1927 20.049 10.4312 20.2128 9.67615 20.2128C9.01543 20.2127 8.35085 20.0874 7.80454 19.834L7.57894 19.7174C7.07353 19.429 6.76295 19.0476 6.76295 18.6315C6.76318 18.2675 7.00068 17.9308 7.3987 17.659L7.57787 17.5468C8.16082 17.2153 8.92266 17.0513 9.6783 17.0513Z" fill="#373A3E" stroke="#373A3E" stroke-width="0.194"/>
<path d="M12.7839 18.4443C12.676 18.4443 12.5918 18.5298 12.5918 18.6321V36.0778C12.5918 36.1802 12.676 36.2656 12.7839 36.2656C12.8918 36.2656 12.976 36.1802 12.9761 36.0778V18.6321C12.9761 18.5298 12.8918 18.4444 12.7839 18.4443Z" fill="#373A3E" stroke="#373A3E" stroke-width="0.194"/>
<path d="M6.57103 35.8877C6.46312 35.8877 6.37891 35.973 6.37891 36.0755C6.37901 36.5391 6.64211 36.982 7.15173 37.3384L7.38486 37.4851C8.02264 37.8477 8.84764 38.0323 9.6785 38.0323C10.4036 38.0323 11.1251 37.8907 11.7228 37.6125L11.9711 37.4851C12.6333 37.1078 12.9758 36.6056 12.9759 36.0755C12.9759 35.9731 12.8917 35.8877 12.7838 35.8877C12.6759 35.8877 12.5917 35.973 12.5917 36.0755C12.5916 36.4393 12.3547 36.7762 11.957 37.048L11.7768 37.1613C11.193 37.4928 10.4312 37.6557 9.67635 37.6557C9.01559 37.6556 8.35109 37.5303 7.80474 37.2768L7.57807 37.1613C7.07247 36.8729 6.76328 36.4915 6.76315 36.0755C6.76315 35.9731 6.67891 35.8877 6.57103 35.8877Z" fill="#373A3E" stroke="#373A3E" stroke-width="0.194"/>
<path d="M6.57299 20.9053C6.46508 20.9053 6.38086 20.9907 6.38086 21.0932C6.38096 21.5568 6.64407 21.9997 7.15368 22.3559L7.38683 22.5027C8.02425 22.8651 8.84866 23.0466 9.67938 23.0467C10.5081 23.0466 11.3325 22.8651 11.9719 22.5027C12.6344 22.1253 12.9778 21.623 12.9779 21.0932C12.9779 20.9907 12.8937 20.9054 12.7858 20.9053C12.6779 20.9053 12.5936 20.9907 12.5936 21.0932C12.5935 21.457 12.3566 21.7939 11.959 22.0656L11.7787 22.1779L11.7776 22.179C11.1938 22.5095 10.4331 22.6723 9.6783 22.6723C9.0176 22.6721 8.35302 22.5471 7.80669 22.2945L7.58003 22.179C7.07469 21.8906 6.76524 21.5091 6.76512 21.0932C6.76512 20.9907 6.68086 20.9054 6.57299 20.9053Z" fill="#373A3E" stroke="#373A3E" stroke-width="0.194"/>
<path d="M6.57103 23.4014C6.46312 23.4014 6.37891 23.4868 6.37891 23.5892C6.37901 24.0545 6.64238 24.497 7.15173 24.852L7.38486 24.9988C8.02264 25.3613 8.84743 25.546 9.67635 25.546H9.6785C10.4036 25.546 11.1251 25.4043 11.7228 25.1262L11.9711 24.9988C12.633 24.6235 12.9758 24.1193 12.9759 23.5892C12.9759 23.4868 12.8917 23.4014 12.7838 23.4014C12.6759 23.4014 12.5917 23.4868 12.5917 23.5892C12.5916 23.9548 12.3548 24.2921 11.9581 24.5628L11.7779 24.6751C11.1941 25.0064 10.4336 25.1693 9.6785 25.1693C9.01766 25.1693 8.35286 25.0438 7.80581 24.7905L7.57807 24.6751C7.07217 24.3884 6.76328 24.0051 6.76315 23.5892C6.76315 23.4868 6.67891 23.4014 6.57103 23.4014Z" fill="#373A3E" stroke="#373A3E" stroke-width="0.194"/>
<path d="M6.57299 25.9014C6.46508 25.9014 6.38086 25.9868 6.38086 26.0892C6.38096 26.5528 6.64407 26.9957 7.15368 27.352L7.38683 27.4988C8.02425 27.8611 8.84866 28.0427 9.67938 28.0428C10.5081 28.0427 11.3325 27.8612 11.9719 27.4988C12.6344 27.1214 12.9778 26.6191 12.9779 26.0892C12.9779 25.9868 12.8937 25.9014 12.7858 25.9014C12.6779 25.9014 12.5936 25.9868 12.5936 26.0892C12.5935 26.4531 12.3566 26.79 11.959 27.0617L11.7787 27.175C11.1949 27.5054 10.4331 27.6682 9.6783 27.6682C9.0176 27.6682 8.35302 27.5432 7.80669 27.2905L7.58003 27.175C7.07442 26.8866 6.76524 26.5053 6.76512 26.0892C6.76512 25.9868 6.68086 25.9014 6.57299 25.9014Z" fill="#373A3E" stroke="#373A3E" stroke-width="0.194"/>
<path d="M6.57103 28.3965C6.46312 28.3965 6.37891 28.4819 6.37891 28.5844C6.37901 29.0497 6.64238 29.4922 7.15173 29.8471L7.38486 29.994C8.02264 30.3564 8.84743 30.5412 9.67635 30.5412H9.6785C10.4036 30.5411 11.1251 30.3994 11.7228 30.1214L11.9711 29.994C12.6331 29.6186 12.9758 29.1163 12.9759 28.5844C12.9759 28.4819 12.8917 28.3966 12.7838 28.3965C12.6759 28.3965 12.5917 28.4819 12.5917 28.5844C12.5916 28.9499 12.3561 29.2871 11.9581 29.5579L11.7779 29.6702C11.1941 30.0025 10.4336 30.1656 9.6785 30.1656C9.01778 30.1656 8.35281 30.0407 7.80581 29.7868L7.57807 29.6702C7.07228 29.3835 6.76328 29.0022 6.76315 28.5844C6.76315 28.4819 6.67891 28.3966 6.57103 28.3965Z" fill="#373A3E" stroke="#373A3E" stroke-width="0.194"/>
<path d="M6.57103 30.8926C6.46312 30.8926 6.37891 30.978 6.37891 31.0804C6.37901 31.5442 6.64209 31.9888 7.15173 32.3454L7.38486 32.4922C8.02262 32.8548 8.84955 33.0394 9.6785 33.0394C10.4036 33.0394 11.1252 32.8976 11.7228 32.6196L11.9711 32.4922C12.6332 32.1149 12.9758 31.6106 12.9759 31.0804C12.9759 30.978 12.8917 30.8926 12.7838 30.8926C12.6759 30.8926 12.5917 30.978 12.5917 31.0804C12.5916 31.4442 12.3549 31.7829 11.957 32.0551L11.7768 32.1673C11.1929 32.4989 10.4313 32.6628 9.67635 32.6628C9.01563 32.6627 8.35107 32.5373 7.80474 32.2839L7.57807 32.1673C7.07256 31.8789 6.76328 31.4982 6.76315 31.0804C6.76315 30.978 6.67891 30.8927 6.57103 30.8926Z" fill="#373A3E" stroke="#373A3E" stroke-width="0.194"/>
<path d="M6.57103 33.3916C6.46312 33.3916 6.37891 33.4769 6.37891 33.5794C6.37901 34.0432 6.64209 34.4861 7.15173 34.8412L7.38486 34.9868C8.02264 35.3494 8.84743 35.534 9.67635 35.534H9.6785C10.4035 35.534 11.1252 35.3933 11.7228 35.1153L11.9711 34.9868C12.6332 34.6115 12.9758 34.1095 12.9759 33.5794C12.9759 33.477 12.8917 33.3916 12.7838 33.3916C12.6759 33.3916 12.5917 33.4769 12.5917 33.5794C12.5916 33.9432 12.3547 34.2802 11.9581 34.5508L11.7779 34.6631C11.1941 34.9946 10.4336 35.1574 9.6785 35.1574C9.01779 35.1574 8.3528 35.0328 7.80581 34.7796L7.57807 34.6631C7.07245 34.3765 6.76328 33.9954 6.76315 33.5794C6.76315 33.477 6.67891 33.3916 6.57103 33.3916Z" fill="#373A3E" stroke="#373A3E" stroke-width="0.194"/>
<path d="M6.57103 18.4443C6.46312 18.4443 6.37891 18.5298 6.37891 18.6321V36.0778C6.37894 36.1802 6.46315 36.2656 6.57103 36.2656C6.67889 36.2656 6.76312 36.1802 6.76315 36.0778V18.6321C6.76315 18.5298 6.67891 18.4444 6.57103 18.4443Z" fill="#373A3E" stroke="#373A3E" stroke-width="0.194"/>
<path d="M11.4023 36.8457V39.3415C11.4023 39.7934 11.706 40.2453 12.3132 40.5895C13.5258 41.2796 15.4917 41.2796 16.7043 40.5895C17.3115 40.2453 17.6132 39.7934 17.6132 39.3415V36.8457C17.6132 37.2958 17.3095 37.7476 16.7043 38.0937C15.4917 38.7819 13.5258 38.7819 12.3132 38.0937C11.706 37.7495 11.4023 37.2976 11.4023 36.8457Z" fill="#FFD100"/>
<path d="M11.4023 34.3477V36.8453C11.4023 37.2953 11.706 37.7472 12.3132 38.0932C13.5258 38.7814 15.4917 38.7814 16.7043 38.0932C17.3115 37.7491 17.6132 37.2972 17.6132 36.8453V34.3477C17.6132 34.8014 17.3095 35.2514 16.7043 35.5955C15.4917 36.2837 13.5258 36.2837 12.3132 35.5955C11.706 35.2514 11.4023 34.7995 11.4023 34.3477Z" fill="#FFD100"/>
<path d="M11.4023 31.8506V34.3483C11.4023 34.8021 11.706 35.252 12.3132 35.5961C13.5258 36.2843 15.4917 36.2843 16.7043 35.5961C17.3115 35.252 17.6132 34.8001 17.6132 34.3483V31.8506C17.6132 32.3024 17.3095 32.7525 16.7043 33.0984C15.4917 33.7867 13.5258 33.7867 12.3132 33.0984C11.706 32.7544 11.4023 32.3024 11.4023 31.8506Z" fill="#FFD100"/>
<path d="M11.4023 30.1733V31.8504C11.4023 32.3024 11.706 32.7523 12.3132 33.0984C13.5258 33.7865 15.4917 33.7865 16.7043 33.0984C17.3115 32.7542 17.6132 32.3024 17.6132 31.8504V29.3887C17.6132 29.8406 17.3095 30.2906 16.7043 30.6366C15.4917 31.3248 13.5258 31.3248 12.3132 30.6366C11.706 30.2924 11.4023 29.8406 11.4023 29.3887V30.1733Z" fill="#FFD100"/>
<path d="M12.3132 28.1431C11.706 28.4872 11.4023 28.9391 11.4023 29.391C11.4023 29.8429 11.706 30.2929 12.3132 30.6389C13.5258 31.3272 15.4917 31.3272 16.7043 30.6389C17.3115 30.2948 17.6132 29.8429 17.6132 29.391C17.6132 28.9391 17.3095 28.4891 16.7043 28.1431C15.4917 27.4549 13.5258 27.4549 12.3132 28.1431Z" fill="#F9BCA0"/>
<path d="M14.5105 27.4346C13.7847 27.4346 13.0623 27.5754 12.4651 27.8534L12.2169 27.9808C11.555 28.3561 11.2112 28.8605 11.2109 29.3904C11.2109 29.8542 11.474 30.298 11.9838 30.6543L12.2169 30.8011C12.8543 31.1634 13.6787 31.345 14.5094 31.3451C15.3381 31.345 16.1626 31.1635 16.8021 30.8011H16.801C17.4635 30.4236 17.808 29.9204 17.808 29.3904C17.8077 28.9268 17.5446 28.4838 17.0363 28.1276L16.8031 27.9808C16.1644 27.6184 15.3398 27.4347 14.5105 27.4346ZM14.5084 27.8102C15.1698 27.8102 15.8336 27.9357 16.3811 28.1891L16.6078 28.3056C17.1133 28.5941 17.4213 28.9748 17.4216 29.3904C17.4216 29.7545 17.1848 30.0922 16.7869 30.364L16.6067 30.4763C16.0227 30.8068 15.2612 30.9695 14.5062 30.9695C13.8459 30.9694 13.1818 30.8453 12.6357 30.5929L12.409 30.4763C11.9036 30.1878 11.593 29.8065 11.593 29.3904C11.5933 29.0264 11.8307 28.6897 12.2288 28.4179L12.4079 28.3056C12.9909 27.974 13.7527 27.8102 14.5084 27.8102Z" fill="#373A3E" stroke="#373A3E" stroke-width="0.194"/>
<path d="M11.4031 31.6631C11.2951 31.6631 11.2109 31.7485 11.2109 31.851C11.211 32.3146 11.4741 32.7575 11.9838 33.1137L12.2169 33.2606C12.8543 33.6229 13.6787 33.8044 14.5094 33.8045C15.3381 33.8044 16.1626 33.6229 16.8021 33.2606H16.801C17.4633 32.8832 17.8079 32.3808 17.808 31.851C17.808 31.7485 17.7237 31.6632 17.6159 31.6631C17.5079 31.6631 17.4238 31.7485 17.4238 31.851C17.4236 32.2148 17.1867 32.5517 16.789 32.8235L16.6088 32.9357L16.6078 32.9368C16.024 33.2673 15.2632 33.4301 14.5084 33.4301C13.8477 33.4301 13.1831 33.305 12.6368 33.0523L12.4101 32.9368V32.9357C11.9048 32.6473 11.5953 32.2669 11.5952 31.851C11.5952 31.7485 11.5109 31.6632 11.4031 31.6631Z" fill="#373A3E" stroke="#373A3E" stroke-width="0.194"/>
<path d="M11.4011 34.1611C11.2932 34.1611 11.209 34.2466 11.209 34.3489C11.2091 34.8142 11.4725 35.2569 11.9818 35.6118L12.215 35.7586C12.8527 36.1211 13.6775 36.3058 14.5064 36.3058H14.5086C15.2337 36.3058 15.9552 36.1641 16.5529 35.886L16.8012 35.7586C17.4631 35.3832 17.806 34.8791 17.8061 34.3489C17.8061 34.2466 17.7217 34.1611 17.6139 34.1611C17.506 34.1611 17.4218 34.2466 17.4218 34.3489C17.4217 34.7145 17.1849 35.0519 16.7882 35.3225L16.608 35.4348C16.0242 35.7662 15.2636 35.9291 14.5086 35.9291C13.8478 35.9291 13.1829 35.8036 12.6359 35.5503L12.4082 35.4348C11.9023 35.1481 11.5934 34.7648 11.5932 34.3489C11.5932 34.2466 11.509 34.1611 11.4011 34.1611Z" fill="#373A3E" stroke="#373A3E" stroke-width="0.194"/>
<path d="M11.4031 36.6592C11.2951 36.6592 11.2109 36.7446 11.2109 36.847C11.211 37.3106 11.4741 37.7535 11.9838 38.1098L12.2169 38.2566C12.8543 38.6189 13.6787 38.8005 14.5094 38.8006C15.3381 38.8005 16.1626 38.619 16.8021 38.2566H16.801C17.4633 37.8792 17.8079 37.3769 17.808 36.847C17.808 36.7446 17.7237 36.6592 17.6159 36.6592C17.5079 36.6592 17.4238 36.7446 17.4238 36.847C17.4236 37.2109 17.1867 37.5478 16.789 37.8195L16.6088 37.9318L16.6078 37.9328C16.024 38.2632 15.2632 38.4261 14.5084 38.4261C13.8477 38.4261 13.1831 38.301 12.6368 38.0483L12.4101 37.9328C11.9048 37.6444 11.5953 37.263 11.5952 36.847C11.5952 36.7446 11.5109 36.6592 11.4031 36.6592Z" fill="#373A3E" stroke="#373A3E" stroke-width="0.194"/>
<path d="M11.4011 29.2012C11.2932 29.2012 11.209 29.2865 11.209 29.389V39.3417C11.2091 39.8071 11.4725 40.2496 11.9818 40.6045L12.215 40.7514C12.8527 41.1139 13.6775 41.2986 14.5064 41.2986H14.5086C15.2336 41.2986 15.9553 41.1578 16.5529 40.8798L16.8012 40.7514C17.4632 40.3759 17.806 39.8738 17.8061 39.3417V29.389C17.8061 29.2866 17.7217 29.2012 17.6139 29.2012C17.506 29.2012 17.4218 29.2865 17.4218 29.389V39.3417C17.4217 39.7073 17.1862 40.0445 16.7882 40.3153L16.608 40.4276C16.0242 40.759 15.2636 40.9218 14.5086 40.9219C13.8479 40.9219 13.1829 40.7974 12.6359 40.5442L12.4082 40.4276C11.9023 40.1408 11.5933 39.7595 11.5932 39.3417V29.389C11.5932 29.2866 11.509 29.2012 11.4011 29.2012Z" fill="#373A3E" stroke="#373A3E" stroke-width="0.194"/>
</svg>
