<svg width="44" height="40" viewBox="0 0 44 40" fill="none" xmlns="http://www.w3.org/2000/svg">
<path d="M8 2H44V38H8V2Z" fill="white"/>
<path d="M35.2595 29.3125C35.7975 29.6305 36.2575 30.0625 36.6025 30.7285C36.9795 31.4535 37.2275 32.4695 37.2825 33.9435L37.2525 33.9295L37.2915 34.3315C37.3165 34.5855 37.2035 34.8575 36.8785 35.0945L36.7265 35.1935L33.3435 37.1475C32.5755 37.5905 31.4195 37.6075 30.4365 37.3205C29.9505 37.1785 29.5245 36.9665 29.2265 36.7125C28.9645 36.4905 28.8135 36.2505 28.7795 36.0075L28.7715 35.9025V35.8775L28.7785 35.3175C28.8025 34.2415 28.8905 33.4145 29.0565 32.7485L29.1465 32.4285C29.4785 31.3565 30.0585 30.7045 31.0275 30.0045C31.5269 30.4782 32.1891 30.7421 32.8775 30.7415C33.3668 30.7414 33.847 30.6083 34.2665 30.3564C34.6861 30.1045 35.0293 29.7444 35.2595 29.3125Z" fill="#EE7777" stroke="#373A3E" stroke-width="0.45"/>
<path d="M32.876 25.2275C33.231 25.2271 33.581 25.3108 33.8973 25.4718C34.2137 25.6327 34.4875 25.8663 34.6961 26.1535C34.9048 26.4406 35.0425 26.7731 35.098 27.1237C35.1534 27.4743 35.1249 27.833 35.015 28.1705L34.952 28.3405C34.8135 28.6715 34.5978 28.9655 34.323 29.1962C34.0483 29.4269 33.7223 29.5885 33.3723 29.6676C33.0224 29.7466 32.6586 29.7409 32.3113 29.6508C31.964 29.5606 31.6434 29.3888 31.376 29.1495L31.213 28.9885C30.8341 28.5762 30.6242 28.0365 30.625 27.4765L30.635 27.2785V27.2765C30.6845 26.7166 30.9422 26.1955 31.357 25.8162C31.7719 25.4369 32.3139 25.2269 32.876 25.2275Z" fill="#F5F9FF" stroke="#373A3E" stroke-width="0.45"/>
<path d="M39.377 16.443V16.449C39.377 17.879 38.791 19.309 37.614 20.605C37.545 12.157 30.892 6.37096 25.901 5.86496C26.141 5.43096 25.964 4.93796 25.37 4.59396C24.946 4.34796 24.39 4.22496 23.834 4.22496V3.70996C33.725 3.70996 39.376 10.588 39.377 16.443Z" fill="#66A3FF"/>
<path d="M37.6154 20.6043C36.9004 21.3913 35.9724 22.1323 34.8284 22.7933C34.0204 23.2593 33.1434 23.6633 32.2184 24.0063C32.2014 15.4343 28.6024 9.6103 24.9844 6.5413C25.1224 6.4913 25.2524 6.4343 25.3704 6.3653C25.6224 6.2183 25.8004 6.0453 25.9014 5.8623C30.8934 6.3693 37.5464 12.1553 37.6154 20.6043Z" fill="#BFE9FD"/>
<path d="M24.856 25.404C24.514 25.415 24.176 25.423 23.834 25.423V6.73202C24.235 6.73202 24.634 6.66902 24.984 6.54102C28.6 9.60802 32.201 15.434 32.218 24.006C29.968 24.84 27.429 25.306 24.856 25.404Z" fill="#66A3FF"/>
<path d="M22.8113 25.404C20.2383 25.306 17.6983 24.84 15.4473 24.006C15.4673 15.434 19.0633 9.61002 22.6813 6.54102C23.0333 6.66702 23.4343 6.73102 23.8353 6.73102V25.423C23.4933 25.423 23.1533 25.418 22.8113 25.404Z" fill="#BFE9FD"/>
<path d="M23.8341 3.70803V4.22403C23.2791 4.22403 22.7211 4.34603 22.2971 4.59203C21.7011 4.93603 21.5231 5.42703 21.7661 5.86103H21.7641C16.7721 6.36903 10.1211 12.155 10.0521 20.604C8.87411 19.307 8.28711 17.878 8.28711 16.447C8.28711 10.592 13.9391 3.70803 23.8341 3.70803Z" fill="#DAFFEC"/>
<path d="M22.8674 32.0864L22.7754 25.3984H24.9214V31.8484L23.6374 32.7454L22.8674 32.0864Z" fill="white"/>
<path d="M24.7463 31.7236C24.6343 32.6486 24.2903 33.6116 23.7823 34.4836C23.2053 35.4746 22.4233 36.3406 21.5493 36.8946L21.3733 37.0016C20.7683 37.3516 20.1533 37.5276 19.5853 37.5276C19.1973 37.5276 18.8303 37.4476 18.4993 37.2836L18.3593 37.2086C17.5233 36.7286 17.0293 35.7426 17.0293 34.4946V33.3146C17.0372 33.0739 17.1384 32.8457 17.3115 32.6782C17.4845 32.5107 17.7159 32.4171 17.9568 32.4171C18.1976 32.4171 18.4291 32.5107 18.6021 32.6782C18.7752 32.8457 18.8764 33.0739 18.8843 33.3146V34.4946C18.8843 34.7566 18.9193 34.9926 18.9843 35.1826C19.0493 35.3696 19.1493 35.5236 19.2873 35.6026C19.4243 35.6826 19.6073 35.6906 19.8013 35.6526C19.9483 35.6246 20.1103 35.5676 20.2763 35.4856L20.4443 35.3956C21.1243 35.0036 21.7463 34.3156 22.1963 33.5356C22.5203 32.9746 22.7563 32.3606 22.8663 31.7686C22.9213 31.8956 22.9943 32.0006 23.0833 32.0816C23.2963 32.2766 23.5783 32.3236 23.8503 32.2756C24.2062 32.2067 24.5247 32.0105 24.7463 31.7236Z" fill="#373A3E" stroke="#373A3E" stroke-width="0.194"/>
<path d="M22.2967 6.36723C22.4157 6.43623 22.5437 6.49323 22.6807 6.54323C19.0647 9.61023 15.4657 15.4362 15.4467 24.0082C14.5452 23.6779 13.6731 23.2721 12.8397 22.7952C11.6937 22.1342 10.7627 21.3932 10.0527 20.6052C10.1207 12.1572 16.7727 6.37123 21.7637 5.86523H21.7657C21.8657 6.04523 22.0427 6.22223 22.2967 6.36723Z" fill="#66A3FF"/>
<path d="M23.8356 4.03516C24.3766 4.03516 24.8876 4.14416 25.2986 4.33916L25.4686 4.42916C25.8126 4.62716 26.0366 4.87916 26.1386 5.14216C26.1829 5.25589 26.2043 5.37731 26.2014 5.49936C26.1985 5.62141 26.1713 5.74167 26.1216 5.85316L26.0716 5.95616C25.9695 6.13117 25.8315 6.28251 25.6666 6.40016L25.4696 6.53216C25.4081 6.56832 25.3447 6.60104 25.2796 6.63016L25.0536 6.72216H25.0526C24.6926 6.85216 24.2796 6.92216 23.8576 6.92316H23.8336C23.5136 6.92316 23.1956 6.88416 22.9016 6.80916L22.6166 6.72216C22.4729 6.67125 22.334 6.60766 22.2016 6.53216C21.9808 6.41135 21.7919 6.24128 21.6476 6.03516L21.5976 5.95516C21.526 5.83318 21.483 5.69558 21.4717 5.55461C21.4605 5.41364 21.4813 5.27195 21.5326 5.14016C21.6226 4.91016 21.8046 4.69016 22.0786 4.50516L22.2026 4.42816C22.6366 4.17716 23.2166 4.03516 23.8356 4.03516ZM23.8336 4.41516C23.3566 4.41516 22.9046 4.50616 22.5426 4.67916L22.3926 4.75916C22.2344 4.84718 22.0954 4.96582 21.9836 5.10816C21.9172 5.19533 21.8739 5.29781 21.8576 5.40616C21.8462 5.4975 21.8575 5.59024 21.8906 5.67616L21.9336 5.76916C22.0016 5.89316 22.1096 6.00616 22.2466 6.10616L22.3936 6.20216C22.4476 6.23216 22.5056 6.26216 22.5636 6.28916L22.7436 6.36316H22.7456C23.3665 6.56935 24.0331 6.59604 24.6686 6.44016L24.9206 6.36316C25.0606 6.31216 25.1746 6.26316 25.2736 6.20316C25.4306 6.10916 25.5626 6.00216 25.6546 5.88816L25.7346 5.77116C25.7944 5.66879 25.8217 5.55061 25.8128 5.43236C25.8038 5.31411 25.7591 5.20137 25.6846 5.10916C25.5723 4.96585 25.4321 4.84678 25.2726 4.75916C24.9106 4.55116 24.4366 4.43216 23.9296 4.41916V4.41516H23.8336Z" fill="#373A3E" stroke="#373A3E" stroke-width="0.194"/>
<path d="M23.8337 3.5166C33.5707 3.5166 39.5657 10.2416 39.5697 16.4416L39.5617 16.7216C39.4937 18.0306 38.9517 19.3186 37.9737 20.4816L37.7577 20.7306C37.1057 21.4486 36.2947 22.1106 35.3417 22.7056L34.9247 22.9556C34.3247 23.3016 33.6757 23.6206 32.9877 23.9076L32.2877 24.1836C30.2117 24.9536 27.8247 25.4306 25.3587 25.5696L24.8647 25.5926C24.5397 25.6056 24.2027 25.6126 23.8347 25.6126H23.7937C23.6237 25.6126 23.4607 25.6126 23.3027 25.6096L22.8047 25.5946C20.3287 25.4996 17.9157 25.0656 15.8007 24.3346L15.3807 24.1846C14.5792 23.8895 13.8001 23.5366 13.0497 23.1286L12.7447 22.9586C11.7477 22.3816 10.8937 21.7366 10.1977 21.0366L9.9097 20.7326C8.7197 19.4166 8.0957 17.9356 8.0957 16.4466C8.0957 10.2446 14.0967 3.5166 23.8337 3.5166ZM23.8337 3.9006C14.3667 3.9006 8.4777 10.3976 8.4777 16.4486C8.4777 17.7606 9.0017 19.0686 9.9887 20.2426L10.1917 20.4766C10.8187 21.1696 11.6047 21.8096 12.5287 22.3866L12.9347 22.6286C13.5227 22.9676 14.1567 23.2786 14.8277 23.5586L15.5117 23.8266C17.5557 24.5846 19.9037 25.0536 22.3317 25.1916L22.8167 25.2146H22.8177C23.4951 25.2392 24.1733 25.2392 24.8507 25.2146C27.2847 25.1206 29.6567 24.6946 31.7397 23.9756L32.1527 23.8276C32.9379 23.5386 33.7012 23.1933 34.4367 22.7946L34.7327 22.6286C35.6957 22.0736 36.5207 21.4486 37.1947 20.7706L37.4747 20.4766C38.5907 19.2466 39.1877 17.8516 39.1877 16.4486C39.1877 10.3956 33.2997 3.9006 23.8337 3.9006Z" fill="#373A3E" stroke="#373A3E" stroke-width="0.194"/>
<path d="M21.7454 5.6727C21.7889 5.66864 21.8325 5.67963 21.8689 5.70383C21.9053 5.72804 21.9323 5.76399 21.9454 5.8057L21.9534 5.8427C21.9575 5.88649 21.9466 5.93038 21.9224 5.96712C21.8982 6.00385 21.8622 6.03123 21.8204 6.0447L21.7834 6.0517C19.4374 6.2887 16.5704 7.7747 14.2834 10.2727C11.7881 12.9896 10.3565 16.5153 10.2514 20.2027L10.2434 20.6047C10.2434 20.7087 10.1564 20.7947 10.0524 20.7947H10.0504C10.0252 20.7946 10.0004 20.7895 9.97725 20.7797C9.95412 20.7699 9.93316 20.7556 9.91558 20.7376C9.898 20.7197 9.88416 20.6984 9.87485 20.6751C9.86554 20.6518 9.86095 20.6268 9.86135 20.6017C9.87391 16.6701 11.3621 12.8864 14.0314 9.9997C16.2484 7.5917 18.9834 6.1087 21.2894 5.7327L21.7454 5.6727ZM25.9204 5.6727C28.3154 5.9147 31.2703 7.4307 33.6353 9.9997C36.2087 12.7817 37.6873 16.4016 37.7974 20.1897L37.8054 20.6017C37.8057 20.6268 37.8012 20.6518 37.7919 20.6751C37.7825 20.6984 37.7687 20.7197 37.7511 20.7376C37.7335 20.7556 37.7126 20.7699 37.6895 20.7797C37.6663 20.7895 37.6415 20.7946 37.6164 20.7947H37.6143C37.5708 20.7945 37.5286 20.7795 37.4947 20.752C37.4609 20.7245 37.4375 20.6863 37.4284 20.6437L37.4234 20.6037C37.3874 16.2927 35.6734 12.7737 33.3834 10.2737C31.2383 7.9317 28.5854 6.4787 26.3274 6.1107L25.8824 6.0507C25.8388 6.04631 25.797 6.02699 25.766 5.99601C25.7351 5.96503 25.7157 5.92429 25.7114 5.8807V5.8427C25.7161 5.79925 25.7355 5.75871 25.7664 5.7278C25.7974 5.69689 25.8379 5.67745 25.8814 5.6727H25.9204ZM22.5584 6.3947C22.5917 6.36638 22.6337 6.35041 22.6775 6.3495C22.7212 6.34859 22.7639 6.36279 22.7984 6.3897L22.8254 6.4167C22.8854 6.4867 22.8864 6.5887 22.8314 6.6567L22.8054 6.6847L22.8044 6.6857C20.6514 8.5137 15.6594 13.8477 15.6384 24.0057L15.6344 24.0437C15.6247 24.0899 15.5984 24.1309 15.5603 24.1588C15.5223 24.1868 15.4752 24.1996 15.4282 24.1949C15.3813 24.1901 15.3377 24.1682 15.306 24.1333C15.2743 24.0983 15.2566 24.0529 15.2564 24.0057C15.2764 14.3277 19.7564 8.9477 22.1164 6.7857L22.5584 6.3947Z" fill="#373A3E" stroke="#373A3E" stroke-width="0.194"/>
<path d="M24.8378 6.4172C24.8662 6.38358 24.9053 6.36082 24.9485 6.3528C24.9917 6.34478 25.0363 6.35199 25.0748 6.3732L25.1058 6.3952C27.2218 8.1922 32.0738 13.3472 32.3928 23.0522L32.4078 24.0062C32.4077 24.0569 32.3875 24.1054 32.3515 24.1411C32.3156 24.1768 32.267 24.1968 32.2163 24.1967C32.1657 24.1966 32.1172 24.1763 32.0814 24.1404C32.0457 24.1045 32.0257 24.0559 32.0258 24.0052L32.0108 23.0682C31.7208 14.1372 27.5408 9.1282 25.2948 7.0702L24.8598 6.6862C24.8262 6.65788 24.8035 6.61878 24.7954 6.57557C24.7874 6.53235 24.7946 6.48769 24.8158 6.4492L24.8378 6.4172ZM23.8338 6.5412C23.8589 6.54107 23.8837 6.54588 23.9069 6.55537C23.93 6.56486 23.9511 6.57884 23.9688 6.59649C23.9866 6.61415 24.0007 6.63514 24.0103 6.65826C24.0199 6.68137 24.0248 6.70616 24.0248 6.7312V25.4242C24.0214 25.4723 23.9998 25.5174 23.9644 25.5502C23.9291 25.5831 23.8826 25.6014 23.8343 25.6014C23.7861 25.6014 23.7396 25.5831 23.7043 25.5502C23.6689 25.5174 23.6473 25.4723 23.6438 25.4242V6.7302C23.6438 6.67981 23.6639 6.63148 23.6995 6.59585C23.7351 6.56022 23.7835 6.5412 23.8338 6.5412ZM22.8098 25.2112C22.8349 25.2111 22.8597 25.2159 22.8829 25.2254C22.906 25.2349 22.9271 25.2488 22.9448 25.2665C22.9626 25.2841 22.9767 25.3051 22.9863 25.3283C22.9959 25.3514 23.0008 25.3762 23.0008 25.4012V31.1752C23.0008 31.9632 22.7118 32.8632 22.2468 33.6682C21.8398 34.3732 21.3018 34.9982 20.7168 35.4072L20.4648 35.5672C19.9948 35.8382 19.5918 35.9132 19.3178 35.8222L19.2098 35.7742C18.9408 35.6192 18.7608 35.2022 18.7608 34.5842V33.4042C18.7504 33.1906 18.6581 32.9892 18.5033 32.8417C18.3484 32.6943 18.1427 32.612 17.9288 32.612C17.715 32.612 17.5093 32.6943 17.3544 32.8417C17.1995 32.9892 17.1073 33.1906 17.0968 33.4042V34.5842C17.0968 35.7752 17.5548 36.7412 18.3768 37.2142C19.1868 37.6872 20.2788 37.5992 21.2968 37.0092C22.2338 36.4672 23.0698 35.5632 23.6728 34.5282C24.2388 33.5562 24.6048 32.4622 24.6568 31.4342L24.6628 31.2292C24.6636 31.179 24.6843 31.1301 24.7203 31.0951C24.7562 31.06 24.8046 31.0407 24.8548 31.0412H24.8568C24.9009 31.0416 24.9434 31.0573 24.9771 31.0856C25.0109 31.1138 25.0337 31.1529 25.0418 31.1962L25.0448 31.2352C25.0338 32.3732 24.6378 33.6152 23.9958 34.7182C23.3938 35.7512 22.5788 36.6552 21.6708 37.2302L21.4878 37.3402C20.8668 37.7002 20.2168 37.8922 19.6088 37.9032H19.5568C19.1158 37.9032 18.7078 37.8102 18.3408 37.6272L18.1858 37.5432C17.2578 37.0092 16.7148 35.9352 16.7148 34.5832V33.4022C16.7148 33.0802 16.8427 32.7714 17.0704 32.5438C17.2981 32.3161 17.6069 32.1882 17.9288 32.1882C18.2508 32.1882 18.5596 32.3161 18.7873 32.5438C19.0149 32.7714 19.1428 33.0802 19.1428 33.4022V34.5822C19.1428 34.8292 19.1758 35.0222 19.2228 35.1622C19.2458 35.2322 19.2728 35.2912 19.3018 35.3362C19.315 35.3575 19.3301 35.3776 19.3468 35.3962L19.4018 35.4432C19.4434 35.4641 19.4893 35.4751 19.5358 35.4752C19.5983 35.4772 19.6607 35.4718 19.7218 35.4592C19.8298 35.4392 19.9618 35.3962 20.1138 35.3212L20.2738 35.2372C20.9138 34.8672 21.4998 34.2172 21.9238 33.4822C22.3488 32.7472 22.6188 31.9152 22.6188 31.1752V25.4022C22.6188 25.3771 22.6238 25.3522 22.6335 25.329C22.6432 25.3058 22.6573 25.2848 22.6752 25.2671C22.6931 25.2495 22.7142 25.2355 22.7375 25.2261C22.7608 25.2167 22.7857 25.2119 22.8108 25.2122L22.8098 25.2112Z" fill="#373A3E" stroke="#373A3E" stroke-width="0.194"/>
<path d="M24.8541 25.2109C24.8792 25.2107 24.9041 25.2154 24.9274 25.2248C24.9507 25.2343 24.9719 25.2482 24.9897 25.2659C25.0076 25.2836 25.0217 25.3046 25.0314 25.3278C25.0411 25.351 25.0461 25.3758 25.0461 25.4009V31.1749C25.0461 31.2256 25.0259 31.2742 24.9901 31.31C24.9543 31.3458 24.9057 31.3659 24.8551 31.3659C24.8044 31.3659 24.7558 31.3458 24.72 31.31C24.6842 31.2742 24.6641 31.2256 24.6641 31.1749V25.4019C24.6641 25.3516 24.6841 25.3032 24.7197 25.2676C24.7553 25.232 24.8037 25.2109 24.8541 25.2109Z" fill="#373A3E" stroke="#373A3E" stroke-width="0.194"/>
<path d="M24.8551 30.9857C24.8802 30.9854 24.9051 30.9902 24.9284 30.9996C24.9517 31.009 24.9729 31.023 24.9907 31.0406C25.0086 31.0583 25.0228 31.0793 25.0324 31.1025C25.0421 31.1257 25.0471 31.1506 25.0471 31.1757C25.0471 31.2027 25.0471 31.2237 25.0451 31.2457C25.0151 31.5947 24.8181 31.9027 24.5441 32.1257C24.2943 32.3331 23.9851 32.456 23.6611 32.4767H23.5741C23.3716 32.4678 23.1772 32.3946 23.0191 32.2677C22.8141 32.0987 22.6211 31.7817 22.6211 31.1757C22.6211 31.125 22.6412 31.0765 22.677 31.0406C22.7129 31.0048 22.7614 30.9847 22.8121 30.9847C22.8628 30.9847 22.9113 31.0048 22.9472 31.0406C22.983 31.0765 23.0031 31.125 23.0031 31.1757C23.0031 31.3637 23.0251 31.5827 23.1071 31.7587C23.1821 31.9187 23.3081 32.0487 23.5061 32.0847L23.5951 32.0947C23.8191 32.1037 24.0741 32.0047 24.2751 31.8497C24.4771 31.6947 24.6431 31.4707 24.6651 31.2147V31.1757L24.6691 31.1377C24.6778 31.0948 24.7011 31.0563 24.735 31.0286C24.7689 31.0009 24.8113 30.9857 24.8551 30.9857ZM23.8331 2.09571C23.8581 2.09557 23.8829 2.10039 23.9061 2.10988C23.9293 2.11937 23.9503 2.13334 23.9681 2.151C23.9858 2.16866 23.9999 2.18965 24.0095 2.21276C24.0191 2.23588 24.0241 2.26067 24.0241 2.28571V5.47571C24.026 5.50188 24.0225 5.52817 24.0138 5.55293C24.005 5.57769 23.9913 5.60038 23.9734 5.6196C23.9556 5.63882 23.9339 5.65415 23.9099 5.66463C23.8858 5.67511 23.8598 5.68052 23.8336 5.68052C23.8073 5.68052 23.7814 5.67511 23.7573 5.66463C23.7333 5.65415 23.7116 5.63882 23.6937 5.6196C23.6759 5.60038 23.6621 5.57769 23.6534 5.55293C23.6447 5.52817 23.6412 5.50188 23.6431 5.47571V2.28571C23.6431 2.23531 23.6631 2.18699 23.6987 2.15136C23.7344 2.11572 23.7827 2.09571 23.8331 2.09571Z" fill="#373A3E"/>
<path d="M24.6651 31.2147C24.6431 31.4707 24.4771 31.6947 24.2751 31.8497C24.0741 32.0047 23.8191 32.1037 23.5951 32.0947L23.5061 32.0847C23.3081 32.0487 23.1821 31.9187 23.1071 31.7587C23.0251 31.5827 23.0031 31.3637 23.0031 31.1757C23.0031 31.1251 22.983 31.0765 22.9472 31.0406C22.9113 31.0048 22.8628 30.9847 22.8121 30.9847C22.7614 30.9847 22.7129 31.0048 22.677 31.0406C22.6412 31.0765 22.6211 31.1251 22.6211 31.1757C22.6211 31.7817 22.8141 32.0987 23.0191 32.2677C23.1772 32.3946 23.3716 32.4678 23.5741 32.4767H23.6611C23.9851 32.456 24.2943 32.3331 24.5441 32.1257C24.8181 31.9027 25.0151 31.5947 25.0451 31.2457C25.0471 31.2237 25.0471 31.2027 25.0471 31.1757C25.0471 31.1506 25.0421 31.1257 25.0324 31.1025C25.0228 31.0793 25.0086 31.0583 24.9907 31.0406C24.9729 31.023 24.9517 31.009 24.9284 30.9996C24.9051 30.9902 24.8802 30.9854 24.8551 30.9857C24.8113 30.9857 24.7689 31.0009 24.735 31.0286C24.7011 31.0563 24.6778 31.0948 24.6691 31.1377L24.6651 31.1757V31.2147ZM24.6651 31.2147L24.5691 31.2067M23.8331 2.09571C23.8581 2.09557 23.8829 2.10039 23.9061 2.10988C23.9293 2.11937 23.9503 2.13334 23.9681 2.151C23.9858 2.16866 23.9999 2.18965 24.0095 2.21276C24.0191 2.23588 24.0241 2.26067 24.0241 2.28571V5.47571C24.026 5.50188 24.0225 5.52817 24.0138 5.55293C24.005 5.57769 23.9913 5.60038 23.9734 5.6196C23.9556 5.63882 23.9339 5.65415 23.9099 5.66463C23.8858 5.67511 23.8598 5.68052 23.8336 5.68052C23.8073 5.68052 23.7814 5.67511 23.7573 5.66463C23.7333 5.65415 23.7116 5.63882 23.6937 5.6196C23.6759 5.60038 23.6621 5.57769 23.6534 5.55293C23.6447 5.52817 23.6412 5.50188 23.6431 5.47571V2.28571C23.6431 2.23531 23.6631 2.18699 23.6987 2.15136C23.7344 2.11572 23.7827 2.09571 23.8331 2.09571Z" stroke="#373A3E" stroke-width="0.194"/>
</svg>
