<svg width="45" height="40" viewBox="0 0 45 40" fill="none" xmlns="http://www.w3.org/2000/svg">
<path d="M4.24219 19.7231L4.25019 19.7371C4.27019 19.8651 4.39419 19.8491 6.59919 20.3601C6.00519 21.4491 5.73319 22.5361 5.73519 23.5961C5.73519 23.7881 5.74519 23.9781 5.76519 24.1651V24.1751C6.03019 26.9231 8.12319 29.4351 11.1822 31.2011C16.9572 34.5361 26.0052 35.2991 33.1842 33.0571L31.6242 31.3951C29.8122 31.9601 27.8542 32.2951 25.8742 32.4031C24.7902 32.4631 23.7012 32.4571 22.6242 32.3871C21.1074 32.2908 19.6025 32.0565 18.1282 31.6871L18.1242 31.6851C16.4292 31.2541 14.8572 30.6421 13.5002 29.8621C12.6366 29.3721 11.8406 28.7718 11.1322 28.0761C10.3342 27.2821 9.71719 26.3911 9.35919 25.4361C8.85519 24.0791 8.87619 22.5901 9.65919 21.0661L11.4272 21.4781V20.4201L10.3612 17.4521C10.3472 17.4071 10.2932 17.3721 10.2192 17.3551C10.1466 17.3382 10.0707 17.342 10.0002 17.3661L4.34319 19.6101C4.29119 19.6301 4.25019 19.6671 4.24419 19.7211L4.24219 19.7231Z" fill="#FAEBFF"/>
<path d="M4.24905 19.7383V23.1783C4.27905 23.2873 4.29305 23.2643 5.73405 23.5983C5.73205 22.5403 6.00405 21.4513 6.59805 20.3623C4.39205 19.8523 4.26805 19.8653 4.24805 19.7393L4.24905 19.7383ZM5.76205 24.1763L5.80205 27.0203C5.80205 29.8213 7.68605 32.5913 11.246 34.6473C17.026 37.9873 25.997 38.7573 33.184 36.5133V33.0593C26.005 35.3013 16.957 34.5393 11.182 31.2033C8.12205 29.4373 6.03005 26.9253 5.76405 24.1763H5.76205Z" fill="#45494D"/>
<path d="M9.65685 21.068C8.87485 22.592 8.85385 24.081 9.35785 25.438H9.35985L9.40685 25.302C9.49785 25.036 9.61085 24.78 9.74685 24.52C10.7389 24.75 11.1949 24.865 11.4269 24.91V21.478L9.65885 21.066L9.65685 21.068ZM35.7799 17.71V21.175C37.6429 22.388 38.8489 23.852 39.3559 25.387C39.3598 25.374 39.3659 25.36 39.3689 25.347C39.3709 25.343 39.3709 25.339 39.3729 25.337C40.2889 22.652 39.0199 19.81 35.7779 17.71H35.7799Z" fill="#45494D"/>
<path d="M43.7443 28.0249C43.7443 28.0249 43.7523 28.0099 43.7523 28.0049C43.7563 27.9959 43.7563 27.9909 43.7563 27.9849V27.9809C43.7563 27.9809 43.7523 27.9749 43.7523 27.9649C43.7443 27.9169 43.6883 27.8739 43.6103 27.8569L41.7403 27.4199C42.3703 26.4599 42.7403 25.4629 42.8843 24.4629C42.9143 24.2629 42.9333 24.0629 42.9393 23.8619C42.9413 23.7899 42.9433 23.7159 42.9433 23.6439C42.9463 20.8509 41.0853 18.0789 37.4993 16.0109C36.9406 15.6898 36.3666 15.3961 35.7793 15.1309V17.7139C39.0213 19.8139 40.2913 22.6579 39.3753 25.3409C39.3733 25.3429 39.3733 25.3469 39.3713 25.3509L39.3573 25.3909C39.191 25.8566 38.9701 26.301 38.6993 26.7149L36.5643 26.2179C36.3333 26.1679 36.2423 26.1879 36.2303 26.2569V26.2919C36.2303 26.3069 36.2343 26.3249 36.2403 26.3419C37.6413 30.3979 37.5983 30.3039 37.7803 30.3489C37.8533 30.3659 37.9363 30.3589 37.9963 30.3349L43.6513 28.0929C43.6884 28.0821 43.721 28.0596 43.7443 28.0289V28.0249Z" fill="#FAEBFF"/>
<path d="M36.2305 26.2881C36.2285 28.1981 36.1855 29.1261 36.1855 29.4971C36.1855 29.6991 36.2205 29.8971 36.2885 30.0871L37.5815 33.6871C37.5895 33.7151 37.6145 33.7371 37.6475 33.7561C37.6711 33.7701 37.6968 33.7802 37.7235 33.7861C37.7957 33.8029 37.8713 33.7977 37.9405 33.7711L43.5955 31.5311C43.7645 31.4341 43.7505 31.3201 43.7505 30.8691V28.0041H43.7525C43.7525 28.0041 43.7485 28.0181 43.7445 28.0251C43.7223 28.0571 43.6893 28.0802 43.6515 28.0901L37.9965 30.3321C37.9276 30.3569 37.853 30.3614 37.7815 30.3451C37.5985 30.3011 37.6415 30.3941 36.2405 26.3391C36.2346 26.323 36.2312 26.3052 36.2305 26.2881Z" fill="#45494D"/>
<path d="M36.2305 26.2549L36.2285 26.2729C36.2285 26.2769 36.2285 26.2829 36.2305 26.2889V26.2529V26.2549Z" fill="white"/>
<path d="M41.7422 27.4176L42.8152 27.6656C42.8192 27.5726 42.9432 24.6006 42.9432 23.6416C42.9432 23.7136 42.9432 23.7876 42.9392 23.8596C42.9319 24.0611 42.9139 24.262 42.8852 24.4616C42.7412 25.4616 42.3712 26.4586 41.7422 27.4176Z" fill="#45494D"/>
<path d="M10.2156 17.4973L10.1906 17.5003L10.1656 17.4973C10.1458 17.4943 10.1257 17.4937 10.1056 17.4953L10.0556 17.5053L10.0516 17.5073L4.42564 19.7373L4.38964 19.7523L4.37364 19.7883C4.36146 19.8161 4.34071 19.8392 4.31444 19.8543C4.28817 19.8694 4.25776 19.8757 4.22764 19.8723L4.17164 19.8533C4.14673 19.8396 4.12648 19.8187 4.11348 19.7934C4.10047 19.7681 4.09531 19.7395 4.09864 19.7113L4.11664 19.6383C4.13287 19.6019 4.1563 19.5691 4.18551 19.5419C4.21472 19.5148 4.24912 19.4938 4.28664 19.4803L4.28764 19.4793L9.94764 17.2343C10.0453 17.2002 10.1506 17.1929 10.2516 17.2153L10.2506 17.2163C10.3886 17.2503 10.4706 17.3263 10.4936 17.4013L10.4946 17.4053L11.5606 20.3733V20.3753L11.5686 20.4313C11.5672 20.4596 11.5574 20.4869 11.5405 20.5096C11.5236 20.5324 11.5003 20.5497 11.4736 20.5593C11.4576 20.5649 11.4407 20.5686 11.4236 20.5683H11.4006C11.3754 20.5642 11.3516 20.5535 11.3319 20.5371C11.3122 20.5208 11.2973 20.4994 11.2886 20.4753L10.2426 17.5613L10.2246 17.5083L10.2206 17.4973H10.2186V17.4953L10.2156 17.4973ZM10.2156 17.4973L10.2096 17.5003L10.2036 17.5023L10.2226 17.5053L10.2206 17.4993V17.4973H10.2156ZM10.1776 17.5273H10.2256C10.2256 17.5193 10.2236 17.5123 10.2226 17.5083L10.1776 17.5273Z" fill="#373A3E"/>
<path d="M10.2156 17.4973L10.1906 17.5003L10.1656 17.4973C10.1458 17.4943 10.1257 17.4937 10.1056 17.4953L10.0556 17.5053L10.0516 17.5073L4.42564 19.7373L4.38964 19.7523L4.37364 19.7883C4.36146 19.8161 4.34071 19.8392 4.31444 19.8543C4.28817 19.8694 4.25776 19.8757 4.22764 19.8723L4.17164 19.8533C4.14673 19.8396 4.12648 19.8187 4.11348 19.7934C4.10047 19.7681 4.09531 19.7395 4.09864 19.7113L4.11664 19.6383C4.13287 19.6019 4.1563 19.5691 4.18551 19.5419C4.21472 19.5148 4.24912 19.4938 4.28664 19.4803L4.28764 19.4793L9.94764 17.2343C10.0453 17.2002 10.1506 17.1929 10.2516 17.2153L10.2506 17.2163C10.3886 17.2503 10.4706 17.3263 10.4936 17.4013L10.4946 17.4053L11.5606 20.3733V20.3753L11.5686 20.4313C11.5672 20.4596 11.5574 20.4869 11.5405 20.5096C11.5236 20.5324 11.5003 20.5497 11.4736 20.5593C11.4576 20.5649 11.4407 20.5686 11.4236 20.5683H11.4006C11.3754 20.5642 11.3516 20.5535 11.3319 20.5371C11.3122 20.5208 11.2973 20.4994 11.2886 20.4753L10.2426 17.5613L10.2246 17.5083L10.2206 17.4973M10.2156 17.4973L10.2186 17.4953V17.4973H10.2206M10.2156 17.4973L10.2096 17.5003L10.2036 17.5023L10.2226 17.5053L10.2206 17.4993V17.4973M10.2156 17.4973H10.2206M10.1776 17.5273H10.2256C10.2256 17.5193 10.2236 17.5123 10.2226 17.5083L10.1776 17.5273Z" stroke="#373A3E" stroke-width="0.194"/>
<path d="M4.23652 19.5928C4.20018 19.5958 4.16631 19.6124 4.14166 19.6393C4.11701 19.6661 4.10339 19.7013 4.10352 19.7378V23.1778L4.10852 23.2148V23.2168C4.11626 23.2532 4.13085 23.2878 4.15152 23.3188C4.17564 23.3469 4.20666 23.3682 4.24152 23.3808C4.29852 23.4058 4.37752 23.4298 4.49252 23.4588L4.96252 23.5688L5.51852 23.6948L5.59152 23.7118L5.59352 23.7868C5.59752 23.9168 5.60752 24.0468 5.61852 24.1808C5.62552 24.2558 5.68852 24.3118 5.76252 24.3118H5.77552C5.80395 24.309 5.83094 24.298 5.85316 24.28C5.87538 24.2621 5.89185 24.238 5.90052 24.2108L5.90652 24.1548C5.88877 23.9713 5.87976 23.7871 5.87952 23.6028V23.5928L5.89252 23.1928C5.94552 22.3928 6.16052 21.5978 6.52852 20.8198L6.72652 20.4338L6.73852 20.4028C6.74429 20.3812 6.74497 20.3586 6.74052 20.3368L6.73052 20.3038C6.72117 20.2832 6.70718 20.2651 6.68965 20.2509C6.67213 20.2367 6.65154 20.2267 6.62952 20.2218L5.31252 19.9208C4.85252 19.8168 4.53952 19.7468 4.42252 19.7058L4.39152 19.6938L4.37252 19.6638C4.36238 19.6462 4.3487 19.6309 4.33235 19.6188C4.316 19.6068 4.29733 19.5982 4.27752 19.5938L4.23652 19.5928ZM4.51552 20.0328L5.25052 20.2048C5.51452 20.2648 5.84252 20.3378 6.26052 20.4338L6.37952 20.4618L6.32452 20.5718C5.88152 21.4648 5.63752 22.3778 5.59452 23.2988L5.59052 23.4158L5.47652 23.3898C5.30452 23.3498 4.57052 23.1828 4.46452 23.1528L4.39452 23.1328V20.0018L4.51552 20.0328Z" fill="#373A3E" stroke="#373A3E" stroke-width="0.194"/>
<path d="M9.69019 20.9302C9.66652 20.9252 9.642 20.9262 9.6188 20.933C9.5956 20.9398 9.57444 20.9522 9.55719 20.9692L9.52719 21.0092C8.81419 22.4012 8.67919 23.8142 9.12419 25.2152L9.22119 25.4952C9.52819 26.3192 10.0312 27.1162 10.7202 27.8682L11.0262 28.1882C11.6162 28.7752 12.3092 29.3142 13.0862 29.7932L13.4252 29.9952C14.6022 30.6732 15.9452 31.2302 17.4282 31.6552L18.0712 31.8292L18.0782 31.8312L18.0902 31.8352C19.3512 32.1532 20.6742 32.3762 22.0302 32.4962L22.6112 32.5412C23.4242 32.5952 24.2452 32.6112 25.0622 32.5902L25.8792 32.5572C27.8712 32.4472 29.7682 32.1192 31.5202 31.5862L31.5782 31.5682L31.6192 31.6122L32.8082 32.8802L32.9152 32.9952L32.7642 33.0402C25.9072 35.0642 17.4472 34.3902 11.7902 31.3822L11.2512 31.0842C8.11719 29.2742 6.15619 26.7562 5.90519 24.1692C5.90269 24.1407 5.89188 24.1136 5.8741 24.0912C5.85633 24.0688 5.83236 24.0521 5.80519 24.0432L5.74819 24.0382C5.71988 24.0409 5.69297 24.0518 5.67076 24.0695C5.64855 24.0873 5.63202 24.1112 5.62319 24.1382L5.61719 24.1952C5.85919 26.6912 7.62419 29.1372 10.5152 30.9762L11.1072 31.3352C14.6462 33.3772 19.4122 34.4592 24.2332 34.4822H24.3902C27.2302 34.4822 30.0802 34.1122 32.7042 33.3552L33.2262 33.1992C33.2615 33.1879 33.2913 33.1641 33.3102 33.1322L33.3242 33.0982C33.334 33.0626 33.3297 33.0246 33.3122 32.9922L33.2902 32.9642L31.7302 31.3002C31.7161 31.2856 31.6991 31.2741 31.6804 31.2664C31.6616 31.2586 31.6415 31.2548 31.6212 31.2552L31.5812 31.2612C30.0312 31.7442 28.3652 32.0622 26.6182 32.2102L25.8642 32.2632C25.0612 32.3082 24.2472 32.3162 23.4392 32.2882L22.6322 32.2472C21.3134 32.1627 20.0034 31.9745 18.7142 31.6842L18.1792 31.5562L18.1722 31.5542L18.1712 31.5532L18.1662 31.5522L18.1592 31.5502C16.6592 31.1702 15.2892 30.6562 14.0792 30.0202L13.5712 29.7402C12.7892 29.2902 12.0892 28.7802 11.4842 28.2202L11.2312 27.9782C10.5182 27.2692 9.98119 26.5132 9.63119 25.7282L9.49319 25.3912C8.98719 24.0332 9.05919 22.6612 9.70019 21.3112L9.73319 21.2392L9.81019 21.2572L11.3922 21.6262C11.4199 21.6327 11.449 21.6309 11.4757 21.621C11.5024 21.611 11.5255 21.5933 11.5422 21.5702L11.5662 21.5172C11.5727 21.4895 11.571 21.4606 11.5612 21.4339C11.5514 21.4073 11.534 21.384 11.5112 21.3672L11.4582 21.3442L9.68919 20.9322L9.69019 20.9302ZM35.8422 14.9932C35.8162 14.9815 35.7874 14.9778 35.7593 14.9824C35.7312 14.987 35.7051 14.9998 35.6842 15.0192L35.6502 15.0662C35.6388 15.0922 35.6352 15.121 35.6398 15.149C35.6444 15.1771 35.657 15.2032 35.6762 15.2242L35.7222 15.2572C36.1752 15.4622 36.6122 15.6782 37.0252 15.9032L37.4302 16.1312C40.7252 18.0312 42.6782 20.6562 42.7932 23.3752L42.7992 23.6382C42.7992 23.7062 42.7992 23.7782 42.7952 23.8502C42.7917 23.9467 42.7854 24.0431 42.7762 24.1392L42.7412 24.4372C42.6081 25.3382 42.2999 26.2045 41.8342 26.9872L41.6202 27.3332C41.6009 27.3627 41.5931 27.3983 41.5982 27.4332L41.6062 27.4662L41.6072 27.4682C41.6203 27.5005 41.6449 27.5268 41.6762 27.5422L41.7092 27.5542L43.2272 27.9072L43.5282 27.9772L43.2402 28.0922L37.9442 30.1912C37.9071 30.2061 37.8664 30.209 37.8272 30.2012L37.7852 30.1932L37.7642 30.1562C37.7154 30.066 37.6733 29.9725 37.6382 29.8762C37.5644 29.6842 37.4934 29.4912 37.4252 29.2972L36.6272 27.0032L36.4482 26.4852L36.3912 26.3192L36.5612 26.3592L38.6662 26.8482C38.6879 26.853 38.7105 26.8528 38.7321 26.8476C38.7538 26.8424 38.774 26.8323 38.7912 26.8182L38.8212 26.7852C39.1092 26.3402 39.3342 25.8852 39.4942 25.4292L39.4992 25.4152L39.5012 25.4092L39.5032 25.4042H39.5052V25.3932L39.5092 25.3862V25.3832L39.5132 25.3752C40.4292 22.6912 39.1962 19.8732 36.1582 17.7802L35.8582 17.5802C35.8342 17.565 35.8063 17.5571 35.7779 17.5575C35.7495 17.5579 35.7218 17.5664 35.6982 17.5822L35.6562 17.6232C35.6407 17.6471 35.6326 17.675 35.6329 17.7035C35.6333 17.732 35.6421 17.7597 35.6582 17.7832L35.7002 17.8242C38.7002 19.7692 40.0562 22.4402 39.3172 25.0242L39.2392 25.2742V25.2792L39.2312 25.2942L39.2272 25.3012L39.2262 25.3092H39.2252V25.3112L39.2152 25.3402L39.2142 25.3462C39.0842 25.7202 38.8972 26.1032 38.6672 26.4812L38.6312 26.5412L38.5622 26.5252L36.5962 26.0672C36.4162 26.0272 36.3102 26.0262 36.2372 26.0512L36.1742 26.0822L36.1732 26.0832C36.1375 26.1075 36.1106 26.1425 36.0962 26.1832L36.0852 26.2282L36.0842 26.2322C36.0824 26.2438 36.0818 26.2555 36.0822 26.2672V26.2792C36.0822 26.2832 36.0822 26.2892 36.0842 26.2972L36.0852 26.3052C36.0882 26.3352 36.0952 26.3602 36.1022 26.3822L36.3512 27.0992C36.7392 28.2232 37.0542 29.0712 37.2952 29.6422C37.4152 29.9272 37.5182 30.1422 37.6002 30.2852C37.6402 30.3582 37.6752 30.4102 37.7032 30.4442L37.7362 30.4802C37.7802 30.4902 37.8232 30.4942 37.8682 30.4942H37.9332C37.9432 30.4932 37.9542 30.4942 37.9652 30.4912L38.0532 30.4672L43.7062 28.2252L43.7132 28.2222L43.7532 28.2052C43.7827 28.1901 43.8097 28.1706 43.8332 28.1472L43.8662 28.1072L43.8712 28.0992L43.8772 28.0902L43.8942 28.0442V28.0412L43.9042 27.9832L43.8982 27.9452L43.8962 27.9352C43.8792 27.8372 43.7932 27.7462 43.6442 27.7102H43.6462L42.1062 27.3502L41.9762 27.3212L42.0462 27.2072C42.49 26.4755 42.803 25.6722 42.9712 24.8332L43.0312 24.4812C43.0462 24.3732 43.0582 24.2702 43.0672 24.1672L43.0862 23.8622C43.0882 23.7872 43.0902 23.7122 43.0902 23.6402L43.0842 23.3702C42.9712 20.6602 41.1132 18.0242 37.9002 16.0722L37.5742 15.8802C37.1569 15.6391 36.7306 15.4139 36.2962 15.2052L35.8422 14.9932Z" fill="#373A3E"/>
<path d="M36.0842 26.2972C36.0822 26.2892 36.0822 26.2832 36.0822 26.2792V26.2672C36.0818 26.2555 36.0824 26.2438 36.0842 26.2322L36.0852 26.2282L36.0962 26.1832C36.1106 26.1425 36.1375 26.1075 36.1732 26.0832L36.1742 26.0822L36.2372 26.0512C36.3102 26.0262 36.4162 26.0272 36.5962 26.0672L38.5622 26.5252L38.6312 26.5412L38.6672 26.4812C38.8972 26.1032 39.0842 25.7202 39.2142 25.3462L39.2152 25.3402L39.2252 25.3112V25.3092H39.2262L39.2272 25.3012L39.2312 25.2942L39.2392 25.2792V25.2742L39.3172 25.0242C40.0562 22.4402 38.7002 19.7692 35.7002 17.8242L35.6582 17.7832C35.6421 17.7597 35.6333 17.732 35.6329 17.7035C35.6326 17.675 35.6407 17.6471 35.6562 17.6232L35.6982 17.5822C35.7218 17.5664 35.7495 17.5579 35.7779 17.5575C35.8063 17.5571 35.8342 17.565 35.8582 17.5802L36.1582 17.7802C39.1962 19.8732 40.4292 22.6912 39.5132 25.3752L39.5092 25.3832V25.3862L39.5052 25.3932V25.4042H39.5032L39.5012 25.4092L39.4992 25.4152L39.4942 25.4292C39.3342 25.8852 39.1092 26.3402 38.8212 26.7852L38.7912 26.8182C38.774 26.8323 38.7538 26.8424 38.7321 26.8476C38.7105 26.8528 38.6879 26.853 38.6662 26.8482L36.5612 26.3592L36.3912 26.3192L36.4482 26.4852L36.6272 27.0032L37.4252 29.2972C37.4934 29.4912 37.5644 29.6842 37.6382 29.8762C37.6733 29.9725 37.7154 30.066 37.7642 30.1562L37.7852 30.1932L37.8272 30.2012C37.8664 30.209 37.9071 30.2061 37.9442 30.1912L43.2402 28.0922L43.5282 27.9772L43.2272 27.9072L41.7092 27.5542L41.6762 27.5422C41.6449 27.5268 41.6203 27.5005 41.6072 27.4682L41.6062 27.4662L41.5982 27.4332C41.5931 27.3983 41.6009 27.3627 41.6202 27.3332L41.8342 26.9872C42.2999 26.2045 42.6081 25.3382 42.7412 24.4372L42.7762 24.1392C42.7854 24.0431 42.7917 23.9467 42.7952 23.8502C42.7992 23.7782 42.7992 23.7062 42.7992 23.6382L42.7932 23.3752C42.6782 20.6562 40.7252 18.0312 37.4302 16.1312L37.0252 15.9032C36.6122 15.6782 36.1752 15.4622 35.7222 15.2572L35.6762 15.2242C35.657 15.2032 35.6444 15.1771 35.6398 15.149C35.6352 15.121 35.6388 15.0922 35.6502 15.0662L35.6842 15.0192C35.7051 14.9998 35.7312 14.987 35.7593 14.9824C35.7874 14.9778 35.8162 14.9815 35.8422 14.9932L36.2962 15.2052C36.7306 15.4139 37.1569 15.6391 37.5742 15.8802L37.9002 16.0722C41.1132 18.0242 42.9712 20.6602 43.0842 23.3702L43.0902 23.6402C43.0902 23.7122 43.0882 23.7872 43.0862 23.8622L43.0672 24.1672C43.0582 24.2702 43.0462 24.3732 43.0312 24.4812L42.9712 24.8332C42.803 25.6722 42.49 26.4755 42.0462 27.2072L41.9762 27.3212L42.1062 27.3502L43.6462 27.7102H43.6442C43.7932 27.7462 43.8792 27.8372 43.8962 27.9352L43.8982 27.9452L43.9042 27.9832L43.8942 28.0412V28.0442L43.8772 28.0902L43.8712 28.0992L43.8662 28.1072L43.8332 28.1472C43.8097 28.1706 43.7827 28.1901 43.7532 28.2052L43.7132 28.2222L43.7062 28.2252M36.0842 26.2972L35.9882 26.3142M36.0842 26.2972L36.0852 26.3052C36.0882 26.3352 36.0952 26.3602 36.1022 26.3822L36.3512 27.0992C36.7392 28.2232 37.0542 29.0712 37.2952 29.6422C37.4152 29.9272 37.5182 30.1422 37.6002 30.2852C37.6402 30.3582 37.6752 30.4102 37.7032 30.4442L37.7362 30.4802C37.7802 30.4902 37.8232 30.4942 37.8682 30.4942H37.9332C37.9432 30.4932 37.9542 30.4942 37.9652 30.4912L38.0532 30.4672L43.7062 28.2252M43.7062 28.2252L43.7422 28.3152M9.69019 20.9302C9.66652 20.9252 9.642 20.9262 9.6188 20.933C9.5956 20.9398 9.57444 20.9522 9.55719 20.9692L9.52719 21.0092C8.81419 22.4012 8.67919 23.8142 9.12419 25.2152L9.22119 25.4952C9.52819 26.3192 10.0312 27.1162 10.7202 27.8682L11.0262 28.1882C11.6162 28.7752 12.3092 29.3142 13.0862 29.7932L13.4252 29.9952C14.6022 30.6732 15.9452 31.2302 17.4282 31.6552L18.0712 31.8292L18.0782 31.8312L18.0902 31.8352C19.3512 32.1532 20.6742 32.3762 22.0302 32.4962L22.6112 32.5412C23.4242 32.5952 24.2452 32.6112 25.0622 32.5902L25.8792 32.5572C27.8712 32.4472 29.7682 32.1192 31.5202 31.5862L31.5782 31.5682L31.6192 31.6122L32.8082 32.8802L32.9152 32.9952L32.7642 33.0402C25.9072 35.0642 17.4472 34.3902 11.7902 31.3822L11.2512 31.0842C8.11719 29.2742 6.15619 26.7562 5.90519 24.1692C5.90269 24.1407 5.89188 24.1136 5.8741 24.0912C5.85633 24.0688 5.83236 24.0521 5.80519 24.0432L5.74819 24.0382C5.71988 24.0409 5.69297 24.0518 5.67076 24.0695C5.64855 24.0873 5.63202 24.1112 5.62319 24.1382L5.61719 24.1952C5.85919 26.6912 7.62419 29.1372 10.5152 30.9762L11.1072 31.3352C14.6462 33.3772 19.4122 34.4592 24.2332 34.4822H24.3902C27.2302 34.4822 30.0802 34.1122 32.7042 33.3552L33.2262 33.1992C33.2615 33.1879 33.2914 33.1641 33.3102 33.1322L33.3242 33.0982C33.334 33.0626 33.3297 33.0246 33.3122 32.9922L33.2902 32.9642L31.7302 31.3002C31.7161 31.2856 31.6991 31.2741 31.6804 31.2664C31.6616 31.2586 31.6415 31.2548 31.6212 31.2552L31.5812 31.2612C30.0312 31.7442 28.3652 32.0622 26.6182 32.2102L25.8642 32.2632C25.0612 32.3082 24.2472 32.3162 23.4392 32.2882L22.6322 32.2472C21.3134 32.1627 20.0034 31.9745 18.7142 31.6842L18.1792 31.5562L18.1722 31.5542L18.1712 31.5532L18.1662 31.5522L18.1592 31.5502C16.6592 31.1702 15.2892 30.6562 14.0792 30.0202L13.5712 29.7402C12.7892 29.2902 12.0892 28.7802 11.4842 28.2202L11.2312 27.9782C10.5182 27.2692 9.98119 26.5132 9.63119 25.7282L9.49319 25.3912C8.98719 24.0332 9.05919 22.6612 9.70019 21.3112L9.73319 21.2392L9.81019 21.2572L11.3922 21.6262C11.4199 21.6327 11.449 21.6309 11.4757 21.621C11.5024 21.611 11.5255 21.5933 11.5422 21.5702L11.5662 21.5172C11.5727 21.4895 11.571 21.4606 11.5612 21.4339C11.5514 21.4073 11.534 21.384 11.5112 21.3672L11.4582 21.3442L9.68919 20.9322L9.69019 20.9302Z" stroke="#373A3E" stroke-width="0.194"/>
<path d="M42.9429 23.4943C42.9043 23.4946 42.8673 23.51 42.8399 23.5374C42.8126 23.5647 42.7972 23.6017 42.7969 23.6403C42.7969 24.0373 42.7759 24.7923 42.7499 25.5383L42.6799 27.3873L42.6749 27.5673L42.8199 27.5723H42.9659L42.9719 27.3993C43.0019 26.5883 43.0889 24.4393 43.0889 23.6393C43.0886 23.6008 43.0731 23.5639 43.0458 23.5367C43.0184 23.5096 42.9814 23.4943 42.9429 23.4943ZM35.8579 21.0553C35.8342 21.0396 35.8063 21.0312 35.7779 21.0312C35.7494 21.0312 35.7216 21.0396 35.6979 21.0553L35.6559 21.0983C35.6405 21.1222 35.6325 21.1502 35.6328 21.1786C35.6332 21.2071 35.6419 21.2348 35.6579 21.2583L35.6999 21.3003C37.3749 22.3903 38.5539 23.7143 39.1139 25.1483L39.2179 25.4363C39.2359 25.4933 39.2869 25.5303 39.3449 25.5353H39.3559C39.3924 25.5357 39.4277 25.5221 39.4547 25.4974C39.4816 25.4727 39.4981 25.4387 39.5009 25.4023L39.4939 25.3443C38.9999 23.8473 37.8669 22.4493 36.1989 21.2843L35.8589 21.0543L35.8579 21.0553ZM43.7469 27.8373C43.7084 27.8376 43.6716 27.8529 43.6443 27.88C43.617 27.9071 43.6014 27.9439 43.6009 27.9823V28.0253C43.6009 28.064 43.6163 28.1012 43.6437 28.1286C43.671 28.1559 43.7082 28.1713 43.7469 28.1713C43.7856 28.1713 43.8228 28.1559 43.8501 28.1286C43.8775 28.1012 43.8929 28.064 43.8929 28.0253V27.9823C43.8926 27.9438 43.8771 27.9069 43.8498 27.8797C43.8224 27.8526 43.7854 27.8373 43.7469 27.8373Z" fill="#373A3E" stroke="#373A3E" stroke-width="0.194"/>
<path d="M43.6478 31.6658L43.6638 31.6578L43.6658 31.6567L43.7438 31.6038C43.8036 31.5559 43.8461 31.4899 43.8648 31.4158C43.8948 31.3068 43.8948 31.1678 43.8948 30.9648V28.0037C43.8948 27.965 43.8794 27.9279 43.8521 27.9005C43.8247 27.8731 43.7876 27.8577 43.7488 27.8577C43.7101 27.8577 43.673 27.8731 43.6456 27.9005C43.6182 27.9279 43.6028 27.965 43.6028 28.0037V30.9657L43.6018 31.1817C43.6011 31.2111 43.5994 31.2405 43.5968 31.2698C43.5948 31.2957 43.5895 31.3212 43.5808 31.3458L43.5568 31.4058H43.5138L37.8858 33.6358L37.8838 33.6368C37.8506 33.6489 37.8151 33.6537 37.7798 33.6508L37.7358 33.6467L37.7228 33.6518L37.7218 33.6477L37.7208 33.6487V33.6458H37.7178L37.6958 33.5857L36.4228 30.0398C36.3603 29.8662 36.3281 29.6832 36.3278 29.4988L36.3378 28.9878C36.3518 28.4738 36.3708 27.6128 36.3728 26.2898V26.2547C36.3728 26.2162 36.3576 26.1792 36.3304 26.1519C36.3033 26.1245 36.2664 26.109 36.2278 26.1087C36.1891 26.1087 36.152 26.1241 36.1246 26.1515C36.0972 26.1789 36.0818 26.216 36.0818 26.2547V26.2898C36.0818 26.9498 36.0758 27.4937 36.0688 27.9377L36.0468 28.9808C36.0408 29.2158 36.0368 29.3858 36.0368 29.4988C36.0368 29.6638 36.0568 29.8248 36.0998 29.9818L36.1498 30.1357L37.4418 33.7377L37.4438 33.7447C37.4589 33.7861 37.4861 33.822 37.5218 33.8477L37.5728 33.8827L37.5778 33.8858C37.5929 33.8957 37.609 33.9041 37.6258 33.9107L37.6908 33.9307C37.729 33.9385 37.7689 33.9422 37.8078 33.9418H37.8098C37.8458 33.9418 37.8798 33.9387 37.9118 33.9317L37.9998 33.9028L38.0068 33.8998L43.6478 31.6658ZM9.77983 24.3827C9.75641 24.3772 9.732 24.3777 9.70878 24.3839C9.68556 24.3902 9.66427 24.4022 9.64683 24.4188L9.61883 24.4568C9.50883 24.6638 9.41883 24.8638 9.34283 25.0618L9.27083 25.2598L9.22483 25.3918V25.3937C9.21546 25.4208 9.21426 25.45 9.22137 25.4778C9.22848 25.5055 9.2436 25.5305 9.26483 25.5497L9.31483 25.5788L9.31783 25.5797C9.32883 25.5837 9.34283 25.5858 9.35883 25.5858V25.5847C9.38134 25.5847 9.40354 25.5795 9.42367 25.5694C9.44381 25.5594 9.46132 25.5448 9.47483 25.5268L9.49683 25.4867L9.54283 25.3517C9.60983 25.1557 9.68983 24.9617 9.78883 24.7607L9.82183 24.6908L9.89683 24.7087C10.2068 24.7807 11.2558 25.0277 11.3988 25.0567C11.4176 25.0605 11.4368 25.0605 11.4556 25.0568C11.4743 25.053 11.4921 25.0456 11.5079 25.0349C11.5237 25.0241 11.5373 25.0104 11.5477 24.9944C11.5582 24.9784 11.5654 24.9605 11.5688 24.9417C11.574 24.9136 11.5707 24.8846 11.5595 24.8583C11.5483 24.832 11.5297 24.8095 11.5058 24.7938L11.4528 24.7717L10.7288 24.6058L9.77983 24.3827Z" fill="#373A3E" stroke="#373A3E" stroke-width="0.194"/>
<path d="M5.76219 24.0225H5.75819C5.72978 24.0229 5.70215 24.0318 5.67882 24.048C5.65549 24.0642 5.63751 24.087 5.62719 24.1135L5.61719 24.1715L5.65519 27.0245C5.65519 29.8225 7.52919 32.5675 10.8472 34.5845L11.1722 34.7765C14.7222 36.8295 19.5102 37.9135 24.3422 37.9285H24.4402C27.2662 37.9285 30.1002 37.5625 32.7082 36.8085L33.2262 36.6525C33.2555 36.6433 33.2812 36.6251 33.2997 36.6005C33.3182 36.576 33.3285 36.5462 33.3292 36.5155V33.0665C33.3292 33.0277 33.3138 32.9906 33.2864 32.9632C33.259 32.9358 33.2219 32.9205 33.1832 32.9205C33.1445 32.9205 33.1073 32.9358 33.0799 32.9632C33.0526 32.9906 33.0372 33.0277 33.0372 33.0665V36.4085L32.9692 36.4285C26.1042 38.5175 17.5632 37.8575 11.8602 34.8245L11.3172 34.5245C7.91819 32.5625 5.94719 29.8315 5.94719 27.0245L5.90719 24.1665C5.90641 24.1284 5.89082 24.0912 5.86374 24.0645C5.83666 24.0378 5.80022 24.0227 5.76219 24.0225Z" fill="#373A3E" stroke="#373A3E" stroke-width="0.194"/>
<path d="M10.4011 13.2966C9.73612 14.1606 9.87412 14.7676 10.2841 15.0056L21.3591 21.3986C20.9501 21.1626 20.8131 20.5546 21.4791 19.6926L28.5171 10.9526C28.8111 10.5746 29.1801 10.3606 29.4731 10.4026L36.8241 11.4136C36.8844 11.4224 36.9428 11.441 36.9971 11.4686L29.7261 7.26958V8.11258L27.0541 7.76358L24.3841 6.22158V4.83158L18.3941 4.00558C18.1011 3.96658 17.7311 4.17758 17.4401 4.55558L10.3991 13.2956L10.4011 13.2966Z" fill="#E94949"/>
<path d="M11.4219 20.9631V25.7151L22.5009 32.1081V21.2601C22.1169 21.5411 21.6629 21.5701 21.3599 21.3961L11.4219 15.6611V20.9631Z" fill="#DAFFEC"/>
<path d="M21.4815 19.6928C20.8145 20.5548 20.9515 21.1628 21.3615 21.3988C21.6645 21.5738 22.1195 21.5468 22.5015 21.2628C22.6065 21.1848 22.7075 21.0888 22.7985 20.9698L29.5405 12.4578L36.0525 13.3578C37.2795 13.5278 37.6745 11.8558 37.0245 11.4828L37.0005 11.4668C36.9462 11.4394 36.8877 11.4211 36.8275 11.4128L29.4765 10.3998C29.1835 10.3578 28.8145 10.5718 28.5205 10.9508L21.4825 19.6898L21.4805 19.6918L21.4815 19.6928Z" fill="#E94949"/>
<path d="M22.5 21.263V32.11L27.972 29.053V21.188L31.448 19.178V27.043L35.638 24.523V13.303L29.538 12.46L22.795 20.972C22.705 21.088 22.603 21.186 22.498 21.265L22.5 21.263Z" fill="#F9BCA0"/>
<path d="M24.3867 4.83342V6.22242L27.0567 7.76442V5.27242L24.3867 3.73242V4.83242V4.83342Z" fill="#F4A4A4"/>
<path d="M24.3867 3.73145L27.0567 5.27245L29.7287 3.73245L27.0567 2.18945L24.3867 3.73145Z" fill="#E94949"/>
<path d="M27.0566 5.27245V7.76445L29.7286 8.11145V3.73145L27.0566 5.27245Z" fill="#DAFFEC"/>
<path d="M28.0762 21.0077V28.6677L31.3802 26.7627V19.0967L28.0762 21.0077Z" fill="#373A3E" stroke="#373A3E" stroke-width="0.174"/>
<path d="M35.6406 13.1699C35.6062 13.1702 35.5733 13.184 35.549 13.2083C35.5247 13.2326 35.5109 13.2655 35.5106 13.2999V24.4459L35.4666 24.4699L30.7446 27.1979C30.7226 27.2104 30.7048 27.2301 30.6934 27.2527C30.682 27.2753 30.6776 27.3008 30.6806 27.3259L30.6966 27.3759C30.7081 27.3956 30.7246 27.4119 30.7445 27.4232C30.7644 27.4344 30.7868 27.4402 30.8096 27.4399H30.8126C30.8241 27.44 30.8355 27.4387 30.8466 27.4359L30.8746 27.4239L30.8776 27.4229L35.7076 24.6329L35.7336 24.6129C35.7583 24.5886 35.7723 24.5555 35.7726 24.5209V13.3009C35.7724 13.2663 35.7585 13.2331 35.734 13.2086C35.7095 13.1841 35.6753 13.1702 35.6406 13.1699Z" fill="#373A3E" stroke="#373A3E" stroke-width="0.174"/>
<path d="M30.7449 27.1957L27.2669 29.2027C27.2418 29.217 27.2222 29.2392 27.2111 29.2658C27.2001 29.2924 27.1982 29.322 27.2057 29.3498C27.2133 29.3777 27.2299 29.4022 27.2529 29.4196C27.2759 29.4369 27.3041 29.4461 27.3329 29.4457H27.3499L27.3659 29.4447L27.3949 29.4317L27.3979 29.4307L30.8759 27.4237C30.8984 27.4109 30.9156 27.3917 30.9273 27.3686C30.939 27.3455 30.9438 27.3195 30.9409 27.2937L30.9239 27.2437C30.9111 27.2213 30.8919 27.2031 30.8688 27.1916C30.8456 27.18 30.8196 27.1755 30.7939 27.1787L30.7449 27.1957Z" fill="#373A3E" stroke="#373A3E" stroke-width="0.174"/>
<path d="M22.4991 21.1299C22.4647 21.1301 22.4318 21.1439 22.4075 21.1682C22.3832 21.1926 22.3694 21.2255 22.3691 21.2599V32.1079C22.3691 32.142 22.3826 32.1748 22.4065 32.1991C22.4305 32.2234 22.463 32.2374 22.4971 32.2379H22.4991C22.5091 32.2379 22.5211 32.2379 22.5321 32.2349L22.5671 32.2199L27.3971 29.4329C27.4273 29.4153 27.4493 29.3865 27.4583 29.3528C27.4673 29.3191 27.4626 29.2831 27.4451 29.2529C27.4278 29.2231 27.3994 29.2012 27.3661 29.1921C27.3329 29.1829 27.2973 29.1872 27.2671 29.2039L22.7611 31.8049L22.6301 31.8799V21.2599C22.6299 21.2253 22.616 21.1922 22.5914 21.1679C22.5669 21.1435 22.5337 21.1299 22.4991 21.1299Z" fill="#373A3E" stroke="#373A3E" stroke-width="0.174"/>
<path d="M29.7941 7.15516C29.7716 7.1422 29.7459 7.13622 29.72 7.138C29.6942 7.13979 29.6695 7.14924 29.6491 7.16516L29.6141 7.20516C29.6015 7.22735 29.5958 7.25274 29.5976 7.27816C29.5993 7.30359 29.6086 7.32793 29.6241 7.34816L29.6631 7.38416L35.8971 10.9852L35.8421 11.1472L29.4921 10.2722C29.2091 10.2322 28.8541 10.3922 28.5441 10.7222L28.4141 10.8742L21.3791 19.6092V19.6102C20.9431 20.1722 20.8661 20.5902 20.8891 20.8582L20.9031 20.9642C20.9431 21.1712 21.0541 21.3452 21.2201 21.4642L21.2941 21.5122C21.4455 21.5968 21.6166 21.6402 21.7901 21.6382C22.0221 21.6382 22.2661 21.5682 22.4861 21.4302L22.5791 21.3682C22.6671 21.3022 22.7491 21.2262 22.8261 21.1392L22.9001 21.0492H22.9011L29.5651 12.6362L29.5951 12.5962L29.6451 12.6032L36.0341 13.4872C36.6801 13.5772 37.1041 13.2032 37.3091 12.7922L37.3841 12.6152C37.5671 12.0772 37.4241 11.5652 37.0931 11.3712L37.0861 11.3672L37.0761 11.3632L37.0701 11.3572L37.0571 11.3492L37.0521 11.3472L29.7941 7.15516ZM29.4571 10.5292L36.8081 11.5412H36.8101C36.8485 11.5476 36.886 11.5583 36.9221 11.5732L36.8881 11.6542L36.9231 11.5722L36.9331 11.5792L36.9581 11.5932C37.0891 11.6682 37.1631 11.8182 37.1901 11.9802C37.2111 12.1042 37.2071 12.2452 37.1761 12.3862L37.1371 12.5282C37.1061 12.6202 37.0231 12.8182 36.8571 12.9812C36.7714 13.0667 36.669 13.1335 36.5563 13.1776C36.4436 13.2217 36.323 13.2419 36.2021 13.2372L36.0711 13.2272L29.5651 12.3272H29.5391C29.5192 12.3272 29.4997 12.3318 29.4819 12.3404C29.464 12.3491 29.4484 12.3616 29.4361 12.3772L22.6941 20.8882C22.6539 20.9399 22.6105 20.989 22.5641 21.0352L22.4241 21.1572C22.1081 21.3912 21.7631 21.4192 21.5231 21.3302L21.4251 21.2852C21.3562 21.2462 21.2968 21.1924 21.2511 21.1278C21.2055 21.0631 21.1747 20.9891 21.1611 20.9112C21.1071 20.6332 21.2261 20.2862 21.4711 19.9272L21.5851 19.7722V19.7702L28.6211 11.0342C28.7681 10.8472 28.9211 10.7142 29.0631 10.6322C29.1555 10.5754 29.2593 10.5396 29.3671 10.5272L29.4571 10.5292ZM28.1201 21.0322L28.1631 21.0072L31.2051 19.2502L31.3351 19.1752V26.8152C31.3351 26.85 31.3489 26.8835 31.3736 26.9081C31.3982 26.9328 31.4317 26.9467 31.4666 26.9467C31.5014 26.9467 31.5349 26.9328 31.5595 26.9081C31.5842 26.8835 31.5981 26.85 31.5981 26.8152V18.9482C31.5981 18.9311 31.5947 18.9142 31.5882 18.8984C31.5817 18.8826 31.5721 18.8682 31.5601 18.8562L31.5321 18.8362C31.512 18.8247 31.4893 18.8186 31.4662 18.8184C31.4431 18.8183 31.4203 18.824 31.4001 18.8352L27.9231 20.8452L27.9221 20.8472C27.9023 20.8584 27.8859 20.8747 27.8745 20.8944C27.8631 20.9141 27.8571 20.9364 27.8571 20.9592V28.8232C27.857 28.8563 27.8696 28.8882 27.8923 28.9124C27.9149 28.9365 27.946 28.9511 27.9791 28.9532H27.9891C28.0239 28.9529 28.0572 28.9389 28.0818 28.9141C28.1063 28.8894 28.1201 28.856 28.1201 28.8212V21.0322ZM11.4191 15.5322C11.3845 15.5324 11.3514 15.5463 11.3271 15.5709C11.3027 15.5954 11.2891 15.6286 11.2891 15.6632V25.7162C11.2891 25.7512 11.3021 25.7852 11.3261 25.8092L11.3531 25.8292L22.4301 32.2222C22.4471 32.2322 22.4651 32.2362 22.4801 32.2382H22.5001C22.5344 32.2385 22.5675 32.2252 22.5921 32.2012L22.6121 32.1742C22.6207 32.1592 22.6273 32.1426 22.6295 32.1254C22.6316 32.1083 22.6304 32.0908 22.6257 32.0741C22.6211 32.0575 22.6131 32.0419 22.6024 32.0283C22.5916 32.0148 22.5782 32.0035 22.5631 31.9952H22.5641L11.5941 25.6652L11.5501 25.6392V15.6632C11.5498 15.6286 11.5359 15.5955 11.5113 15.5712C11.4868 15.5468 11.4536 15.5332 11.4191 15.5332V15.5322Z" fill="#373A3E" stroke="#373A3E" stroke-width="0.174"/>
<path d="M18.4149 3.8748C18.1269 3.8368 17.7709 3.9978 17.4649 4.3268L17.3389 4.4768L17.3379 4.4788L10.3019 13.2108C9.86794 13.7748 9.78994 14.1928 9.81194 14.4598L9.82694 14.5658C9.86515 14.7681 9.97928 14.948 10.1459 15.0688L10.2199 15.1168L21.2939 21.5108C21.3137 21.5224 21.336 21.529 21.3589 21.5298C21.3933 21.53 21.4263 21.5167 21.4509 21.4928L21.4729 21.4648L21.4889 21.4148C21.4931 21.3814 21.4841 21.3477 21.4639 21.3208L21.4239 21.2858L10.3489 14.8908C10.2455 14.8321 10.1646 14.7406 10.1189 14.6308L10.0839 14.5158C10.0279 14.2378 10.1479 13.8918 10.3929 13.5318L10.5049 13.3768V13.3738L17.5449 4.6398C17.6889 4.4518 17.8419 4.3198 17.9849 4.2378C18.078 4.18087 18.1825 4.14503 18.2909 4.1328L18.3809 4.1348L24.3689 4.9618H24.3699C24.4041 4.96668 24.4389 4.95785 24.4666 4.93725C24.4943 4.91666 24.5127 4.88594 24.5179 4.8518C24.5203 4.83447 24.5193 4.81682 24.5148 4.79989C24.5104 4.78296 24.5027 4.76707 24.4921 4.75314C24.4815 4.7392 24.4683 4.72749 24.4531 4.71869C24.438 4.70988 24.4213 4.70414 24.4039 4.7018H24.4049L18.4149 3.8748ZM27.1229 2.0768C27.1028 2.0655 27.0801 2.05957 27.0569 2.05957C27.0338 2.05957 27.0111 2.0655 26.9909 2.0768V2.0778L24.3209 3.6188C24.3014 3.63021 24.2852 3.64657 24.2739 3.66623C24.2627 3.68589 24.2568 3.70816 24.2569 3.7308C24.2569 3.7658 24.2709 3.7998 24.2949 3.8238L24.3209 3.8438L26.9909 5.3858C27.0109 5.3968 27.0349 5.4028 27.0549 5.4028H27.0569C27.0679 5.4028 27.0789 5.4008 27.0899 5.3978L27.1219 5.3858L29.7939 3.8448L29.8199 3.8238C29.8444 3.79902 29.858 3.7656 29.8579 3.7308C29.8575 3.70814 29.8514 3.68596 29.84 3.66636C29.8286 3.64676 29.8124 3.63039 29.7929 3.6188L27.1219 2.0788L27.1229 2.0768ZM27.0999 2.3668L29.3359 3.6568L29.4659 3.7308L29.3359 3.8078L27.0999 5.0968L27.0569 5.1218L27.0129 5.0968L24.7799 3.8068L24.6499 3.7308L24.7799 3.6558L27.0129 2.3658L27.0569 2.3418L27.0999 2.3658V2.3668Z" fill="#373A3E" stroke="#373A3E" stroke-width="0.174"/>
<path d="M29.7288 3.59863C29.6942 3.59863 29.661 3.6123 29.6365 3.63665C29.612 3.661 29.598 3.69406 29.5978 3.72863V7.96063L29.4988 7.94763L27.2638 7.65763L27.1878 7.64763V5.26963C27.1878 5.23489 27.174 5.20157 27.1494 5.177C27.1248 5.15243 27.0915 5.13863 27.0568 5.13863C27.022 5.13863 26.9887 5.15243 26.9641 5.177C26.9396 5.20157 26.9258 5.23489 26.9258 5.26963V7.75963C26.9258 7.80963 26.9538 7.85263 26.9958 7.87463L27.0398 7.88963L29.7118 8.23763L29.7218 8.23863H29.7378C29.7504 8.23809 29.7628 8.23574 29.7748 8.23163L29.8128 8.20963L29.8478 8.16463C29.8557 8.14772 29.8598 8.12929 29.8598 8.11063V3.72963C29.8593 3.69514 29.8453 3.66223 29.8208 3.63793C29.7963 3.61364 29.7633 3.59889 29.7288 3.59863Z" fill="#373A3E" stroke="#373A3E" stroke-width="0.174"/>
<path d="M24.3869 3.60156C24.3523 3.60156 24.3191 3.61523 24.2946 3.63958C24.27 3.66393 24.2561 3.69699 24.2559 3.73156V6.22256C24.2559 6.25856 24.2699 6.29156 24.2939 6.31556L24.3199 6.33556L26.9879 7.87656C27.0079 7.88656 27.0249 7.89256 27.0419 7.89456H27.0559C27.0902 7.89476 27.1232 7.88147 27.1479 7.85756L27.1679 7.83056L27.1699 7.82956L27.1859 7.77956C27.1887 7.75382 27.184 7.72781 27.1723 7.70471C27.1605 7.68162 27.1423 7.66245 27.1199 7.64956L24.5609 6.17256L24.5169 6.14756V3.73256C24.5166 3.69817 24.5028 3.66525 24.4785 3.64093C24.4542 3.6166 24.4213 3.60182 24.3869 3.60156Z" fill="#373A3E" stroke="#373A3E" stroke-width="0.174"/>
</svg>
