<svg width="27" height="26" viewBox="0 0 27 26" fill="none" xmlns="http://www.w3.org/2000/svg">
<path d="M11.5061 2.51776C11.1248 2.4672 10.6535 2.68058 10.25 3.11442L10.0822 3.31566L10.0801 3.31769L0.768268 14.8746V14.8766C0.19386 15.623 0.0917212 16.1751 0.121048 16.5281L0.141274 16.6676C0.195883 16.9427 0.34353 17.1732 0.561967 17.332L0.660061 17.3957L15.3166 25.8591C15.3431 25.8744 15.373 25.8828 15.4035 25.8834C15.4489 25.8835 15.4925 25.8657 15.5249 25.8339L15.5522 25.7985L15.5744 25.7327C15.5786 25.6988 15.5726 25.6644 15.5574 25.6338C15.5421 25.6032 15.5181 25.5779 15.4885 25.5608V25.5598L0.830968 17.0974C0.739651 17.0457 0.660861 16.9745 0.600208 16.8888C0.539554 16.8032 0.498529 16.7052 0.480053 16.6019C0.40623 16.2328 0.565001 15.7746 0.888611 15.2973L1.03727 15.093L1.03929 15.091L10.3552 3.53107C10.5474 3.28229 10.7496 3.10734 10.9387 2.99812C11.0616 2.92343 11.1993 2.87649 11.3422 2.86059L11.4605 2.86261L19.388 3.95783C19.4216 3.96254 19.4559 3.95717 19.4865 3.94242C19.5171 3.92766 19.5426 3.90416 19.5599 3.8749L19.5832 3.80816C19.5887 3.76283 19.5764 3.71712 19.5488 3.6807C19.5213 3.64428 19.4806 3.61999 19.4355 3.61298L11.5061 2.51877V2.51776ZM23.0296 0.13923C23.003 0.124349 22.9731 0.116534 22.9426 0.116534C22.9122 0.116534 22.8822 0.124349 22.8557 0.13923L19.3222 2.17898C19.2961 2.19419 19.2745 2.21605 19.2596 2.24235C19.2446 2.26864 19.237 2.29842 19.2373 2.32865C19.2373 2.37416 19.2565 2.41967 19.2879 2.45001L19.3222 2.47731L22.8567 4.51707C22.8829 4.53202 22.9125 4.54003 22.9426 4.54033H22.9447C22.9594 4.5403 22.974 4.53826 22.9881 4.53426L23.0296 4.51707L26.5661 2.47731C26.5918 2.46207 26.6142 2.44031 26.6289 2.41421C26.6437 2.38812 26.6513 2.35862 26.651 2.32865C26.6508 2.2984 26.6428 2.26871 26.6278 2.24248C26.6127 2.21625 26.5911 2.19437 26.565 2.17898L23.0296 0.13923ZM23.0013 0.522505L25.9603 2.22854L26.1322 2.32865L25.9603 2.42776L23.0013 4.1348L22.9436 4.16817L22.886 4.1348L19.93 2.42776L19.7571 2.32865L19.929 2.22854L22.887 0.522505L22.9447 0.488122L23.0013 0.522505Z" fill="#373A3E" stroke="#373A3E" stroke-width="0.23"/>
</svg>
