<svg width="12" height="9" viewBox="0 0 12 9" fill="none" xmlns="http://www.w3.org/2000/svg">
<path d="M11.5616 6.61622C11.8364 6.76295 12.0472 7.1711 11.9914 7.44906L11.9191 7.80761C11.8013 8.40073 11.2991 8.58362 10.7143 8.24676L8.67868 7.07294C8.42287 6.91324 8.21198 6.69097 8.06594 6.42712C7.91144 6.16917 7.82504 5.87619 7.81485 5.57569C7.81485 5.04044 8.1827 4.81311 8.64665 5.058L11.5575 6.61415L11.5595 6.61622H11.5616ZM2.1689 1.31746C2.63388 1.60575 3.0007 2.25776 3.0007 2.79611C3.0007 3.33652 2.61425 3.56798 2.13686 3.29313C2.13686 3.29313 0.0340989 2.08106 0 2.0573C0 2.0573 0.00206658 0.513549 0.00413318 0.450518C0.010333 0.298622 0.0185994 0.150862 0.0382321 0L2.16683 1.31952L2.1689 1.31746Z" fill="white"/>
</svg>
