<svg width="6" height="4" viewBox="0 0 6 4" fill="none" xmlns="http://www.w3.org/2000/svg">
<path d="M5.56506 0.163474L0.236197 3.23782C0.189943 3.26455 0.156118 3.30846 0.142081 3.36C0.128043 3.41155 0.13493 3.46655 0.161243 3.51304C0.178794 3.54344 0.204072 3.56867 0.234513 3.58615C0.264953 3.60363 0.299475 3.61275 0.334578 3.61259H0.358C0.367369 3.61259 0.377911 3.61259 0.388451 3.60908L0.431786 3.59034L0.43647 3.588L5.76533 0.512485C5.79955 0.492639 5.82721 0.463212 5.8449 0.427832C5.86259 0.392452 5.86953 0.352669 5.86488 0.313387L5.84029 0.236087C5.82067 0.201659 5.79128 0.173823 5.75584 0.156102C5.7204 0.138382 5.6805 0.131574 5.64119 0.136538L5.56506 0.163474Z" fill="#373A3E" stroke="#373A3E" stroke-width="0.23"/>
</svg>
