<svg width="8" height="14" viewBox="0 0 8 14" fill="none" xmlns="http://www.w3.org/2000/svg">
<path d="M7.27897 0.12238C7.3984 0.12238 7.49437 0.218352 7.49437 0.33885V11.6635C7.49437 12.1945 7.19899 12.6978 6.6285 13.1031L6.36724 13.2694C5.65278 13.6821 4.72933 13.8922 3.80267 13.8922H3.80054C2.98905 13.8922 2.18075 13.7311 1.51215 13.4144L1.2349 13.2694C0.493786 12.8429 0.108834 12.2702 0.108834 11.6635V0.33885C0.106755 0.30936 0.11077 0.279758 0.120627 0.251886C0.130483 0.224015 0.145973 0.19847 0.166129 0.176844C0.186285 0.155217 0.210674 0.137971 0.237783 0.126179C0.264893 0.114387 0.29414 0.108301 0.323704 0.108301C0.353267 0.108301 0.382514 0.114387 0.409624 0.126179C0.436733 0.137971 0.461126 0.155217 0.481282 0.176844C0.501438 0.19847 0.516924 0.224015 0.52678 0.251886C0.536637 0.279758 0.540652 0.30936 0.538573 0.33885V11.6635C0.538573 12.0772 0.801962 12.4611 1.2477 12.7693L1.44924 12.8962C2.10291 13.2737 2.95492 13.4592 3.80054 13.4592C4.53952 13.4592 5.2849 13.3174 5.89698 13.0295L6.15184 12.8962C6.71807 12.5699 7.06356 12.1369 7.06356 11.6635V0.33885C7.06356 0.219419 7.15953 0.12238 7.27897 0.12238Z" fill="#373A3E" stroke="#373A3E" stroke-width="0.203"/>
</svg>
