<svg width="7" height="15" viewBox="0 0 7 15" fill="none" xmlns="http://www.w3.org/2000/svg">
<path d="M0.289516 0.116967C0.243834 0.117233 0.200099 0.135498 0.167797 0.1678C0.135495 0.200102 0.11723 0.243837 0.116964 0.289519V14.6986C0.116964 14.7453 0.135233 14.79 0.167714 14.8204L0.203239 14.8478C0.229089 14.8631 0.258456 14.8715 0.288499 14.8722H0.289516C0.304741 14.8722 0.319965 14.8701 0.334175 14.8661L0.37985 14.8468L6.79674 11.144C6.83663 11.1207 6.86577 11.0826 6.87792 11.038C6.89006 10.9934 6.88424 10.9459 6.8617 10.9055C6.83836 10.8653 6.80005 10.837 6.75515 10.8251C6.71025 10.8131 6.66242 10.8194 6.62216 10.8426L0.637663 14.2956L0.465111 14.3961V0.289519C0.464575 0.243393 0.445807 0.199355 0.412905 0.167024C0.380003 0.134692 0.335644 0.116696 0.289516 0.116967Z" fill="#373A3E" stroke="#373A3E" stroke-width="0.23"/>
</svg>
