<svg width="7" height="8" viewBox="0 0 7 8" fill="none" xmlns="http://www.w3.org/2000/svg">
<path d="M5.1083 0.122517C5.23028 0.133605 5.34559 0.158 5.45426 0.191265L6.00313 0.50728C6.13064 0.580462 6.24596 0.676929 6.34686 0.793356L6.37236 0.824403C6.63294 1.14374 6.78928 1.60391 6.82033 2.16608L6.82587 2.41224C6.80962 2.96812 6.70674 3.51805 6.52095 4.04221L6.42891 4.29503C6.01865 5.35285 5.36001 6.28426 4.62707 6.93403C3.93849 7.54388 3.19891 7.89427 2.55357 7.88429L2.42495 7.87764C2.27011 7.86527 2.11838 7.82743 1.97587 7.76565L1.84614 7.69912L0.140769 6.71448C0.183878 6.58676 0.213241 6.4548 0.228364 6.32085L0.239455 6.15009V6.14898C0.25387 5.07342 0.667461 3.8515 1.3261 2.78592C1.94372 1.78797 2.76869 0.936395 3.66572 0.468471L3.84424 0.379765C4.19178 0.210947 4.57228 0.12084 4.95862 0.115864L5.1083 0.122517ZM5.07726 1.77023C4.7934 1.66711 4.46186 1.69705 4.12921 1.83343C3.79657 1.97093 3.45283 2.21709 3.1346 2.56082L3.00043 2.71384C2.33957 3.50776 1.98253 4.53453 2.05238 5.32734L2.07345 5.48369C2.09895 5.63227 2.14109 5.77198 2.20208 5.8995L2.2686 6.02147C2.42384 6.26652 2.6445 6.41621 2.90285 6.47054C3.15788 6.52376 3.44174 6.48163 3.72671 6.36188L3.7256 6.36077C4.05603 6.22216 4.39644 5.97822 4.71024 5.63892L4.8433 5.48701C5.14933 5.11999 5.38995 4.7064 5.55405 4.28948L5.62058 4.11096C5.84789 3.4379 5.87228 2.75265 5.62502 2.27364L5.57068 2.17828C5.5013 2.06564 5.41051 1.9677 5.30346 1.88998L5.1959 1.82346V1.82124L5.07615 1.76912L5.07726 1.77023Z" fill="#373A3E" stroke="#373A3E" stroke-width="0.209"/>
</svg>
