<svg width="4" height="5" viewBox="0 0 4 5" fill="none" xmlns="http://www.w3.org/2000/svg">
<path d="M2.22957 0.229224C2.6167 0.0776928 2.97727 0.0776928 3.26707 0.229224C3.3807 0.289898 3.4811 0.371516 3.56239 0.471454L3.63981 0.583167L3.64202 0.584272C3.88646 0.973609 3.93955 1.5554 3.77254 2.21794L3.68737 2.50552C3.53662 2.94545 3.31711 3.35871 3.037 3.72994L2.91312 3.88479C2.64769 4.21529 2.31857 4.4891 1.94531 4.69001L1.80152 4.75637C1.61427 4.83759 1.41276 4.88083 1.20867 4.88357H1.20646C1.05697 4.88753 0.908557 4.85719 0.772618 4.79488C0.636679 4.73257 0.516824 4.63993 0.422252 4.5241L0.344827 4.4157C0.269488 4.2962 0.213495 4.16555 0.178917 4.02858L0.14684 3.87705C0.0141112 3.12271 0.326025 2.09627 0.94653 1.27778L1.07373 1.1174C1.43652 0.682713 1.84134 0.380756 2.22846 0.229224H2.22957ZM2.66094 0.353104C2.26828 0.397347 1.82475 0.653956 1.42988 1.06099L1.24738 1.26451C0.92662 1.65053 0.67333 2.10512 0.51848 2.55418C0.383539 2.94794 0.319388 3.34392 0.351464 3.69233L0.371373 3.83833C0.401237 4.0142 0.456541 4.16462 0.539496 4.29514V4.29403C0.602686 4.40027 0.691447 4.48902 0.797698 4.55219C0.903949 4.61536 1.02431 4.65095 1.14783 4.65572C1.36352 4.66678 1.57035 4.60263 1.70972 4.5429C2.02163 4.41128 2.33133 4.18011 2.61448 3.87262L2.73394 3.73547C3.01377 3.40033 3.24273 3.01431 3.40201 2.60728L3.46505 2.4303C3.66193 1.8463 3.69511 1.27335 3.52699 0.867427L3.44182 0.704835C3.38812 0.619243 3.31913 0.544257 3.23831 0.48362L3.15424 0.430528C3.03719 0.370813 2.90737 0.340446 2.77597 0.342043H2.66204L2.66094 0.353104Z" fill="#373A3E" stroke="#373A3E" stroke-width="0.209"/>
</svg>
