<svg width="40" height="32" viewBox="0 0 40 32" fill="none" xmlns="http://www.w3.org/2000/svg">
<path d="M39.6827 13.5208C39.6827 14.4084 39.6113 15.1683 39.4645 15.8287C39.4488 15.9043 39.4164 15.9755 39.3696 16.0369C39.3228 16.0984 39.2628 16.1486 39.1941 16.1839C39.1254 16.2192 39.0496 16.2386 38.9724 16.2408C38.8952 16.243 38.8185 16.2279 38.7478 16.1966C38.6458 16.0714 38.5218 15.9658 38.382 15.885L37.8753 15.5935C37.7626 15.5578 37.6463 15.5343 37.5286 15.5231C37.1466 15.4899 36.7395 15.5784 36.3294 15.7664C34.5291 16.5906 33.0253 19.0915 33.0002 21.0888C32.9987 21.2817 32.9612 21.4726 32.8896 21.6517C32.77 21.9543 32.5569 22.2146 32.2664 22.3815L23.6269 27.3692C23.2771 27.5682 22.8297 27.332 22.8197 26.9279C22.7875 25.782 22.2528 24.9749 21.3119 24.8874C21.2868 24.8844 21.2566 24.8824 21.2315 24.8844H21.2295C20.8636 24.8643 20.4766 24.9578 20.0836 25.1417C18.9477 25.6745 17.7978 26.9742 17.1887 28.5403C16.8047 29.5344 16.7021 30.4602 16.8469 31.1859L16.861 31.2633L16.8338 31.2784C15.7869 31.8124 14.6166 32.0577 13.4433 31.989C13.0982 31.9686 12.7552 31.9199 12.4181 31.8433C11.8177 31.7113 11.2395 31.4936 10.7012 31.197C10.1011 30.8703 9.51206 30.5416 8.93408 30.2219C6.16782 28.683 3.69908 27.2245 1.70882 25.9197C1.18309 25.5758 0.751478 25.106 0.453093 24.5532C0.154709 24.0003 -0.00102264 23.3817 5.05358e-06 22.7534V22.6871C0.032077 22.7095 0.0656637 22.7296 0.100523 22.7474L2.07873 23.8893C2.54312 24.1566 2.91906 23.9395 2.91906 23.4068C2.91906 22.873 2.56222 22.2498 2.10989 21.9674L0.0392072 20.6827C0.0643368 20.4304 0.108565 20.1791 0.166866 19.9349C0.379382 19.0769 0.785845 18.2791 1.35499 17.6028C2.35332 16.4293 3.41964 15.3153 4.54846 14.2666C2.79442 16.0066 1.50979 19.759 5.47524 22.4941L5.64009 22.5986C11.9124 26.7812 18.0591 20.8988 19.6423 18.7045C19.6443 18.7025 19.8343 18.4261 20.163 17.9748C20.3037 17.7818 21.2215 16.5635 21.4305 16.2971C22.689 14.6848 24.4632 12.6644 26.0353 11.3305L26.1026 11.2762C26.1556 11.2331 26.1974 11.1778 26.2243 11.115C26.2512 11.0522 26.2625 10.9838 26.2571 10.9157C26.2518 10.8476 26.23 10.7818 26.1937 10.7239C26.1573 10.6661 26.1074 10.618 26.0483 10.5836L15.2989 4.37663C15.2989 4.37663 15.1793 4.30526 14.8868 4.20273C15.2024 3.96149 15.5201 3.74035 15.8417 3.53529C18.3728 1.94207 21.9975 -0.21405 25.5448 0.0171428C26.0835 0.0533294 26.6193 0.145806 27.148 0.298594C27.527 0.411175 27.8868 0.567984 28.2296 0.763995L35.1101 4.73849C35.9928 5.25115 36.7194 5.99441 37.2119 6.88858C37.3486 7.12983 37.4904 7.34192 37.6431 7.5118C38.97 8.97535 39.6786 10.3364 39.6786 13.5158L39.6827 13.5198V13.5208ZM37.1114 9.63072C37.2053 9.55003 37.2812 9.45056 37.3344 9.33873C37.3875 9.2269 37.4166 9.10518 37.4198 8.98142C37.423 8.85765 37.4003 8.73459 37.3531 8.62014C37.3058 8.5057 37.2351 8.40242 37.1456 8.31695C36.1143 7.3379 34.4366 7.54095 32.5318 8.40038C32.3809 8.46822 32.2317 8.53995 32.0845 8.61549C31.5638 8.87684 31.03 9.18442 30.4903 9.52719C30.8501 10.2469 31.1185 10.9586 31.3205 11.8472C31.4341 12.3296 31.5256 12.8674 31.605 13.4886H31.603V13.4926L31.605 13.4886C31.982 13.2574 32.3368 13.0303 32.4675 12.9488C34.4115 11.7044 36.0891 10.5123 37.1114 9.62771V9.62972V9.63072ZM29.9042 14.53C30.1957 14.3591 30.3566 14.0264 30.3123 13.6897C30.1575 12.4734 29.9213 11.3767 29.3825 10.264C28.5543 10.845 27.9019 11.3868 27.1008 12.0773C26.8786 12.2653 26.6615 12.4573 26.4454 12.6523C24.7497 14.1852 23.2147 15.8438 22.1392 17.2912C21.9529 17.5408 21.7733 17.7952 21.6004 18.0542C21.4245 18.3155 21.6939 18.6462 21.9884 18.5306C24.8311 17.3907 27.1299 16.1684 29.9012 14.528L29.9042 14.53ZM11.6732 27.9351C11.7275 27.6657 11.5224 27.2677 11.2551 27.126L8.42345 25.6111C7.97112 25.3709 7.61327 25.593 7.61327 26.1157C7.61327 26.3831 7.70776 26.6807 7.85854 26.944C8.01132 27.2094 8.2204 27.4396 8.45461 27.5713L10.4328 28.7131C10.9997 29.0438 11.4913 28.8639 11.6059 28.2859L11.6752 27.9371L11.6732 27.9351Z" fill="#66A3FF"/>
</svg>
