<svg xmlns="http://www.w3.org/2000/svg" fill="none" viewBox="0 245.167602 603.9680638722555 106.26599999999999" style="max-height: 500px" width="603.9680638722555" height="106.26599999999999">
<g clip-path="url(#clip0_445_7373)">
<path fill="#0050B2" d="M19.4779 286.551C13.8741 290.114 7.38105 292.02 0.723877 292.116V306.027C5.91295 305.884 11.0811 304.487 15.7331 301.793L28.8386 294.213L29.0773 294.243L78.3779 262.915V249.111L19.4779 286.545V286.551Z"/>
<path fill="#0050B2" d="M36.4146 316.501L78.3748 289.845V276.074L30.1722 306.695C29.7574 306.964 29.3397 307.143 28.8951 307.289L28.8354 307.349L17.8992 313.054C12.5789 315.814 6.69753 317.282 0.720703 317.375V329.06H12.5013C17.75 329.06 22.8138 331.265 26.2035 335.272C28.4355 337.91 30.402 340.864 32.0342 343.631L34.4213 347.674H48.7442L43.961 340.154L34.5705 324.82C32.7861 321.997 33.6186 318.282 36.4116 316.498L36.4146 316.501Z"/>
<path fill="#0050B2" d="M148.673 313.433H103.634L95.5593 326.097H82.8955L118.121 270.685H134.27L169.495 326.097H156.751L148.676 313.433H148.673ZM142.103 302.983L126.192 277.969L110.282 302.983H142.103Z"/>
<path fill="#0050B2" d="M210.787 316.554C207.955 316.733 205.073 316.835 202.319 316.835C188.47 316.835 174.058 311.681 174.058 299.594V297.197C174.058 285.109 188.467 279.956 202.319 279.956C205.073 279.956 207.955 280.058 210.787 280.237C213.747 276.08 217.826 272.84 222.52 270.443C217.343 269.933 210.432 269.5 202.322 269.5C183.958 269.5 163.071 276.871 163.071 296.971V299.826C163.071 319.923 183.958 327.296 202.322 327.296C210.432 327.296 217.343 326.864 222.52 326.353C217.826 323.957 213.747 320.717 210.787 316.56V316.554Z"/>
<path fill="#0050B2" d="M221.854 297.194V299.591C221.854 311.678 236.264 316.832 250.115 316.832C263.967 316.832 280.671 314.23 280.671 314.23V324.993C280.671 324.993 268.478 327.287 250.115 327.287C244.377 327.287 238.382 326.574 232.874 324.966C226.727 323.182 221.168 320.299 217.164 316.092C213.287 312.013 210.865 306.657 210.865 299.82V296.965C210.865 290.128 213.287 284.775 217.164 280.693C221.168 276.486 226.727 273.603 232.874 271.819C238.382 270.211 244.377 269.497 250.115 269.497C268.478 269.497 280.671 271.792 280.671 271.792V282.555C280.671 282.555 263.991 279.953 250.115 279.953C236.24 279.953 221.854 285.106 221.854 297.194Z"/>
<path fill="#0050B2" d="M357.188 293.476H345.888C344.435 297.332 340.445 300.134 336.1 300.134H297.47V280.502H335.963C339.845 280.502 343.608 282.484 345.372 285.942C345.697 286.578 345.941 287.21 346.118 287.84H357.295C357.086 286.333 356.687 284.799 356.066 283.253C352.948 275.474 345.037 270.685 336.658 270.685H286.466V326.097H297.467V309.948H325.173L345.36 326.097H360.321L339.977 309.632C348.427 308.295 355.687 301.757 357.185 293.473L357.188 293.476Z"/>
<path fill="#0050B2" d="M375.927 303.3H425.559V293.485H375.927V293.476H364.926V326.097H428.409V315.728H375.927V303.3Z"/>
<path fill="#0050B2" d="M364.926 270.688V287.84H375.927V281.057H428.409V270.688H364.926Z"/>
<path fill="#0050B2" d="M445.832 281.057V294.357H495.464V304.726H445.832V326.1H434.83V270.688H498.314V281.057H445.832Z"/>
<path fill="#0050B2" d="M503.547 326.097V270.685H514.549V326.097H503.547Z"/>
<path fill="#0050B2" d="M597.512 270.688V326.1H584.767L533.473 284.068V326.1H522.471V270.688H535.135L586.51 312.72V270.688H597.512Z"/>
</g>
<defs>
<clipPath id="clip0_445_7373">
<rect transform="translate(0.723633)" fill="white" height="596.788" width="596.788"/>
</clipPath>
</defs>
</svg>